<svg width="24" height="24" viewBox="0 0 24 24" fill="none" xmlns="http://www.w3.org/2000/svg">
<g id="Adjustments">
<path id="Vector" d="M6.99991 6C6.99991 5.73478 6.89456 5.48043 6.70702 5.29289C6.51948 5.10536 6.26513 5 5.99991 5C5.7347 5 5.48034 5.10536 5.29281 5.29289C5.10527 5.48043 4.99991 5.73478 4.99991 6V13.268C4.6959 13.4435 4.44344 13.696 4.26792 14C4.0924 14.3041 4 14.6489 4 15C4 15.3511 4.0924 15.6959 4.26792 16C4.44344 16.304 4.6959 16.5565 4.99991 16.732V18C4.99991 18.2652 5.10527 18.5196 5.29281 18.7071C5.48034 18.8946 5.7347 19 5.99991 19C6.26513 19 6.51948 18.8946 6.70702 18.7071C6.89456 18.5196 6.99991 18.2652 6.99991 18V16.732C7.30393 16.5565 7.55638 16.304 7.7319 16C7.90742 15.6959 7.99982 15.3511 7.99982 15C7.99982 14.6489 7.90742 14.3041 7.7319 14C7.55638 13.696 7.30393 13.4435 6.99991 13.268V6ZM12.9999 6C12.9999 5.73478 12.8946 5.48043 12.707 5.29289C12.5195 5.10536 12.2651 5 11.9999 5C11.7347 5 11.4803 5.10536 11.2928 5.29289C11.1053 5.48043 10.9999 5.73478 10.9999 6V7.268C10.6959 7.44354 10.4434 7.69602 10.2679 8.00004C10.0924 8.30407 10 8.64894 10 9C10 9.35106 10.0924 9.69593 10.2679 9.99996C10.4434 10.304 10.6959 10.5565 10.9999 10.732V18C10.9999 18.2652 11.1053 18.5196 11.2928 18.7071C11.4803 18.8946 11.7347 19 11.9999 19C12.2651 19 12.5195 18.8946 12.707 18.7071C12.8946 18.5196 12.9999 18.2652 12.9999 18V10.732C13.3039 10.5565 13.5564 10.304 13.7319 9.99996C13.9074 9.69593 13.9998 9.35106 13.9998 9C13.9998 8.64894 13.9074 8.30407 13.7319 8.00004C13.5564 7.69602 13.3039 7.44354 12.9999 7.268V6ZM17.9999 5C18.2651 5 18.5195 5.10536 18.707 5.29289C18.8946 5.48043 18.9999 5.73478 18.9999 6V13.268C19.3039 13.4435 19.5564 13.696 19.7319 14C19.9074 14.3041 19.9998 14.6489 19.9998 15C19.9998 15.3511 19.9074 15.6959 19.7319 16C19.5564 16.304 19.3039 16.5565 18.9999 16.732V18C18.9999 18.2652 18.8946 18.5196 18.707 18.7071C18.5195 18.8946 18.2651 19 17.9999 19C17.7347 19 17.4803 18.8946 17.2928 18.7071C17.1053 18.5196 16.9999 18.2652 16.9999 18V16.732C16.6959 16.5565 16.4434 16.304 16.2679 16C16.0924 15.6959 16 15.3511 16 15C16 14.6489 16.0924 14.3041 16.2679 14C16.4434 13.696 16.6959 13.4435 16.9999 13.268V6C16.9999 5.73478 17.1053 5.48043 17.2928 5.29289C17.4803 5.10536 17.7347 5 17.9999 5Z" fill="#48535B"/>
</g>
</svg>
