<svg width="83" height="83" viewBox="0 0 83 83" fill="none" xmlns="http://www.w3.org/2000/svg">
<g id="World-bro 1">
<g id="freepik--background-simple--inject-3">
<path id="Vector" d="M15.6792 49.9006C15.6792 49.9006 20.2807 60.8566 28.0976 66.6467C35.9146 72.4368 46.429 72.6078 54.6443 66.5919C62.8597 60.5761 62.6372 48.1659 68.2447 38.1097C73.8522 28.0534 73.58 16.5844 63.439 11.0998C53.2981 5.61517 48.9124 12.7598 36.728 13.3375C24.5436 13.9152 6.09432 24.091 15.6792 49.9006Z" fill="#0872BA"/>
<path id="Vector_2" opacity="0.7" d="M15.6792 49.9006C15.6792 49.9006 20.2807 60.8566 28.0976 66.6467C35.9146 72.4368 46.429 72.6078 54.6443 66.5919C62.8597 60.5761 62.6372 48.1659 68.2447 38.1097C73.8522 28.0534 73.58 16.5844 63.439 11.0998C53.2981 5.61517 48.9124 12.7598 36.728 13.3375C24.5436 13.9152 6.09432 24.091 15.6792 49.9006Z" fill="white"/>
</g>
<g id="freepik--Plants--inject-3">
<path id="Vector_3" d="M19.8641 56.882C19.6284 57.639 19.2748 57.0746 19.0689 53.9986C18.971 52.556 18.8282 49.6062 20.475 50.1208C22.0569 50.6188 20.4019 55.134 20.4019 55.134L19.8641 56.882ZM22.0885 57.136C22.0885 57.136 25.1213 53.401 23.785 52.4183C22.3956 51.3957 21.5722 54.2326 21.1954 55.6287C20.392 58.6051 20.543 59.2541 21.0128 58.6167L22.0885 57.136ZM23.0446 60.1821C23.0446 60.1821 25.9048 57.7668 25.0267 56.8222C24.112 55.8395 23.0712 57.888 22.5815 58.9006C21.5357 61.0586 21.5573 61.5781 22.0088 61.1565L23.0446 60.1821ZM24.1253 63.2099C24.1253 63.2099 26.9855 60.793 26.1057 59.8484C25.1927 58.8657 24.1519 60.9158 23.6622 61.9284C22.6164 64.0864 22.6379 64.6043 23.0895 64.1843L24.1253 63.2099ZM18.3004 57.4348C18.3004 57.4348 13.8632 55.5739 13.2971 57.131C12.7062 58.7512 15.6593 58.7445 17.1052 58.7146C20.1878 58.6482 20.7671 58.3212 20.0218 58.0506L18.3004 57.4348ZM19.1021 59.8219C19.1021 59.8219 14.3828 58.8806 14.1371 60.5191C13.8814 62.2255 16.7748 61.6313 18.1842 61.3125C21.1921 60.6369 21.6951 60.2003 20.9099 60.0841L19.1021 59.8219ZM20.377 62.3915C20.377 62.3915 16.3648 61.7043 16.1955 63.0954C16.0179 64.5446 18.4514 63.9752 19.635 63.6731C22.1632 63.0323 22.5798 62.6522 21.9125 62.5708L20.377 62.3915ZM21.1738 64.5329C21.1738 64.5329 17.2629 63.4108 16.9408 64.7819C16.6088 66.2029 19.0988 65.8958 20.3007 65.7215C22.882 65.3513 23.3351 65.0177 22.6811 64.8666L21.1738 64.5329ZM17.7094 53.6334C17.7094 53.6334 15.5282 48.3878 13.6407 49.5299C11.677 50.7184 14.245 52.9528 15.5265 54.0119C18.2572 56.2844 19.054 56.394 18.649 55.5557L17.7094 53.6334Z" fill="#0872BA"/>
<path id="Vector_4" opacity="0.4" d="M19.8641 56.882C19.6284 57.639 19.2748 57.0746 19.0689 53.9986C18.971 52.556 18.8282 49.6062 20.475 50.1208C22.0569 50.6188 20.4019 55.134 20.4019 55.134L19.8641 56.882ZM22.0885 57.136C22.0885 57.136 25.1213 53.401 23.785 52.4183C22.3956 51.3957 21.5722 54.2326 21.1954 55.6287C20.392 58.6051 20.543 59.2541 21.0128 58.6167L22.0885 57.136ZM23.0446 60.1821C23.0446 60.1821 25.9048 57.7668 25.0267 56.8222C24.112 55.8395 23.0712 57.888 22.5815 58.9006C21.5357 61.0586 21.5573 61.5781 22.0088 61.1565L23.0446 60.1821ZM24.1253 63.2099C24.1253 63.2099 26.9855 60.793 26.1057 59.8484C25.1927 58.8657 24.1519 60.9158 23.6622 61.9284C22.6164 64.0864 22.6379 64.6043 23.0895 64.1843L24.1253 63.2099ZM18.3004 57.4348C18.3004 57.4348 13.8632 55.5739 13.2971 57.131C12.7062 58.7512 15.6593 58.7445 17.1052 58.7146C20.1878 58.6482 20.7671 58.3212 20.0218 58.0506L18.3004 57.4348ZM19.1021 59.8219C19.1021 59.8219 14.3828 58.8806 14.1371 60.5191C13.8814 62.2255 16.7748 61.6313 18.1842 61.3125C21.1921 60.6369 21.6951 60.2003 20.9099 60.0841L19.1021 59.8219ZM20.377 62.3915C20.377 62.3915 16.3648 61.7043 16.1955 63.0954C16.0179 64.5446 18.4514 63.9752 19.635 63.6731C22.1632 63.0323 22.5798 62.6522 21.9125 62.5708L20.377 62.3915ZM21.1738 64.5329C21.1738 64.5329 17.2629 63.4108 16.9408 64.7819C16.6088 66.2029 19.0988 65.8958 20.3007 65.7215C22.882 65.3513 23.3351 65.0177 22.6811 64.8666L21.1738 64.5329ZM17.7094 53.6334C17.7094 53.6334 15.5282 48.3878 13.6407 49.5299C11.677 50.7184 14.245 52.9528 15.5265 54.0119C18.2572 56.2844 19.054 56.394 18.649 55.5557L17.7094 53.6334Z" fill="white"/>
<path id="Vector_5" d="M14.623 51.375C14.623 51.375 19.4188 56.3268 20.6804 58.8998C22.1312 61.8562 23.2202 65.309 23.6186 68.146" stroke="#0872BA" stroke-width="1.25197" stroke-linecap="round" stroke-linejoin="round"/>
<path id="Vector_6" d="M19.6719 57.2369L19.8561 52.1191" stroke="#0872BA" stroke-width="1.25197" stroke-linecap="round" stroke-linejoin="round"/>
<path id="Vector_7" d="M20.6816 58.8997L22.5193 54.4592" stroke="#0872BA" stroke-width="1.25197" stroke-linecap="round" stroke-linejoin="round"/>
<path id="Vector_8" d="M20.3091 58.293L15.6445 57.7402" stroke="#0872BA" stroke-width="1.25197" stroke-linecap="round" stroke-linejoin="round"/>
<path id="Vector_9" d="M21.7441 61.244L24.1877 57.9473" stroke="#0872BA" stroke-width="1.25197" stroke-linecap="round" stroke-linejoin="round"/>
<path id="Vector_10" d="M21.2825 60.2617L17.8164 60.519" stroke="#0872BA" stroke-width="1.25197" stroke-linecap="round" stroke-linejoin="round"/>
<path id="Vector_11" d="M22.1594 62.7227L19.5117 63.048" stroke="#0872BA" stroke-width="1.25197" stroke-linecap="round" stroke-linejoin="round"/>
<path id="Vector_12" d="M22.8379 64.2812L24.1028 62.2676" stroke="#0872BA" stroke-width="1.25197" stroke-linecap="round" stroke-linejoin="round"/>
<path id="Vector_13" d="M23 64.9785L19.8809 65.0814" stroke="#0872BA" stroke-width="1.25197" stroke-linecap="round" stroke-linejoin="round"/>
<path id="Vector_14" d="M66.213 59.0424C65.2071 59.1188 65.715 58.4365 69.2458 56.75C70.9058 55.9582 74.3238 54.4061 74.4865 56.5939C74.6425 58.6938 68.5287 58.8565 68.5287 58.8565L66.213 59.0424ZM66.955 61.7881C66.955 61.7881 72.7899 63.6141 73.3245 61.5823C73.8806 59.4608 70.1422 59.8177 68.3179 60.0268C64.4235 60.4734 63.728 60.9564 64.7041 61.2104L66.955 61.7881ZM63.801 64.3478C63.801 64.3478 67.9975 66.5938 68.7014 65.1131C69.4334 63.5726 66.5234 63.3037 65.0975 63.1991C62.0564 62.9767 61.4555 63.2456 62.1643 63.5809L63.801 64.3478ZM60.73 67.0436C60.73 67.0436 64.9265 69.2896 65.6304 67.8089C66.3624 66.2684 63.4524 65.9995 62.0282 65.8949C58.9854 65.6725 58.3845 65.9398 59.0933 66.2767L60.73 67.0436ZM64.8319 57.4488C64.8319 57.4488 64.9514 51.3351 62.8399 51.3948C60.647 51.4579 62.0414 54.9439 62.7552 56.6371C64.2775 60.2493 64.9365 60.7871 64.9132 59.7712L64.8319 57.4488ZM62.3884 59.5155C62.3884 59.5155 61.2878 53.4997 59.2344 53.9761C57.098 54.4741 59.158 57.6149 60.1939 59.1221C62.4033 62.3591 63.1553 62.7492 62.9246 61.7682L62.3884 59.5155ZM59.9498 62.228C59.9498 62.228 58.8808 57.165 57.1561 57.6165C55.3616 58.0863 57.176 60.6941 58.0873 61.9524C60.0312 64.6383 60.6753 64.952 60.4578 64.127L59.9498 62.228ZM57.7918 64.1735C57.7918 64.1735 57.2656 59.0275 55.5044 59.2914C53.6701 59.5687 55.1956 62.3541 55.9692 63.7021C57.6175 66.5805 58.2234 66.959 58.0956 66.1157L57.7918 64.1735ZM69.0549 54.9672C69.0549 54.9672 74.2292 49.9324 71.9948 48.2375C69.6708 46.4746 68.2349 50.5615 67.5775 52.5684C66.1732 56.8629 66.4155 57.8539 67.219 56.9824L69.0549 54.9672Z" fill="#0872BA"/>
<path id="Vector_15" opacity="0.4" d="M66.213 59.0424C65.2071 59.1188 65.715 58.4365 69.2458 56.75C70.9058 55.9582 74.3238 54.4061 74.4865 56.5939C74.6425 58.6938 68.5287 58.8565 68.5287 58.8565L66.213 59.0424ZM66.955 61.7881C66.955 61.7881 72.7899 63.6141 73.3245 61.5823C73.8806 59.4608 70.1422 59.8177 68.3179 60.0268C64.4235 60.4734 63.728 60.9564 64.7041 61.2104L66.955 61.7881ZM63.801 64.3478C63.801 64.3478 67.9975 66.5938 68.7014 65.1131C69.4334 63.5726 66.5234 63.3037 65.0975 63.1991C62.0564 62.9767 61.4555 63.2456 62.1643 63.5809L63.801 64.3478ZM60.73 67.0436C60.73 67.0436 64.9265 69.2896 65.6304 67.8089C66.3624 66.2684 63.4524 65.9995 62.0282 65.8949C58.9854 65.6725 58.3845 65.9398 59.0933 66.2767L60.73 67.0436ZM64.8319 57.4488C64.8319 57.4488 64.9514 51.3351 62.8399 51.3948C60.647 51.4579 62.0414 54.9439 62.7552 56.6371C64.2775 60.2493 64.9365 60.7871 64.9132 59.7712L64.8319 57.4488ZM62.3884 59.5155C62.3884 59.5155 61.2878 53.4997 59.2344 53.9761C57.098 54.4741 59.158 57.6149 60.1939 59.1221C62.4033 62.3591 63.1553 62.7492 62.9246 61.7682L62.3884 59.5155ZM59.9498 62.228C59.9498 62.228 58.8808 57.165 57.1561 57.6165C55.3616 58.0863 57.176 60.6941 58.0873 61.9524C60.0312 64.6383 60.6753 64.952 60.4578 64.127L59.9498 62.228ZM57.7918 64.1735C57.7918 64.1735 57.2656 59.0275 55.5044 59.2914C53.6701 59.5687 55.1956 62.3541 55.9692 63.7021C57.6175 66.5805 58.2234 66.959 58.0956 66.1157L57.7918 64.1735ZM69.0549 54.9672C69.0549 54.9672 74.2292 49.9324 71.9948 48.2375C69.6708 46.4746 68.2349 50.5615 67.5775 52.5684C66.1732 56.8629 66.4155 57.8539 67.219 56.9824L69.0549 54.9672Z" fill="white"/>
<path id="Vector_16" d="M70.2631 50.2676C70.2631 50.2676 66.6609 58.2555 64.2124 60.953C61.4003 64.0539 57.8297 66.9589 54.6641 68.755" stroke="#0872BA" stroke-width="1.25197" stroke-linecap="round" stroke-linejoin="round"/>
<path id="Vector_17" d="M65.7031 58.9801L71.8368 56.7988" stroke="#0872BA" stroke-width="1.25197" stroke-linecap="round" stroke-linejoin="round"/>
<path id="Vector_18" d="M64.2129 60.9531L70.3217 61.0428" stroke="#0872BA" stroke-width="1.25197" stroke-linecap="round" stroke-linejoin="round"/>
<path id="Vector_19" d="M64.7529 60.2288L63.2207 54.457" stroke="#0872BA" stroke-width="1.25197" stroke-linecap="round" stroke-linejoin="round"/>
<path id="Vector_20" d="M61.9395 63.3086L66.9809 64.6482" stroke="#0872BA" stroke-width="1.25197" stroke-linecap="round" stroke-linejoin="round"/>
<path id="Vector_21" d="M62.8837 62.3038L60.9531 58.3281" stroke="#0872BA" stroke-width="1.25197" stroke-linecap="round" stroke-linejoin="round"/>
<path id="Vector_22" d="M60.3888 64.4906L58.7637 61.5159" stroke="#0872BA" stroke-width="1.25197" stroke-linecap="round" stroke-linejoin="round"/>
<path id="Vector_23" d="M58.8652 66.0234L61.8383 66.5746" stroke="#0872BA" stroke-width="1.25197" stroke-linecap="round" stroke-linejoin="round"/>
<path id="Vector_24" d="M58.1188 66.5414L56.5352 62.9043" stroke="#0872BA" stroke-width="1.25197" stroke-linecap="round" stroke-linejoin="round"/>
<path id="Vector_25" d="M52.1984 59.696C51.8664 60.2023 51.7253 59.7143 52.2199 57.4102C52.4523 56.3296 52.9686 54.1317 54.0692 54.8571C55.1266 55.5543 52.9603 58.5257 52.9603 58.5257L52.1984 59.696ZM53.7787 60.3501C53.7787 60.3501 56.7932 58.2435 56.018 57.2409C55.2129 56.1984 54.0111 58.1091 53.44 59.0553C52.2233 61.0738 52.1984 61.5818 52.6781 61.2133L53.7787 60.3501ZM53.8418 62.7903C53.8418 62.7903 56.4513 61.6166 55.9998 60.7385C55.535 59.8238 54.3398 61.1104 53.7654 61.7511C52.542 63.1173 52.449 63.5024 52.8707 63.2883L53.8418 62.7903ZM53.9978 65.2421C53.9978 65.2421 56.6073 64.0685 56.1558 63.1903C55.691 62.2757 54.4958 63.5622 53.9214 64.2029C52.6997 65.5691 52.6067 65.9542 53.0267 65.7401L53.9978 65.2421ZM50.9351 59.7641C50.9351 59.7641 48.0666 57.4633 47.3229 58.4875C46.5477 59.5549 48.719 60.1708 49.788 60.453C52.0656 61.0522 52.5603 60.9344 52.0689 60.5792L50.9351 59.7641ZM51.0214 61.6864C51.0214 61.6864 47.7529 60.0015 47.2267 61.1535C46.6805 62.3537 48.9315 62.5263 50.0337 62.5894C52.3859 62.7255 52.8474 62.5097 52.2946 62.2574L51.0214 61.6864ZM51.4182 63.8444C51.4182 63.8444 48.6144 62.4948 48.1961 63.4825C47.7612 64.5084 49.6702 64.603 50.6031 64.6312C52.5951 64.691 52.9819 64.4984 52.5088 64.2992L51.4182 63.8444ZM51.5526 65.5857C51.5526 65.5857 48.9082 63.9473 48.3887 64.8835C47.8458 65.8579 49.7333 66.1534 50.6595 66.2813C52.6333 66.5535 53.0367 66.4024 52.5885 66.1534L51.5526 65.5857ZM51.2937 56.8491C51.2937 56.8491 50.7957 52.5331 49.1672 52.9797C47.474 53.4395 48.8916 55.6207 49.6088 56.6732C51.1376 58.9175 51.6987 59.1632 51.5792 58.4643L51.2937 56.8491Z" fill="#0872BA"/>
<path id="Vector_26" opacity="0.4" d="M52.1984 59.696C51.8664 60.2023 51.7253 59.7143 52.2199 57.4102C52.4523 56.3296 52.9686 54.1317 54.0692 54.8571C55.1266 55.5543 52.9603 58.5257 52.9603 58.5257L52.1984 59.696ZM53.7787 60.3501C53.7787 60.3501 56.7932 58.2435 56.018 57.2409C55.2129 56.1984 54.0111 58.1091 53.44 59.0553C52.2233 61.0738 52.1984 61.5818 52.6781 61.2133L53.7787 60.3501ZM53.8418 62.7903C53.8418 62.7903 56.4513 61.6166 55.9998 60.7385C55.535 59.8238 54.3398 61.1104 53.7654 61.7511C52.542 63.1173 52.449 63.5024 52.8707 63.2883L53.8418 62.7903ZM53.9978 65.2421C53.9978 65.2421 56.6073 64.0685 56.1558 63.1903C55.691 62.2757 54.4958 63.5622 53.9214 64.2029C52.6997 65.5691 52.6067 65.9542 53.0267 65.7401L53.9978 65.2421ZM50.9351 59.7641C50.9351 59.7641 48.0666 57.4633 47.3229 58.4875C46.5477 59.5549 48.719 60.1708 49.788 60.453C52.0656 61.0522 52.5603 60.9344 52.0689 60.5792L50.9351 59.7641ZM51.0214 61.6864C51.0214 61.6864 47.7529 60.0015 47.2267 61.1535C46.6805 62.3537 48.9315 62.5263 50.0337 62.5894C52.3859 62.7255 52.8474 62.5097 52.2946 62.2574L51.0214 61.6864ZM51.4182 63.8444C51.4182 63.8444 48.6144 62.4948 48.1961 63.4825C47.7612 64.5084 49.6702 64.603 50.6031 64.6312C52.5951 64.691 52.9819 64.4984 52.5088 64.2992L51.4182 63.8444ZM51.5526 65.5857C51.5526 65.5857 48.9082 63.9473 48.3887 64.8835C47.8458 65.8579 49.7333 66.1534 50.6595 66.2813C52.6333 66.5535 53.0367 66.4024 52.5885 66.1534L51.5526 65.5857ZM51.2937 56.8491C51.2937 56.8491 50.7957 52.5331 49.1672 52.9797C47.474 53.4395 48.8916 55.6207 49.6088 56.6732C51.1376 58.9175 51.6987 59.1632 51.5792 58.4643L51.2937 56.8491Z" fill="white"/>
<path id="Vector_27" d="M49.5078 54.5469C49.5078 54.5469 51.9895 59.1949 52.3746 61.3529C52.8195 63.8313 52.8926 66.5968 52.5871 68.7664" stroke="#0872BA" stroke-width="1.25197" stroke-linecap="round" stroke-linejoin="round"/>
<path id="Vector_28" d="M51.9824 59.9156L53.1942 56.1956" stroke="#0872BA" stroke-width="1.25197" stroke-linecap="round" stroke-linejoin="round"/>
<path id="Vector_29" d="M52.373 61.3497L54.6572 58.4746" stroke="#0872BA" stroke-width="1.25197" stroke-linecap="round" stroke-linejoin="round"/>
<path id="Vector_30" d="M52.2277 60.8272L48.916 59.4395" stroke="#0872BA" stroke-width="1.25197" stroke-linecap="round" stroke-linejoin="round"/>
<path id="Vector_31" d="M52.6602 63.2977L55.1485 61.3887" stroke="#0872BA" stroke-width="1.25197" stroke-linecap="round" stroke-linejoin="round"/>
<path id="Vector_32" d="M52.5309 62.479L49.9297 61.9395" stroke="#0872BA" stroke-width="1.25197" stroke-linecap="round" stroke-linejoin="round"/>
<path id="Vector_33" d="M52.6542 64.4694L50.6406 64.1523" stroke="#0872BA" stroke-width="1.25197" stroke-linecap="round" stroke-linejoin="round"/>
<path id="Vector_34" d="M52.8242 65.7584L54.1771 64.5449" stroke="#0872BA" stroke-width="1.25197" stroke-linecap="round" stroke-linejoin="round"/>
<path id="Vector_35" d="M52.7984 66.3056L50.4844 65.7246" stroke="#0872BA" stroke-width="1.25197" stroke-linecap="round" stroke-linejoin="round"/>
<path id="Vector_36" d="M15.2379 63.7429C15.3392 64.2226 14.9789 64.0251 13.9398 62.4282C13.4451 61.6878 12.484 60.139 13.5281 59.9249C14.5241 59.7141 15.0005 62.6506 15.0005 62.6506L15.2379 63.7429ZM16.5144 63.2084C16.5144 63.2084 17.0224 60.2801 16.0065 60.1523C14.9474 60.0212 15.3607 61.799 15.5782 62.6656C16.043 64.5131 16.3202 64.8236 16.38 64.3256L16.5144 63.2084ZM17.9503 64.5629C17.9503 64.5629 18.7621 62.3966 18.0035 62.1526C17.215 61.8986 17.2714 63.3146 17.3129 64.0118C17.4009 65.4909 17.5685 65.7648 17.6847 65.4012L17.9503 64.5629ZM19.4443 65.8694C19.4443 65.8694 20.2561 63.7031 19.4975 63.459C18.709 63.2051 18.7654 64.621 18.8069 65.3182C18.8949 66.7973 19.0625 67.0712 19.1787 66.7077L19.4443 65.8694ZM14.5573 64.5082C14.5573 64.5082 11.6042 64.8402 11.7685 65.8544C11.9345 66.9069 13.5298 66.0121 14.3 65.5589C15.9417 64.5945 16.1559 64.2426 15.6712 64.3222L14.5573 64.5082ZM15.7193 65.554C15.7193 65.554 12.8973 66.4703 13.2525 67.4281C13.6294 68.4241 15.0088 67.2322 15.6745 66.6346C17.0921 65.3631 17.2316 64.9746 16.7734 65.1489L15.7193 65.554ZM17.1818 66.55C17.1818 66.55 14.8113 67.3899 15.14 68.1917C15.472 69.0217 16.6207 67.9842 17.1685 67.4646C18.3305 66.3557 18.4483 66.0254 18.0632 66.1831L17.1818 66.55ZM18.2574 67.4646C18.2574 67.4646 15.8056 68.0589 16.0463 68.8889C16.297 69.7554 17.5403 68.8408 18.1412 68.3809C19.4228 67.4032 19.5655 67.0861 19.1671 67.2023L18.2574 67.4646ZM13.0932 62.644C13.0932 62.644 10.3343 60.4744 9.66197 61.6596C8.96145 62.893 11.0198 63.3196 12.0324 63.5105C14.1904 63.9106 14.6536 63.7296 14.1904 63.3993L13.0932 62.644Z" fill="#0872BA"/>
<path id="Vector_37" opacity="0.4" d="M15.2379 63.7429C15.3392 64.2226 14.9789 64.0251 13.9398 62.4282C13.4451 61.6878 12.484 60.139 13.5281 59.9249C14.5241 59.7141 15.0005 62.6506 15.0005 62.6506L15.2379 63.7429ZM16.5144 63.2084C16.5144 63.2084 17.0224 60.2801 16.0065 60.1523C14.9474 60.0212 15.3607 61.799 15.5782 62.6656C16.043 64.5131 16.3202 64.8236 16.38 64.3256L16.5144 63.2084ZM17.9503 64.5629C17.9503 64.5629 18.7621 62.3966 18.0035 62.1526C17.215 61.8986 17.2714 63.3146 17.3129 64.0118C17.4009 65.4909 17.5685 65.7648 17.6847 65.4012L17.9503 64.5629ZM19.4443 65.8694C19.4443 65.8694 20.2561 63.7031 19.4975 63.459C18.709 63.2051 18.7654 64.621 18.8069 65.3182C18.8949 66.7973 19.0625 67.0712 19.1787 66.7077L19.4443 65.8694ZM14.5573 64.5082C14.5573 64.5082 11.6042 64.8402 11.7685 65.8544C11.9345 66.9069 13.5298 66.0121 14.3 65.5589C15.9417 64.5945 16.1559 64.2426 15.6712 64.3222L14.5573 64.5082ZM15.7193 65.554C15.7193 65.554 12.8973 66.4703 13.2525 67.4281C13.6294 68.4241 15.0088 67.2322 15.6745 66.6346C17.0921 65.3631 17.2316 64.9746 16.7734 65.1489L15.7193 65.554ZM17.1818 66.55C17.1818 66.55 14.8113 67.3899 15.14 68.1917C15.472 69.0217 16.6207 67.9842 17.1685 67.4646C18.3305 66.3557 18.4483 66.0254 18.0632 66.1831L17.1818 66.55ZM18.2574 67.4646C18.2574 67.4646 15.8056 68.0589 16.0463 68.8889C16.297 69.7554 17.5403 68.8408 18.1412 68.3809C19.4228 67.4032 19.5655 67.0861 19.1671 67.2023L18.2574 67.4646ZM13.0932 62.644C13.0932 62.644 10.3343 60.4744 9.66197 61.6596C8.96145 62.893 11.0198 63.3196 12.0324 63.5105C14.1904 63.9106 14.6536 63.7296 14.1904 63.3993L13.0932 62.644Z" fill="white"/>
<path id="Vector_38" d="M10.75 62.3633C10.75 62.3633 14.8303 63.5784 16.2861 64.5927C17.9413 65.7325 19.4162 67.1141 20.6619 68.6912" stroke="#0872BA" stroke-width="1.25197" stroke-linecap="round" stroke-linejoin="round"/>
<path id="Vector_39" d="M15.2411 63.999L13.7969 61.1836" stroke="#0872BA" stroke-width="1.25197" stroke-linecap="round" stroke-linejoin="round"/>
<path id="Vector_40" d="M16.2861 64.5924L15.9375 61.6426" stroke="#0872BA" stroke-width="1.25197" stroke-linecap="round" stroke-linejoin="round"/>
<path id="Vector_41" d="M15.9052 64.377L13.2227 65.4858" stroke="#0872BA" stroke-width="1.25197" stroke-linecap="round" stroke-linejoin="round"/>
<path id="Vector_42" d="M17.5684 65.5344L17.8904 63.0195" stroke="#0872BA" stroke-width="1.25197" stroke-linecap="round" stroke-linejoin="round"/>
<path id="Vector_43" d="M17.0236 65.1445L15.2324 66.3298" stroke="#0872BA" stroke-width="1.25197" stroke-linecap="round" stroke-linejoin="round"/>
<path id="Vector_44" d="M18.2379 66.207L16.9082 67.1815" stroke="#0872BA" stroke-width="1.25197" stroke-linecap="round" stroke-linejoin="round"/>
<path id="Vector_45" d="M19.0742 66.8424L19.1489 65.375" stroke="#0872BA" stroke-width="1.25197" stroke-linecap="round" stroke-linejoin="round"/>
<path id="Vector_46" d="M19.3724 67.1699L17.7207 68.1659" stroke="#0872BA" stroke-width="1.25197" stroke-linecap="round" stroke-linejoin="round"/>
</g>
<g id="freepik--Floor--inject-3">
<path id="Vector_47" d="M42.06 73.9888C54.4624 73.9888 64.5165 72.8256 64.5165 71.3909C64.5165 69.9561 54.4624 68.793 42.06 68.793C29.6576 68.793 19.6035 69.9561 19.6035 71.3909C19.6035 72.8256 29.6576 73.9888 42.06 73.9888Z" fill="#263238"/>
</g>
<g id="freepik--Character--inject-3">
<path id="Vector_48" d="M34.8596 32.0854C34.8596 32.0854 34.1359 30.2262 32.3812 29.3729C30.6266 28.5197 26.1579 30.9964 25.7495 32.0439C25.3412 33.0913 26.8833 32.8556 26.4932 33.6225C26.1031 34.3895 20.9156 35.6909 20.2383 37.3941C19.5611 39.0972 21.0949 39.8293 20.8144 40.6593C20.5338 41.4893 18.673 43.0646 19.5129 44.8757C20.3529 46.6867 24.1095 45.5779 25.2615 45.2591C26.4135 44.9404 25.7927 45.8036 26.2011 46.4527C26.6094 47.1017 29.5758 46.3498 30.6017 45.4002C31.6276 44.4507 31.201 46.466 32.202 46.1987C32.5672 46.1024 33.4237 44.2748 34.2504 41.2187C35.0771 38.1626 35.6398 34.7995 34.8596 32.0854Z" fill="#263238"/>
<path id="Vector_49" d="M29.5943 55.7145C29.5943 55.7145 28.7526 56.4101 27.6637 57.5289C26.5747 58.6477 24.9496 62.4691 24.5562 63.0617C24.1627 63.6543 23.3195 64.3897 23.3195 64.3897C23.3195 64.3897 21.8255 64.2901 21.7574 64.6403C21.6893 64.9906 21.6462 65.648 21.447 65.9883C21.2478 66.3286 20.8643 66.7884 21.0453 67.3744C21.2262 67.9603 21.4536 68.5496 21.7723 68.3936C22.0911 68.2376 22.194 68.0251 22.4662 67.2482C22.7385 66.4713 24.9695 64.8097 25.7497 63.7141C26.5299 62.6185 29.4598 59.7218 29.8399 59.3068C30.2201 58.8918 30.8359 59.0196 31.08 57.2699C31.324 55.5203 30.4259 55.1518 29.5943 55.7145Z" fill="white" stroke="#263238" stroke-linecap="round" stroke-linejoin="round"/>
<path id="Vector_50" d="M29.8406 59.3081C30.2224 58.8914 30.8366 59.0209 31.0807 57.2713C31.3247 55.5216 30.4266 55.1515 29.595 55.7142C29.595 55.7142 28.7533 56.4097 27.6644 57.5286C26.7032 58.5146 25.3288 61.5972 24.7461 62.7227C25.0332 63.1036 25.4291 63.3884 25.8815 63.5394C26.8128 62.3376 29.4788 59.7032 29.8406 59.3081Z" fill="#0872BA" stroke="#263238" stroke-miterlimit="10"/>
<path id="Vector_51" d="M22.6339 65.4051L23.0256 64.3809C22.5874 64.3709 21.8055 64.3908 21.7574 64.6415C21.691 64.9901 21.6462 65.6491 21.447 65.9894C21.2478 66.3297 20.8643 66.7895 21.0453 67.3755C21.2262 67.9615 21.4536 68.5491 21.7723 68.3947C22.0911 68.2404 22.194 68.0262 22.4662 67.2493C22.5891 66.9007 23.1037 66.3762 23.7046 65.8035C23.3062 65.3835 22.6339 65.4051 22.6339 65.4051Z" fill="#B2B2B2" stroke="#263238" stroke-linecap="round" stroke-linejoin="round"/>
<path id="Vector_52" d="M31.903 37.2465C31.903 37.2465 30.0936 36.883 29.579 37.8873C29.0644 38.8916 30.6995 43.3935 30.7692 43.8832C30.8389 44.3729 28.5564 45.9499 27.9206 47.7012C27.2848 49.4525 27.6965 51.0428 28.4452 53.3071C29.1938 55.5713 29.9525 56.6586 29.745 57.6828C29.5375 58.707 29.5541 60.0234 29.911 61.0161C30.2679 62.0088 32.1951 66.7033 32.1536 67.3241C32.1121 67.9449 31.3635 68.7932 31.3801 69.0704C31.3967 69.3476 32.8243 70.2407 33.3405 70.7935C33.8568 71.3463 34.8727 71.6916 34.9623 71.3861C35.052 71.0807 34.1406 70.2241 33.9863 69.4174C33.8319 68.6106 33.2957 66.8112 33.1944 65.7322C33.0932 64.6532 32.3445 58.7601 32.2482 58.126C32.1918 57.5967 32.1813 57.0635 32.2167 56.5324C32.2167 56.5324 34.0427 53.4382 34.3515 50.9664C34.6602 48.4947 34.8843 45.0519 35.1117 44.2368C35.3392 43.4218 35.8421 41.5808 35.8421 41.5808C36.0454 40.63 36.1014 39.6536 36.0081 38.6858C35.8239 37.2897 33.7671 37.0142 33.1048 37.0739C32.4425 37.1337 31.903 37.2465 31.903 37.2465Z" fill="white" stroke="#263238" stroke-linecap="round" stroke-linejoin="round"/>
<path id="Vector_53" d="M33.092 64.874C32.8596 62.882 32.3217 58.659 32.2404 58.1311C32.1839 57.6018 32.1734 57.0686 32.2088 56.5375C32.2088 56.5375 34.0348 53.4432 34.3436 50.9715C34.4349 50.2328 34.5179 49.4078 34.5976 48.5911C33.3426 48.5396 30.7497 48.2591 28.3261 46.8945C28.162 47.1499 28.0257 47.422 27.9194 47.7063C27.282 49.4626 27.6953 51.0479 28.444 53.3121C29.1926 55.5763 29.9512 56.6636 29.7437 57.6879C29.5362 58.7121 29.5528 60.0285 29.9097 61.0211C30.1206 61.6221 30.914 63.5825 31.4984 65.1711C32.0471 65.2273 32.6003 65.1241 33.092 64.874Z" fill="#0872BA"/>
<g id="Clip path group">
<mask id="mask0_950_1411" style="mask-type:luminance" maskUnits="userSpaceOnUse" x="27" y="46" width="8" height="20">
<g id="freepik--clip-path-8--inject-3">
<path id="Vector_54" d="M33.092 64.874C32.8596 62.882 32.3217 58.659 32.2404 58.1311C32.1839 57.6018 32.1734 57.0686 32.2088 56.5375C32.2088 56.5375 34.0348 53.4432 34.3436 50.9715C34.4349 50.2328 34.5179 49.4078 34.5976 48.5911C33.3426 48.5396 30.7497 48.2591 28.3261 46.8945C28.162 47.1499 28.0257 47.422 27.9194 47.7063C27.282 49.4626 27.6953 51.0479 28.444 53.3121C29.1926 55.5763 29.9512 56.6636 29.7437 57.6879C29.5362 58.7121 29.5528 60.0285 29.9097 61.0211C30.1206 61.6221 30.914 63.5825 31.4984 65.1711C32.0471 65.2273 32.6003 65.1241 33.092 64.874Z" fill="white"/>
</g>
</mask>
<g mask="url(#mask0_950_1411)">
<g id="Group">
<path id="Vector_55" opacity="0.3" d="M32.3342 49.0666C32.135 50.3946 31.7349 49.6658 31.6004 49.3986C31.466 49.1313 30.2011 47.5311 30.2724 48.132C30.3438 48.7329 31.2054 55.4626 31.6004 57.594C31.9424 59.42 32.4769 62.8313 32.7923 64.9976C32.8903 64.9611 32.9882 64.9212 33.0911 64.8714C32.8587 62.8794 32.3209 58.6564 32.2395 58.1285C32.1831 57.5992 32.1726 57.066 32.208 56.5349C32.208 56.5349 34.034 53.4407 34.3428 50.9689C34.4341 50.2302 34.5171 49.4052 34.5967 48.5885C33.8726 48.5564 33.1516 48.4743 32.4387 48.3428C32.4039 48.6001 32.369 48.8425 32.3342 49.0666Z" fill="#263238"/>
<path id="Vector_56" d="M31.6309 50.334C31.6309 50.334 32.021 54.4226 32.0973 55.9282" stroke="#263238" stroke-linecap="round" stroke-linejoin="round"/>
</g>
</g>
</g>
<path id="Vector_57" d="M33.092 64.874C32.8596 62.882 32.3217 58.659 32.2404 58.1311C32.1839 57.6018 32.1734 57.0686 32.2088 56.5375C32.2088 56.5375 34.0348 53.4432 34.3436 50.9715C34.4349 50.2328 34.5179 49.4078 34.5976 48.5911C33.3426 48.5396 30.7497 48.2591 28.3261 46.8945C28.162 47.1499 28.0257 47.422 27.9194 47.7063C27.282 49.4626 27.6953 51.0479 28.444 53.3121C29.1926 55.5763 29.9512 56.6636 29.7437 57.6879C29.5362 58.7121 29.5528 60.0285 29.9097 61.0211C30.1206 61.6221 30.914 63.5825 31.4984 65.1711C32.0471 65.2273 32.6003 65.1241 33.092 64.874Z" stroke="#263238" stroke-miterlimit="10"/>
<path id="Vector_58" d="M27.7793 48.1533C28.6093 49.0414 30.681 50.6599 34.4525 50.0225C34.7032 47.6985 34.904 44.9562 35.1032 44.2407C35.3306 43.4257 35.8336 41.5847 35.8336 41.5847C36.0369 40.6339 36.0929 39.6575 35.9996 38.6897C35.8154 37.2936 33.7586 37.0181 33.0963 37.0778C32.4339 37.1376 31.9094 37.2438 31.9094 37.2438C31.9094 37.2438 30.1 36.8803 29.5854 37.8846C29.0708 38.8889 30.7059 43.3908 30.7756 43.8805C30.8453 44.3702 28.5628 45.9472 27.927 47.6985C27.864 47.8562 27.8191 48.0056 27.7793 48.1533Z" fill="#808080"/>
<g id="Clip path group_2">
<mask id="mask1_950_1411" style="mask-type:luminance" maskUnits="userSpaceOnUse" x="27" y="37" width="10" height="14">
<g id="freepik--clip-path-9--inject-3">
<path id="Vector_59" d="M27.7793 48.1533C28.6093 49.0414 30.681 50.6599 34.4525 50.0225C34.7032 47.6985 34.904 44.9562 35.1032 44.2407C35.3306 43.4257 35.8336 41.5847 35.8336 41.5847C36.0369 40.6339 36.0929 39.6575 35.9996 38.6897C35.8154 37.2936 33.7586 37.0181 33.0963 37.0778C32.4339 37.1376 31.9094 37.2438 31.9094 37.2438C31.9094 37.2438 30.1 36.8803 29.5854 37.8846C29.0708 38.8889 30.7059 43.3908 30.7756 43.8805C30.8453 44.3702 28.5628 45.9472 27.927 47.6985C27.864 47.8562 27.8191 48.0056 27.7793 48.1533Z" fill="white"/>
</g>
</mask>
<g mask="url(#mask1_950_1411)">
<g id="Group_2">
<path id="Vector_60" opacity="0.3" d="M35.994 38.6955C35.8097 37.2995 33.753 37.0239 33.0906 37.0837C32.4283 37.1434 31.9037 37.2497 31.9037 37.2497C31.9037 37.2497 31.8207 37.2331 31.6863 37.2165L31.8689 38.1378C31.8689 38.1378 33.9356 40.1381 34.002 41.2702C34.0684 42.4023 33.2019 43.3369 33.006 44.5371C32.8101 45.7373 32.5395 47.7359 32.342 49.0689C32.1444 50.4019 31.7427 49.6681 31.6083 49.4009C31.4738 49.1336 30.2089 47.5334 30.2803 48.1343C30.3002 48.3003 30.3799 48.9444 30.4961 49.8292C31.5269 50.1612 32.8383 50.3006 34.4651 50.025C34.7158 47.701 34.9166 44.9587 35.1158 44.2433C35.3433 43.4282 35.8462 41.5873 35.8462 41.5873C36.043 40.6366 36.0929 39.6613 35.994 38.6955Z" fill="#263238"/>
</g>
</g>
</g>
<path id="Vector_61" d="M27.7793 48.1533C28.6093 49.0414 30.681 50.6599 34.4525 50.0225C34.7032 47.6985 34.904 44.9562 35.1032 44.2407C35.3306 43.4257 35.8336 41.5847 35.8336 41.5847C36.0369 40.6339 36.0929 39.6575 35.9996 38.6897C35.8154 37.2936 33.7586 37.0181 33.0963 37.0778C32.4339 37.1376 31.9094 37.2438 31.9094 37.2438C31.9094 37.2438 30.1 36.8803 29.5854 37.8846C29.0708 38.8889 30.7059 43.3908 30.7756 43.8805C30.8453 44.3702 28.5628 45.9472 27.927 47.6985C27.864 47.8562 27.8191 48.0056 27.7793 48.1533Z" stroke="#263238" stroke-linecap="round" stroke-linejoin="round"/>
<path id="Vector_62" d="M30.9531 36.4561C31.0954 36.7497 31.2029 37.0589 31.2735 37.3774C31.3183 37.726 31.6935 38.3402 32.2479 38.8266C32.8024 39.313 33.146 38.8515 33.1211 38.1925C33.0962 37.5334 32.7509 35.9531 32.7509 35.9531C32.7509 35.9531 31.6038 36.569 30.9531 36.4561Z" fill="white" stroke="#263238" stroke-linecap="round" stroke-linejoin="round"/>
<path id="Vector_63" d="M29.3628 33.8643C29.3121 33.8557 29.26 33.8584 29.2105 33.8724C29.1609 33.8863 29.1151 33.9111 29.0763 33.945C29.0376 33.9788 29.0068 34.0209 28.9863 34.0681C28.9658 34.1153 28.956 34.1664 28.9578 34.2179C28.9312 34.6312 29.645 34.8171 29.645 34.8171L29.3628 33.8643Z" fill="white" stroke="#263238" stroke-linecap="round" stroke-linejoin="round"/>
<path id="Vector_64" d="M31.8556 31.2227C31.8556 31.2227 30.6621 33.0487 29.4121 33.6197C29.4121 33.6197 29.5781 35.6715 30.3035 36.3421C31.029 37.0127 32.2042 36.8849 32.8981 36.3421C33.592 35.7993 33.2915 32.5241 33.2915 32.5241C33.2915 32.5241 32.2208 31.973 31.8556 31.2227Z" fill="white"/>
<g id="Clip path group_3">
<mask id="mask2_950_1411" style="mask-type:luminance" maskUnits="userSpaceOnUse" x="29" y="31" width="5" height="6">
<g id="freepik--clip-path-10--inject-3">
<path id="Vector_65" d="M31.8556 31.2227C31.8556 31.2227 30.6621 33.0487 29.4121 33.6197C29.4121 33.6197 29.5781 35.6715 30.3035 36.3421C31.029 37.0127 32.2042 36.8849 32.8981 36.3421C33.592 35.7993 33.2915 32.5241 33.2915 32.5241C33.2915 32.5241 32.2208 31.973 31.8556 31.2227Z" fill="white"/>
</g>
</mask>
<g mask="url(#mask2_950_1411)">
<g id="Group_3">
<path id="Vector_66" opacity="0.3" d="M31.855 31.2227L31.8218 31.2708L31.8367 31.5065C32.2965 32.5483 32.5437 33.6714 32.5638 34.8099C32.5759 35.1734 32.5141 35.5356 32.3823 35.8745C32.2505 36.2135 32.0513 36.5222 31.7969 36.782C32.1967 36.7373 32.577 36.5853 32.8975 36.3421C33.5913 35.8009 33.2909 32.5241 33.2909 32.5241C33.2909 32.5241 32.2202 31.973 31.855 31.2227Z" fill="#263238"/>
</g>
</g>
</g>
<path id="Vector_67" d="M31.8556 31.2227C31.8556 31.2227 30.6621 33.0487 29.4121 33.6197C29.4121 33.6197 29.5781 35.6715 30.3035 36.3421C31.029 37.0127 32.2042 36.8849 32.8981 36.3421C33.592 35.7993 33.2915 32.5241 33.2915 32.5241C33.2915 32.5241 32.2208 31.973 31.8556 31.2227Z" stroke="#263238" stroke-linecap="round" stroke-linejoin="round"/>
<path id="Vector_68" d="M31.015 33.4492C31.0522 33.6204 31.0522 33.7976 31.015 33.9688C30.9569 34.3108 30.673 34.4303 31.0831 34.4917" stroke="#263238" stroke-linecap="round" stroke-linejoin="round"/>
<path id="Vector_69" d="M30.7363 35.0265C30.7363 35.0265 31.4003 35.3486 32.2303 34.4688" stroke="#263238" stroke-linecap="round" stroke-linejoin="round"/>
<path id="Vector_70" d="M29.8047 33.9569C29.8047 33.9569 30.0753 33.5253 30.6463 33.7709" stroke="#263238" stroke-linecap="round" stroke-linejoin="round"/>
<path id="Vector_71" d="M31.6914 33.6683C31.6914 33.6683 32.3554 33.1238 32.8766 33.5388" stroke="#263238" stroke-linecap="round" stroke-linejoin="round"/>
<path id="Vector_72" d="M31.4844 32.6513C31.617 32.4772 31.8106 32.3599 32.0262 32.323C32.2418 32.286 32.4634 32.3321 32.6464 32.4521" stroke="#263238" stroke-linecap="round" stroke-linejoin="round"/>
<path id="Vector_73" d="M53.1903 46.3171C61.1851 43.5752 65.4434 34.8714 62.7015 26.8766C59.9596 18.8818 51.2558 14.6235 43.261 17.3654C35.2662 20.1073 31.0079 28.8111 33.7498 36.8059C36.4917 44.8007 45.1955 49.059 53.1903 46.3171Z" fill="#0872BA"/>
<g id="Clip path group_4">
<mask id="mask3_950_1411" style="mask-type:luminance" maskUnits="userSpaceOnUse" x="32" y="16" width="32" height="32">
<g id="freepik--clip-path-11--inject-3">
<path id="Vector_74" d="M53.1884 46.3171C61.1832 43.5752 65.4415 34.8714 62.6996 26.8766C59.9577 18.8818 51.2539 14.6235 43.2591 17.3654C35.2643 20.1073 31.006 28.8111 33.7479 36.8059C36.4898 44.8007 45.1936 49.059 53.1884 46.3171Z" fill="white"/>
</g>
</mask>
<g mask="url(#mask3_950_1411)">
<g id="Group_4">
<path id="Vector_75" d="M46.1514 25.0488L47.7118 25.3725L48.243 25.9236L48.9353 26.0299L49.156 26.6889L48.995 27.1338L48.5219 27.3496L47.3632 27.1603L47.3317 27.0192L47.8795 26.6374L47.5027 25.9386L46.4668 25.7975L45.9141 25.3244L46.1514 25.0488Z" fill="#8F8F8F"/>
<path id="Vector_76" d="M58.7224 39.4447L57.4857 39.2372L55.9917 39.048L54.8928 39.292L53.8171 39.3069L52.7381 39.8049L52.1073 39.9826L51.7172 40.0689L51.0682 40.6698L50.4224 41.1114L49.3318 40.7213L49.36 39.6738L48.696 39.5593L47.9872 39.7253L47.8079 39.4132L47.7382 38.7591L47.4062 38.4587L46.9248 38.6396L46.8617 39.0264L46.2675 39.1924L45.6051 38.6778L45.2034 37.8727L45.5155 36.7622L46.5596 36.6045L46.8916 36.7904L47.3166 36.6958L47.7781 36.2592L48.2761 36.2974L49.1592 37.2552L49.3999 37.1655L49.1476 36.3654L48.8405 35.9869L48.7608 35.298L49.9477 34.4382L49.8331 33.0886L50.2979 32.5009L50.5785 31.583L50.9105 31.4336L51.6077 30.7198L51.5795 30.4293L51.02 30.5953L50.854 30.3346L50.4639 30.4226L49.8929 30.6982L50.0738 30.1736L51.2358 29.5428L51.45 29.161L52.114 29.825L52.5041 30.0724L52.9689 29.82L52.6535 29.4067L51.7919 29.0498L50.7295 28.2812L49.7086 27.8745L48.8272 27.9227L48.3059 27.5907L47.7083 27.5757L47.6685 27.7417L47.8262 28.7842L48.047 29.1079L47.9789 30.3131L47.1439 29.8798V29.3602L46.3139 29.171L45.9072 28.8523L45.889 27.926L46.7505 26.9532L46.6327 26.0867L46.2509 26.2095L45.9321 25.9456L45.708 25.436L45.4507 25.4559L45.4358 26.0552L45.0606 26.2129L44.6091 25.011L44.2771 24.8965L43.7343 24.7936L43.2363 25.2036L44.1061 25.7298L44.3817 26.3008L42.8877 25.6269L41.7888 24.8666L41.5049 23.9254L40.5205 23.8457L39.9146 24.4649C39.7655 24.6073 39.6087 24.7414 39.4449 24.8666C39.1799 24.9969 38.9058 25.1078 38.6248 25.1986V25.8327L37.8164 26.0502L37.9741 26.4237L39.3336 26.3457L40.1719 26.9399L40.4475 28.1816L40.3014 29.3669L40.6334 30.5289L40.0259 32.4877L40.3877 35.1221L41.0368 36.5414L41.7506 37.5739L42.2984 37.5258L41.9979 36.9846L41.6195 36.6227L41.2692 35.8824L41.573 35.7396L42.3532 36.9016L42.9591 37.9574L43.1633 38.8787L44.0182 39.5427L45.4209 40.1618L47.3747 40.2482L48.0603 40.6549L48.6114 41.128L49.3368 41.3753L50.1668 41.4151L50.9387 41.206C50.9387 41.206 50.9819 41.5695 51.0217 41.7455C51.0615 41.9214 50.698 42.6369 50.698 42.6369L50.4656 43.432L50.9238 44.1492L51.7737 44.2952L53.1249 45.185L53.6677 45.2879L53.7873 45.8191L53.9035 46.0532C56.562 44.997 58.8694 43.2136 60.5617 40.9072L60.5235 40.6449L61.0879 38.6977L60.5567 38.4803L58.7224 39.4447Z" fill="#8F8F8F"/>
<path id="Vector_77" d="M59.3 24.6229L58.7638 24.0353L58.0998 23.3713L57.7214 22.3404L58.3854 22.3039L58.3422 21.942L57.8724 22.0084L58.2227 21.7445L58.5945 21.4025L58.5148 21.0473L57.9637 20.5758L57.7031 19.8322C55.0824 17.7689 51.8597 16.6177 48.5248 16.5536C45.19 16.4895 41.9254 17.5159 39.2273 19.4769L40.1735 19.8753L39.8183 20.624L39.1758 20.9161L39.3169 21.8906L39.0563 22.0566L38.7891 22.5247L38.9667 23.1555L39.5842 23.0924L39.4697 23.7564L40.0722 23.6219L40.8093 22.0831L40.791 21.4922L41.7671 21.2L41.9215 20.7203L42.9258 20.3883L42.8976 19.7624L43.6346 19.5616C43.8129 19.4017 44.0057 19.2589 44.2106 19.135C44.425 19.1344 44.6392 19.1494 44.8514 19.1798L45.4789 19.4869L46.2225 19.3209L46.7737 18.7897L47.6037 18.6785C47.7377 18.7305 47.8823 18.7498 48.0253 18.7349C48.2029 18.6951 48.6793 18.3282 48.6793 18.3282L49.8496 18.7382L50.3476 18.964L50.4655 19.4952L51.0133 19.447L51.1195 19.0901L51.6275 19.1997L51.6557 19.4919L50.6597 20.0114L51.4349 20.6572L52.8692 21.0821L53.5581 21.6731L54.3549 21.5718L54.4528 21.1784L54.7201 21.044L53.6411 20.546L53.0584 20.6007L53.4884 20.3567L52.9289 19.8488L53.5232 19.6828L54.398 19.9351L54.7649 20.7468L55.2629 21.1203L55.8107 22.0781L56.7171 22.4716L56.976 23.6419L57.9106 23.9938L57.9604 24.3905V24.8752L58.3156 25.4662L58.4567 25.77L59.0826 25.7418L59.2336 25.0778L59.3 24.6229Z" fill="#8F8F8F"/>
<path id="Vector_78" d="M58.9676 20.9473L59.0124 21.1514L58.9609 21.7573L59.1784 22.2304L59.6 22.2852L59.7494 22.9592L59.2846 22.8762L59.6034 24.8151L59.351 25.6899L59.849 26.6195L60.4035 26.9415L60.8284 28.8572L61.6203 30.2433L62.3689 31.2675L63.2321 31.299L63.3583 30.5271L63.4529 30.4109C63.3926 29.7779 63.2933 29.1493 63.1558 28.5285C62.5225 25.6495 61.0677 23.0159 58.9676 20.9473Z" fill="#8F8F8F"/>
<path id="Vector_79" d="M50.7282 22.5451L48.1586 22.0371L47.1393 22.301L47.0397 23.0298L46.5118 22.6629L45.7715 23.0132L45.9607 24.2001L46.7011 24.5188L47.0132 23.7419L47.6622 24.1553L48.9736 24.8691L49.4152 25.8501L50.5971 26.8162L52.0313 26.2369L51.877 25.7123L51.4238 25.1811L51.0387 23.7785L51.2594 23.0962L50.7282 22.5451Z" fill="#8F8F8F"/>
<path id="Vector_80" d="M52.8149 22.9002L52.2521 22.877L51.877 23.3683L52.3534 24.3411L52.8149 24.2398V22.9002Z" fill="#8F8F8F"/>
<path id="Vector_81" d="M56.263 22.8416L54.9151 22.4714L54.5731 22.0996L54.3125 22.2689L54.7175 22.923L55.1359 23.7978L55.7152 23.8924L55.7899 23.7281L55.3517 23.2666L56.3526 23.416L56.263 22.8416Z" fill="#8F8F8F"/>
<path id="Vector_82" d="M48.7521 37.9395L48.6426 38.1121L49.7764 38.1951L50.3125 38.5968L51.0014 38.5188L51.1641 38.0739L50.3159 38.1138L48.7521 37.9395Z" fill="#8F8F8F"/>
<path id="Vector_83" d="M52.0566 37.9121L51.3594 38.2889L51.5287 38.5495L52.4517 38.3454L52.5645 38.0217L52.2541 38.1279L52.0566 37.9121Z" fill="#8F8F8F"/>
<path id="Vector_84" d="M46.1514 25.0488L47.7118 25.3725L48.243 25.9236L48.9353 26.0299L49.156 26.6889L48.995 27.1338L48.5219 27.3496L47.3632 27.1603L47.3317 27.0192L47.8795 26.6374L47.5027 25.9386L46.4668 25.7975L45.9141 25.3244L46.1514 25.0488Z" stroke="#263238" stroke-miterlimit="10"/>
<path id="Vector_85" d="M58.7224 39.4447L57.4857 39.2372L55.9917 39.048L54.8928 39.292L53.8171 39.3069L52.7381 39.8049L52.1073 39.9826L51.7172 40.0689L51.0682 40.6698L50.4224 41.1114L49.3318 40.7213L49.36 39.6738L48.696 39.5593L47.9872 39.7253L47.8079 39.4132L47.7382 38.7591L47.4062 38.4587L46.9248 38.6396L46.8617 39.0264L46.2675 39.1924L45.6051 38.6778L45.2034 37.8727L45.5155 36.7622L46.5596 36.6045L46.8916 36.7904L47.3166 36.6958L47.7781 36.2592L48.2761 36.2974L49.1592 37.2552L49.3999 37.1655L49.1476 36.3654L48.8405 35.9869L48.7608 35.298L49.9477 34.4382L49.8331 33.0886L50.2979 32.5009L50.5785 31.583L50.9105 31.4336L51.6077 30.7198L51.5795 30.4293L51.02 30.5953L50.854 30.3346L50.4639 30.4226L49.8929 30.6982L50.0738 30.1736L51.2358 29.5428L51.45 29.161L52.114 29.825L52.5041 30.0724L52.9689 29.82L52.6535 29.4067L51.7919 29.0498L50.7295 28.2812L49.7086 27.8745L48.8272 27.9227L48.3059 27.5907L47.7083 27.5757L47.6685 27.7417L47.8262 28.7842L48.047 29.1079L47.9789 30.3131L47.1439 29.8798V29.3602L46.3139 29.171L45.9072 28.8523L45.889 27.926L46.7505 26.9532L46.6327 26.0867L46.2509 26.2095L45.9321 25.9456L45.708 25.436L45.4507 25.4559L45.4358 26.0552L45.0606 26.2129L44.6091 25.011L44.2771 24.8965L43.7343 24.7936L43.2363 25.2036L44.1061 25.7298L44.3817 26.3008L42.8877 25.6269L41.7888 24.8666L41.5049 23.9254L40.5205 23.8457L39.9146 24.4649C39.7655 24.6073 39.6087 24.7414 39.4449 24.8666C39.1799 24.9969 38.9058 25.1078 38.6248 25.1986V25.8327L37.8164 26.0502L37.9741 26.4237L39.3336 26.3457L40.1719 26.9399L40.4475 28.1816L40.3014 29.3669L40.6334 30.5289L40.0259 32.4877L40.3877 35.1221L41.0368 36.5414L41.7506 37.5739L42.2984 37.5258L41.9979 36.9846L41.6195 36.6227L41.2692 35.8824L41.573 35.7396L42.3532 36.9016L42.9591 37.9574L43.1633 38.8787L44.0182 39.5427L45.4209 40.1618L47.3747 40.2482L48.0603 40.6549L48.6114 41.128L49.3368 41.3753L50.1668 41.4151L50.9387 41.206C50.9387 41.206 50.9819 41.5695 51.0217 41.7455C51.0615 41.9214 50.698 42.6369 50.698 42.6369L50.4656 43.432L50.9238 44.1492L51.7737 44.2952L53.1249 45.185L53.6677 45.2879L53.7873 45.8191L53.9035 46.0532C56.562 44.997 58.8694 43.2136 60.5617 40.9072L60.5235 40.6449L61.0879 38.6977L60.5567 38.4803L58.7224 39.4447Z" stroke="#263238" stroke-miterlimit="10"/>
<path id="Vector_86" d="M59.3 24.6229L58.7638 24.0353L58.0998 23.3713L57.7214 22.3404L58.3854 22.3039L58.3422 21.942L57.8724 22.0084L58.2227 21.7445L58.5945 21.4025L58.5148 21.0473L57.9637 20.5758L57.7031 19.8322C55.0824 17.7689 51.8597 16.6177 48.5248 16.5536C45.19 16.4895 41.9254 17.5159 39.2273 19.4769L40.1735 19.8753L39.8183 20.624L39.1758 20.9161L39.3169 21.8906L39.0563 22.0566L38.7891 22.5247L38.9667 23.1555L39.5842 23.0924L39.4697 23.7564L40.0722 23.6219L40.8093 22.0831L40.791 21.4922L41.7671 21.2L41.9215 20.7203L42.9258 20.3883L42.8976 19.7624L43.6346 19.5616C43.8129 19.4017 44.0057 19.2589 44.2106 19.135C44.425 19.1344 44.6392 19.1494 44.8514 19.1798L45.4789 19.4869L46.2225 19.3209L46.7737 18.7897L47.6037 18.6785C47.7377 18.7305 47.8823 18.7498 48.0253 18.7349C48.2029 18.6951 48.6793 18.3282 48.6793 18.3282L49.8496 18.7382L50.3476 18.964L50.4655 19.4952L51.0133 19.447L51.1195 19.0901L51.6275 19.1997L51.6557 19.4919L50.6597 20.0114L51.4349 20.6572L52.8692 21.0821L53.5581 21.6731L54.3549 21.5718L54.4528 21.1784L54.7201 21.044L53.6411 20.546L53.0584 20.6007L53.4884 20.3567L52.9289 19.8488L53.5232 19.6828L54.398 19.9351L54.7649 20.7468L55.2629 21.1203L55.8107 22.0781L56.7171 22.4716L56.976 23.6419L57.9106 23.9938L57.9604 24.3905V24.8752L58.3156 25.4662L58.4567 25.77L59.0826 25.7418L59.2336 25.0778L59.3 24.6229Z" stroke="#263238" stroke-miterlimit="10"/>
<path id="Vector_87" d="M58.9676 20.9473L59.0124 21.1514L58.9609 21.7573L59.1784 22.2304L59.6 22.2852L59.7494 22.9592L59.2846 22.8762L59.6034 24.8151L59.351 25.6899L59.849 26.6195L60.4035 26.9415L60.8284 28.8572L61.6203 30.2433L62.3689 31.2675L63.2321 31.299L63.3583 30.5271L63.4529 30.4109C63.3926 29.7779 63.2933 29.1493 63.1558 28.5285C62.5225 25.6495 61.0677 23.0159 58.9676 20.9473Z" stroke="#263238" stroke-miterlimit="10"/>
<path id="Vector_88" d="M50.7282 22.5451L48.1586 22.0371L47.1393 22.301L47.0397 23.0298L46.5118 22.6629L45.7715 23.0132L45.9607 24.2001L46.7011 24.5188L47.0132 23.7419L47.6622 24.1553L48.9736 24.8691L49.4152 25.8501L50.5971 26.8162L52.0313 26.2369L51.877 25.7123L51.4238 25.1811L51.0387 23.7785L51.2594 23.0962L50.7282 22.5451Z" stroke="#263238" stroke-miterlimit="10"/>
<path id="Vector_89" d="M52.8149 22.9002L52.2521 22.877L51.877 23.3683L52.3534 24.3411L52.8149 24.2398V22.9002Z" stroke="#263238" stroke-miterlimit="10"/>
<path id="Vector_90" d="M56.263 22.8416L54.9151 22.4714L54.5731 22.0996L54.3125 22.2689L54.7175 22.923L55.1359 23.7978L55.7152 23.8924L55.7899 23.7281L55.3517 23.2666L56.3526 23.416L56.263 22.8416Z" stroke="#263238" stroke-miterlimit="10"/>
<path id="Vector_91" d="M48.7521 37.9395L48.6426 38.1121L49.7764 38.1951L50.3125 38.5968L51.0014 38.5188L51.1641 38.0739L50.3159 38.1138L48.7521 37.9395Z" stroke="#263238" stroke-miterlimit="10"/>
<path id="Vector_92" d="M52.0566 37.9121L51.3594 38.2889L51.5287 38.5495L52.4517 38.3454L52.5645 38.0217L52.2541 38.1279L52.0566 37.9121Z" stroke="#263238" stroke-miterlimit="10"/>
<path id="Vector_93" opacity="0.2" d="M52.9299 17.0215C54.3253 19.7265 54.8889 22.784 54.55 25.8087C54.211 28.8335 52.9845 31.6903 51.025 34.0194C49.0655 36.3484 46.4606 38.0455 43.5384 38.897C40.6162 39.7484 37.5074 39.716 34.6035 38.804C35.7688 41.0573 37.4722 42.9882 39.5626 44.4254C41.6529 45.8626 44.0657 46.7617 46.5869 47.0429C49.108 47.3241 51.6596 46.9788 54.0153 46.0375C56.371 45.0963 58.458 43.5882 60.0911 41.647C61.7243 39.7059 62.8531 37.3917 63.3775 34.9097C63.9019 32.4277 63.8057 29.8547 63.0973 27.4188C62.389 24.9829 61.0904 22.7595 59.3168 20.9458C57.5432 19.1321 55.3493 17.7841 52.9299 17.0215Z" fill="black" stroke="#263238" stroke-linecap="round" stroke-linejoin="round"/>
</g>
</g>
</g>
<path id="Vector_94" d="M53.1903 46.3171C61.1851 43.5752 65.4434 34.8714 62.7015 26.8766C59.9596 18.8818 51.2558 14.6235 43.261 17.3654C35.2662 20.1073 31.0079 28.8111 33.7498 36.8059C36.4917 44.8007 45.1955 49.059 53.1903 46.3171Z" stroke="#263238" stroke-miterlimit="10"/>
<path id="Vector_95" opacity="0.18" d="M53.1903 46.3171C61.1851 43.5752 65.4434 34.8714 62.7015 26.8766C59.9596 18.8818 51.2558 14.6235 43.261 17.3654C35.2662 20.1073 31.0079 28.8111 33.7498 36.8059C36.4917 44.8007 45.1955 49.059 53.1903 46.3171Z" stroke="#263238" stroke-miterlimit="10"/>
<path id="Vector_96" d="M32.9585 36.6095C32.9585 36.6095 31.0412 36.5747 29.9921 37.2735C28.943 37.9724 29.172 38.5152 29.4758 39.0846C29.7796 39.654 30.6129 39.7486 32.0887 39.3884C33.5644 39.0282 35.3987 38.0521 36.5491 37.3366C37.6995 36.6212 41.3979 32.5824 41.3979 32.5824L42.3425 32.0545C42.3425 32.0545 43.4198 31.8155 43.6705 31.6876C43.9211 31.5598 43.5759 31.4254 43.3733 31.4702C43.1708 31.515 42.5201 31.5731 42.5201 31.5731C42.5201 31.5731 43.707 31.022 43.7966 30.7896C43.8863 30.5572 43.8564 30.4227 43.5825 30.6236C43.3086 30.8244 42.3674 31.1066 42.3674 31.1066C42.3674 31.1066 43.8049 30.0675 43.8348 29.8832C43.8647 29.699 43.7668 29.5794 43.5609 29.767C43.3551 29.9546 42.0354 30.6966 42.0354 30.6966L42.9799 29.4383C42.9799 29.4383 43.0098 29.0615 42.6479 29.3985C42.3658 29.6866 42.0653 29.9561 41.7482 30.2053C41.5282 30.3168 41.3015 30.4144 41.0693 30.4974C41.0361 30.3089 41.0677 30.1146 41.1589 29.9463C41.2934 29.7405 41.5789 29.6143 41.3133 29.2059C41.2386 29.0897 41.1473 29.2425 41.0892 29.4666C41.0311 29.6907 40.4036 30.363 40.4003 30.5041C40.4714 30.8657 40.5623 31.2231 40.6725 31.5748C40.6725 31.5748 38.3452 33.7875 37.2114 34.7454C36.0776 35.7032 35.7324 35.8874 35.7324 35.8874L32.9585 36.6095Z" fill="white"/>
<g id="Clip path group_5">
<mask id="mask4_950_1411" style="mask-type:luminance" maskUnits="userSpaceOnUse" x="29" y="29" width="15" height="11">
<g id="freepik--clip-path-12--inject-3">
<path id="Vector_97" d="M32.9585 36.6095C32.9585 36.6095 31.0412 36.5747 29.9921 37.2735C28.943 37.9724 29.172 38.5152 29.4758 39.0846C29.7796 39.654 30.6129 39.7486 32.0887 39.3884C33.5644 39.0282 35.3987 38.0521 36.5491 37.3366C37.6995 36.6212 41.3979 32.5824 41.3979 32.5824L42.3425 32.0545C42.3425 32.0545 43.4198 31.8155 43.6705 31.6876C43.9211 31.5598 43.5759 31.4254 43.3733 31.4702C43.1708 31.515 42.5201 31.5731 42.5201 31.5731C42.5201 31.5731 43.707 31.022 43.7966 30.7896C43.8863 30.5572 43.8564 30.4227 43.5825 30.6236C43.3086 30.8244 42.3674 31.1066 42.3674 31.1066C42.3674 31.1066 43.8049 30.0675 43.8348 29.8832C43.8647 29.699 43.7668 29.5794 43.5609 29.767C43.3551 29.9546 42.0354 30.6966 42.0354 30.6966L42.9799 29.4383C42.9799 29.4383 43.0098 29.0615 42.6479 29.3985C42.3658 29.6866 42.0653 29.9561 41.7482 30.2053C41.5282 30.3168 41.3015 30.4144 41.0693 30.4974C41.0361 30.3089 41.0677 30.1146 41.1589 29.9463C41.2934 29.7405 41.5789 29.6143 41.3133 29.2059C41.2386 29.0897 41.1473 29.2425 41.0892 29.4666C41.0311 29.6907 40.4036 30.363 40.4003 30.5041C40.4714 30.8657 40.5623 31.2231 40.6725 31.5748C40.6725 31.5748 38.3452 33.7875 37.2114 34.7454C36.0776 35.7032 35.7324 35.8874 35.7324 35.8874L32.9585 36.6095Z" fill="white"/>
</g>
</mask>
<g mask="url(#mask4_950_1411)">
<g id="Group_5">
<path id="Vector_98" opacity="0.3" d="M32.0894 39.3835C33.5651 39.0216 35.3994 38.0472 36.5498 37.3317C37.5027 36.7391 40.2018 33.8656 41.1032 32.8978L41.0866 32.8281C41.0866 32.8281 37.9807 35.8012 36.6594 36.6594C35.338 37.5176 32.4314 38.7078 31.4403 38.9734C30.7981 39.1312 30.132 39.1673 29.4766 39.0797C29.7787 39.6491 30.6137 39.747 32.0894 39.3835Z" fill="#263238"/>
</g>
</g>
</g>
<path id="Vector_99" d="M32.9585 36.6095C32.9585 36.6095 31.0412 36.5747 29.9921 37.2735C28.943 37.9724 29.172 38.5152 29.4758 39.0846C29.7796 39.654 30.6129 39.7486 32.0887 39.3884C33.5644 39.0282 35.3987 38.0521 36.5491 37.3366C37.6995 36.6212 41.3979 32.5824 41.3979 32.5824L42.3425 32.0545C42.3425 32.0545 43.4198 31.8155 43.6705 31.6876C43.9211 31.5598 43.5759 31.4254 43.3733 31.4702C43.1708 31.515 42.5201 31.5731 42.5201 31.5731C42.5201 31.5731 43.707 31.022 43.7966 30.7896C43.8863 30.5572 43.8564 30.4227 43.5825 30.6236C43.3086 30.8244 42.3674 31.1066 42.3674 31.1066C42.3674 31.1066 43.8049 30.0675 43.8348 29.8832C43.8647 29.699 43.7668 29.5794 43.5609 29.767C43.3551 29.9546 42.0354 30.6966 42.0354 30.6966L42.9799 29.4383C42.9799 29.4383 43.0098 29.0615 42.6479 29.3985C42.3658 29.6866 42.0653 29.9561 41.7482 30.2053C41.5282 30.3168 41.3015 30.4144 41.0693 30.4974C41.0361 30.3089 41.0677 30.1146 41.1589 29.9463C41.2934 29.7405 41.5789 29.6143 41.3133 29.2059C41.2386 29.0897 41.1473 29.2425 41.0892 29.4666C41.0311 29.6907 40.4036 30.363 40.4003 30.5041C40.4714 30.8657 40.5623 31.2231 40.6725 31.5748C40.6725 31.5748 38.3452 33.7875 37.2114 34.7454C36.0776 35.7032 35.7324 35.8874 35.7324 35.8874L32.9585 36.6095Z" stroke="#263238" stroke-linecap="round" stroke-linejoin="round"/>
<path id="Vector_100" d="M33.6979 68.2093L32.843 68.6476L32.0645 67.6914C31.8586 68.2425 31.3639 68.8534 31.3772 69.0742C31.3938 69.3531 32.8214 70.2445 33.3377 70.7973C33.8539 71.35 34.8699 71.6953 34.9595 71.3899C35.0491 71.0844 34.1378 70.2279 33.9834 69.4211C33.922 69.124 33.8124 68.6907 33.6979 68.2093Z" fill="#B2B2B2" stroke="#263238" stroke-linecap="round" stroke-linejoin="round"/>
</g>
</g>
</svg>
