<svg width="200" height="200" viewBox="0 0 200 200" fill="none" xmlns="http://www.w3.org/2000/svg">
<g id="Filter-rafiki 1">
<g id="freepik--background-complete--inject-220">
<path id="Vector" d="M200 152.961H0V153.061H200V152.961Z" fill="#EBEBEB"/>
<path id="Vector_2" d="M179.959 159.396H166.711V159.496H179.959V159.396Z" fill="#EBEBEB"/>
<path id="Vector_3" d="M132.488 160.484H129.012V160.584H132.488V160.484Z" fill="#EBEBEB"/>
<path id="Vector_4" d="M166.313 155.684H158.637V155.784H166.313V155.684Z" fill="#EBEBEB"/>
<path id="Vector_5" d="M38.2604 156.355H20.9844V156.455H38.2604V156.355Z" fill="#EBEBEB"/>
<path id="Vector_6" d="M44.3562 156.355H41.8242V156.455H44.3562V156.355Z" fill="#EBEBEB"/>
<path id="Vector_7" d="M90.0599 158.045H52.5879V158.145H90.0599V158.045Z" fill="#EBEBEB"/>
<path id="Vector_8" d="M94.7992 135.12H17.5632C16.9581 135.119 16.3782 134.878 15.9508 134.45C15.5233 134.021 15.2832 133.441 15.2832 132.836V24.264C15.2885 23.6624 15.5309 23.0872 15.9578 22.6633C16.3847 22.2394 16.9616 22.001 17.5632 22H94.7992C95.405 22 95.9859 22.2406 96.4142 22.669C96.8426 23.0973 97.0832 23.6782 97.0832 24.284V132.836C97.0832 133.442 96.8426 134.023 96.4142 134.451C95.9859 134.879 95.405 135.12 94.7992 135.12ZM17.5632 22.08C16.9847 22.0811 16.4302 22.3116 16.0215 22.7211C15.6128 23.1306 15.3832 23.6855 15.3832 24.264V132.836C15.3832 133.415 15.6128 133.969 16.0215 134.379C16.4302 134.788 16.9847 135.019 17.5632 135.02H94.7992C95.3781 135.019 95.933 134.789 96.3424 134.379C96.7517 133.97 96.9821 133.415 96.9832 132.836V24.264C96.9821 23.6851 96.7517 23.1302 96.3424 22.7208C95.933 22.3115 95.3781 22.0811 94.7992 22.08H17.5632Z" fill="#EBEBEB"/>
<path id="Vector_9" d="M181.325 135.12H104.085C103.479 135.119 102.899 134.878 102.471 134.45C102.043 134.022 101.802 133.441 101.801 132.836V24.264C101.807 23.662 102.05 23.0868 102.478 22.663C102.905 22.2392 103.483 22.001 104.085 22H181.325C181.926 22.0021 182.502 22.2409 182.928 22.6647C183.354 23.0885 183.596 23.6631 183.601 24.264V132.836C183.601 133.44 183.361 134.02 182.935 134.448C182.508 134.876 181.929 135.118 181.325 135.12ZM104.085 22.08C103.506 22.0811 102.951 22.3115 102.542 22.7208C102.132 23.1302 101.902 23.6851 101.901 24.264V132.836C101.902 133.415 102.132 133.97 102.542 134.379C102.951 134.789 103.506 135.019 104.085 135.02H181.325C181.904 135.019 182.459 134.789 182.868 134.379C183.277 133.97 183.508 133.415 183.509 132.836V24.264C183.508 23.6851 183.277 23.1302 182.868 22.7208C182.459 22.3115 181.904 22.0811 181.325 22.08H104.085Z" fill="#EBEBEB"/>
<path id="Vector_10" d="M54.8641 36.3516H35.2441V60.3436H54.8641V36.3516Z" fill="#F0F0F0"/>
<path id="Vector_11" d="M59.0758 36.3516H36.5078V60.3436H59.0758V36.3516Z" fill="#F5F5F5"/>
<path id="Vector_12" d="M57.1836 58.4561V38.2441H38.3956V58.4561H57.1836Z" fill="white"/>
<path id="Vector_13" d="M52.6328 53.5526V43.1406H42.9528V53.5526H52.6328Z" fill="#F5F5F5"/>
<path id="Vector_14" d="M87.9677 47.5039H68.3477V71.4959H87.9677V47.5039Z" fill="#F0F0F0"/>
<path id="Vector_15" d="M92.1832 47.5039H69.6152V71.4959H92.1832V47.5039Z" fill="#F5F5F5"/>
<path id="Vector_16" d="M90.293 69.6085V49.3965H71.505V69.6085H90.293Z" fill="white"/>
<path id="Vector_17" d="M85.7402 60.833V58.165C85.7402 56.0265 84.0067 54.293 81.8682 54.293H79.9322C77.7938 54.293 76.0602 56.0265 76.0602 58.165V60.833C76.0602 62.9714 77.7938 64.705 79.9322 64.705H81.8682C84.0067 64.705 85.7402 62.9714 85.7402 60.833Z" fill="#F5F5F5"/>
<path id="Vector_18" d="M177.757 132.592H166.881V152.96H177.757V132.592Z" fill="#E6E6E6"/>
<path id="Vector_19" d="M175.687 152.961H177.755V145.301H173.523L175.687 152.961Z" fill="#F0F0F0"/>
<path id="Vector_20" d="M115.704 132.592H104.828V152.96H115.704V132.592Z" fill="#E6E6E6"/>
<path id="Vector_21" d="M177.752 132.592H113.9V150.868H177.752V132.592Z" fill="#F0F0F0"/>
<path id="Vector_22" d="M115.968 152.961H113.9V145.301H118.132L115.968 152.961Z" fill="#F0F0F0"/>
<path id="Vector_23" d="M116.023 135.756V147.432H134.951V135.756H116.023Z" fill="#E6E6E6"/>
<path id="Vector_24" d="M127.361 139.788H123.601C121.973 139.788 120.401 138.148 119.301 135.252H131.645C130.545 138.148 128.989 139.788 127.361 139.788Z" fill="#F0F0F0"/>
<path id="Vector_25" d="M136.363 135.752V147.428H155.291V135.752H136.363Z" fill="#E6E6E6"/>
<path id="Vector_26" d="M147.892 139.788H144.148C142.52 139.788 140.948 138.148 139.848 135.252H152.192C151.072 138.148 149.52 139.788 147.892 139.788Z" fill="#F0F0F0"/>
<path id="Vector_27" d="M156.699 135.756V147.432H175.627V135.756H156.699Z" fill="#E6E6E6"/>
<path id="Vector_28" d="M168.231 139.788H164.488C162.859 139.788 161.288 138.148 160.188 135.252H172.531C171.411 138.148 169.855 139.788 168.231 139.788Z" fill="#F0F0F0"/>
<path id="Vector_29" d="M174.58 33.6719H112.332V86.6559H174.58V33.6719Z" fill="#E6E6E6"/>
<path id="Vector_30" d="M176.615 33.6719H113.283V86.6559H176.615V33.6719Z" fill="#F0F0F0"/>
<path id="Vector_31" d="M174.58 86.6562H112.332V90.4323H174.58V86.6562Z" fill="#E6E6E6"/>
<path id="Vector_32" d="M180 86.6562H116.668V90.4323H180V86.6562Z" fill="#F0F0F0"/>
<path id="Vector_33" d="M173.768 83.8116V36.5156H116.124V83.8116H173.768Z" fill="#FAFAFA"/>
<path id="Vector_34" d="M152.824 83.8115L157.376 36.5195H165.26L160.704 83.8115H152.824Z" fill="white"/>
<path id="Vector_35" d="M117.443 67.7804C117.385 67.7804 117.33 67.7578 117.288 67.7174C117.247 67.677 117.224 67.6221 117.223 67.5644V38.3644C117.224 38.3068 117.247 38.2519 117.288 38.2115C117.33 38.1711 117.385 38.1484 117.443 38.1484C117.5 38.1484 117.555 38.1712 117.595 38.2117C117.636 38.2522 117.659 38.3072 117.659 38.3644V67.5644C117.659 67.6217 117.636 67.6767 117.595 67.7172C117.555 67.7577 117.5 67.7804 117.443 67.7804Z" fill="#F0F0F0"/>
<path id="Vector_36" d="M162.395 83.8115L166.951 36.5195H170.023L165.467 83.8115H162.395Z" fill="white"/>
<path id="Vector_37" d="M173.773 83.8116V36.5156H173.413V83.8116H173.773Z" fill="#E6E6E6"/>
<path id="Vector_38" opacity="0.5" d="M177.289 41.675H115.037L114.777 37.623H177.025L177.289 41.675Z" fill="#E0E0E0"/>
<path id="Vector_39" opacity="0.5" d="M177.289 48.3352H115.037L114.777 44.2832H177.025L177.289 48.3352Z" fill="#E0E0E0"/>
<path id="Vector_40" opacity="0.5" d="M177.289 54.9954H115.037L114.777 50.9434H177.025L177.289 54.9954Z" fill="#E0E0E0"/>
<path id="Vector_41" opacity="0.5" d="M177.289 61.6555H115.037L114.777 57.6035H177.025L177.289 61.6555Z" fill="#E0E0E0"/>
<path id="Vector_42" opacity="0.5" d="M177.289 68.3157H115.037L114.777 64.2637H177.025L177.289 68.3157Z" fill="#E0E0E0"/>
<path id="Vector_43" opacity="0.5" d="M177.289 74.9758H115.037L114.777 70.9238H177.025L177.289 74.9758Z" fill="#E0E0E0"/>
<path id="Vector_44" d="M97.0364 104.461H78.0684V152.961H97.0364V104.461Z" fill="#E6E6E6"/>
<path id="Vector_45" d="M95.1289 152.959H97.0369V146.355H93.1289L95.1289 152.959Z" fill="#F0F0F0"/>
<path id="Vector_46" d="M67.3078 104.461H48.3398V152.961H67.3078V104.461Z" fill="#E6E6E6"/>
<path id="Vector_47" d="M97.0365 104.461H65.6445V148.909H97.0365V104.461Z" fill="#F0F0F0"/>
<path id="Vector_48" d="M95.557 106.428H67.125V118.616H95.557V106.428Z" fill="#E6E6E6"/>
<path id="Vector_49" d="M84.124 110.217H79.836C77.976 110.217 76.196 108.713 74.916 106.061H89.044C87.764 108.713 86 110.217 84.124 110.217Z" fill="#F0F0F0"/>
<path id="Vector_50" d="M67.5525 152.959H65.6445V146.355H69.5525L67.5525 152.959Z" fill="#F0F0F0"/>
<path id="Vector_51" d="M95.555 120.588H67.123V132.776H95.555V120.588Z" fill="#E6E6E6"/>
<path id="Vector_52" d="M84.124 124.377H79.836C77.976 124.377 76.196 122.873 74.916 120.217H89.044C87.764 122.873 86 124.377 84.124 124.377Z" fill="#F0F0F0"/>
<path id="Vector_53" d="M95.555 134.748H67.123V146.936H95.555V134.748Z" fill="#E6E6E6"/>
<path id="Vector_54" d="M84.124 138.537H79.836C77.976 138.537 76.196 137.033 74.916 134.377H89.044C87.764 137.033 86 138.537 84.124 138.537Z" fill="#F0F0F0"/>
<path id="Vector_55" d="M119.987 132.545H131.203C132.597 132.545 133.727 131.415 133.727 130.021V111.473C133.727 110.079 132.597 108.949 131.203 108.949H119.987C118.593 108.949 117.463 110.079 117.463 111.473V130.021C117.463 131.415 118.593 132.545 119.987 132.545Z" fill="#F5F5F5"/>
<path id="Vector_56" d="M159.671 119.416C159.671 119.416 159.271 132.544 143.895 132.544C128.519 132.544 128.119 119.416 128.119 119.416H159.671Z" fill="#F0F0F0"/>
<path id="Vector_57" d="M36.4005 142.431H37.2005C37.2005 139.091 37.2005 137.971 37.2845 118.547C37.4245 83.3472 37.6845 81.1992 37.6845 81.1992L35.8165 97.4512C34.6445 115.447 36.1725 126.175 36.4005 142.431Z" fill="#F0F0F0"/>
<path id="Vector_58" d="M36.2408 152.96C33.8033 152.961 31.4387 152.129 29.5396 150.601C27.6405 149.072 26.3212 146.941 25.8008 144.56C25.55 143.276 25.1859 142.018 24.7128 140.8L24.6328 140.604H47.8328L47.7528 140.8C47.2797 142.018 46.9157 143.276 46.6648 144.56C46.145 146.938 44.8281 149.068 42.9323 150.595C41.0365 152.123 38.6756 152.957 36.2408 152.96Z" fill="#FAFAFA"/>
<path id="Vector_59" d="M49.3489 141.768H23.1289L22.3809 136.092H50.1009L49.3489 141.768Z" fill="#F0F0F0"/>
<path id="Vector_60" d="M35.7439 110.88C40.3239 102.9 28.4479 100.044 24.5959 92.9316C19.9719 98.5476 30.3759 120.228 35.7439 110.88Z" fill="#F0F0F0"/>
<path id="Vector_61" d="M36.6271 104.325C34.8591 100.305 43.3631 95.4247 45.1991 88.8887C48.5911 92.6607 41.8551 116.233 36.6271 104.325Z" fill="#F0F0F0"/>
<path id="Vector_62" d="M36.5604 116.452C38.0004 111.384 46.2324 115.04 50.4324 105.52C54.9004 118.968 32.5684 130.532 36.5604 116.452Z" fill="#F0F0F0"/>
<path id="Vector_63" d="M36.9236 122.509C36.8276 117.709 31.5956 121.965 22.1236 113.385C20.3996 122.241 37.2876 141.113 36.9236 122.509Z" fill="#F0F0F0"/>
</g>
<g id="freepik--Shadow--inject-220">
<path id="freepik--path--inject-220" d="M100.001 171.025C142.834 171.025 177.557 168.997 177.557 166.497C177.557 163.996 142.834 161.969 100.001 161.969C57.1683 161.969 22.4453 163.996 22.4453 166.497C22.4453 168.997 57.1683 171.025 100.001 171.025Z" fill="#F5F5F5"/>
</g>
<g id="freepik--Filter--inject-220">
<path id="Vector_64" d="M108.512 53.2528C109.618 45.9129 104.565 39.0661 97.2252 37.96C89.8854 36.8539 83.0386 41.9073 81.9325 49.2472C80.8264 56.587 85.8798 63.4338 93.2196 64.5399C100.559 65.646 107.406 60.5926 108.512 53.2528Z" fill="#0872BA"/>
<path id="Vector_65" d="M105.68 54.961C104.696 57.7336 102.651 60.0017 99.9943 61.2665C97.3381 62.5312 94.2882 62.689 91.5156 61.705C88.743 60.721 86.4749 58.676 85.2102 56.0197C83.9454 53.3635 83.7877 50.3136 84.7716 47.541C85.7556 44.7684 87.8006 42.5003 90.4569 41.2355C91.7721 40.6093 93.1979 40.2483 94.6526 40.173C96.1074 40.0978 97.5628 40.3098 98.9356 40.797C100.308 41.2842 101.572 42.037 102.654 43.0125C103.736 43.988 104.615 45.167 105.241 46.4823C105.867 47.7975 106.228 49.2232 106.304 50.678C106.379 52.1328 106.167 53.5882 105.68 54.961Z" fill="white"/>
<path id="Vector_66" opacity="0.4" d="M102.646 59.4919C101.162 60.8341 99.3422 61.7497 97.3799 62.1418C95.4176 62.5339 93.3859 62.3878 91.4998 61.7191C89.6138 61.0504 87.9438 59.8839 86.6668 58.3433C85.3898 56.8026 84.5534 54.9453 84.2461 52.9679C87.6144 52.1126 91.1608 52.2759 94.4363 53.4373C97.7117 54.5986 100.569 56.7058 102.646 59.4919Z" fill="#0872BA"/>
<path id="Vector_67" opacity="0.4" d="M101.153 49.3282C100.825 50.2485 100.233 51.0511 99.4491 51.6345C98.6657 52.2179 97.7269 52.556 96.7514 52.6059C95.7759 52.6559 94.8075 52.4156 93.9685 51.9153C93.1296 51.4151 92.4578 50.6773 92.038 49.7953C91.6182 48.9133 91.4694 47.9267 91.6102 46.9601C91.7511 45.9935 92.1753 45.0904 92.8293 44.3649C93.4833 43.6393 94.3378 43.124 95.2846 42.8839C96.2314 42.6439 97.2282 42.6899 98.1488 43.0162C98.7611 43.2326 99.3246 43.5678 99.8071 44.0023C100.29 44.4369 100.682 44.9625 100.961 45.5488C101.24 46.1352 101.4 46.7708 101.433 47.4194C101.466 48.0679 101.371 48.7166 101.153 49.3282Z" fill="#0872BA"/>
<path id="Vector_68" d="M45.7256 65.5447C51.9885 65.5261 57.0505 60.434 57.0319 54.1711C57.0133 47.9082 51.9212 42.8462 45.6583 42.8648C39.3954 42.8834 34.3334 47.9755 34.352 54.2384C34.3706 60.5013 39.4627 65.5633 45.7256 65.5447Z" fill="#0872BA"/>
<path id="Vector_69" opacity="0.6" d="M45.7256 65.5447C51.9885 65.5261 57.0505 60.434 57.0319 54.1711C57.0133 47.9082 51.9212 42.8462 45.6583 42.8648C39.3954 42.8834 34.3334 47.9755 34.352 54.2384C34.3706 60.5013 39.4627 65.5633 45.7256 65.5447Z" fill="#FAFAFA"/>
<path id="Vector_70" d="M54.464 50.9497C55.327 53.2767 55.2303 55.8512 54.1951 58.1069C53.1599 60.3626 51.271 62.1147 48.944 62.9777C46.617 63.8407 44.0425 63.744 41.7868 62.7088C39.5311 61.6736 37.779 59.7847 36.916 57.4577C36.053 55.1307 36.1497 52.5561 37.1849 50.3004C38.2201 48.0448 40.109 46.2927 42.436 45.4297C44.763 44.5667 47.3375 44.6634 49.5932 45.6986C51.8489 46.7338 53.601 48.6227 54.464 50.9497Z" fill="white"/>
<path id="Vector_71" d="M54.9553 55.5202C54.7174 57.1886 54.0333 58.7618 52.9754 60.0738C51.9175 61.3857 50.525 62.3877 48.945 62.9739C47.3649 63.5602 45.6558 63.7089 43.9982 63.4045C42.3406 63.1 40.796 62.3536 39.5273 61.2442C41.2459 58.8728 43.6284 57.0636 46.3742 56.0449C49.1199 55.0262 52.1059 54.8436 54.9553 55.5202Z" fill="#263238"/>
<path id="Vector_72" d="M48.4869 49.7532C48.773 50.5261 48.8236 51.3665 48.6323 52.1681C48.4409 52.9698 48.0162 53.6967 47.4118 54.257C46.8074 54.8173 46.0504 55.1859 45.2366 55.3161C44.4228 55.4463 43.5886 55.3323 42.8396 54.9885C42.0906 54.6447 41.4602 54.0866 41.0283 53.3847C40.5964 52.6827 40.3823 51.8685 40.4131 51.0449C40.4438 50.2213 40.718 49.4253 41.2011 48.7576C41.6841 48.0898 42.3543 47.5802 43.1269 47.2932C43.6403 47.102 44.1864 47.0139 44.7339 47.0341C45.2813 47.0542 45.8195 47.1823 46.3174 47.4108C46.8153 47.6393 47.2633 47.9639 47.6356 48.3658C48.0078 48.7678 48.2971 49.2393 48.4869 49.7532Z" fill="#263238"/>
<path id="Vector_73" d="M76.0514 45.5738C81.1048 40.5204 81.1048 32.3272 76.0514 27.2739C70.9981 22.2205 62.8049 22.2205 57.7515 27.2739C52.6981 32.3272 52.6981 40.5204 57.7515 45.5738C62.8049 50.6272 70.9981 50.6272 76.0514 45.5738Z" fill="#263238"/>
<path id="Vector_74" d="M77.4791 34.984C77.7643 37.078 77.4219 39.2095 76.4952 41.1088C75.5684 43.0081 74.0991 44.5898 72.273 45.6536C70.447 46.7175 68.3464 47.2156 66.2371 47.0851C64.1278 46.9546 62.1047 46.2012 60.4237 44.9203C58.7428 43.6395 57.4797 41.8887 56.7942 39.8896C56.1087 37.8906 56.0318 35.7331 56.573 33.6902C57.1143 31.6474 58.2494 29.811 59.8348 28.4136C61.4201 27.0162 63.3844 26.1206 65.4791 25.84C66.8685 25.6443 68.283 25.7262 69.6406 26.081C70.9982 26.4357 72.272 27.0563 73.3881 27.9068C74.5042 28.7572 75.4404 29.8207 76.1427 31.0355C76.8449 32.2503 77.2991 33.5924 77.4791 34.984Z" fill="white"/>
<path id="Vector_75" d="M76.8833 40.2016C76.2029 42.0004 75.0493 43.5821 73.5442 44.7794C72.0392 45.9767 70.2387 46.7453 68.3329 47.0038C66.4272 47.2624 64.487 47.0014 62.7174 46.2483C60.9477 45.4952 59.4143 44.2781 58.2793 42.7256C60.7844 40.5146 63.8881 39.095 67.199 38.6458C70.5099 38.1966 73.8797 38.7379 76.8833 40.2016Z" fill="#0872BA"/>
<path id="Vector_76" d="M70.1879 35.6805C71.7786 33.5902 71.3735 30.6063 69.2833 29.0156C67.193 27.425 64.209 27.83 62.6184 29.9203C61.0277 32.0106 61.4328 34.9945 63.5231 36.5852C65.6133 38.1758 68.5973 37.7708 70.1879 35.6805Z" fill="#0872BA"/>
<path id="Vector_77" d="M83.2317 162.961H62.8477V166.497H83.2317V162.961Z" fill="#0872BA"/>
<path id="Vector_78" opacity="0.2" d="M64.6715 162.961H63.8555V166.497H64.6715V162.961Z" fill="black"/>
<path id="Vector_79" opacity="0.2" d="M66.8629 162.961H66.0469V166.497H66.8629V162.961Z" fill="black"/>
<path id="Vector_80" opacity="0.2" d="M69.0582 162.961H68.2422V166.497H69.0582V162.961Z" fill="black"/>
<path id="Vector_81" opacity="0.2" d="M71.2555 162.961H70.4395V166.497H71.2555V162.961Z" fill="black"/>
<path id="Vector_82" opacity="0.2" d="M73.4488 162.961H72.6328V166.497H73.4488V162.961Z" fill="black"/>
<path id="Vector_83" opacity="0.2" d="M75.6441 162.961H74.8281V166.497H75.6441V162.961Z" fill="black"/>
<path id="Vector_84" opacity="0.2" d="M77.8355 162.961H77.0195V166.497H77.8355V162.961Z" fill="black"/>
<path id="Vector_85" opacity="0.2" d="M80.0308 162.961H79.2148V166.497H80.0308V162.961Z" fill="black"/>
<path id="Vector_86" opacity="0.2" d="M82.2262 162.961H81.4102V166.497H82.2262V162.961Z" fill="black"/>
<path id="Vector_87" d="M82.5129 159.424H62.1289V162.96H82.5129V159.424Z" fill="#0872BA"/>
<path id="Vector_88" opacity="0.2" d="M63.9527 159.424H63.1367V162.96H63.9527V159.424Z" fill="black"/>
<path id="Vector_89" opacity="0.2" d="M66.1441 159.424H65.3281V162.96H66.1441V159.424Z" fill="black"/>
<path id="Vector_90" opacity="0.2" d="M68.3394 159.424H67.5234V162.96H68.3394V159.424Z" fill="black"/>
<path id="Vector_91" opacity="0.2" d="M70.5347 159.424H69.7188V162.96H70.5347V159.424Z" fill="black"/>
<path id="Vector_92" opacity="0.2" d="M72.7262 159.424H71.9102V162.96H72.7262V159.424Z" fill="black"/>
<path id="Vector_93" opacity="0.2" d="M74.9234 159.424H74.1074V162.96H74.9234V159.424Z" fill="black"/>
<path id="Vector_94" opacity="0.2" d="M77.1207 159.424H76.3047V162.96H77.1207V159.424Z" fill="black"/>
<path id="Vector_95" opacity="0.2" d="M79.3121 159.424H78.4961V162.96H79.3121V159.424Z" fill="black"/>
<path id="Vector_96" opacity="0.2" d="M81.5074 159.424H80.6914V162.96H81.5074V159.424Z" fill="black"/>
<path id="Vector_97" d="M83.0832 155.889H62.6992V159.425H83.0832V155.889Z" fill="#0872BA"/>
<path id="Vector_98" opacity="0.2" d="M64.523 155.889H63.707V159.425H64.523V155.889Z" fill="black"/>
<path id="Vector_99" opacity="0.2" d="M66.7183 155.889H65.9023V159.425H66.7183V155.889Z" fill="black"/>
<path id="Vector_100" opacity="0.2" d="M68.9117 155.889H68.0957V159.425H68.9117V155.889Z" fill="black"/>
<path id="Vector_101" opacity="0.2" d="M71.109 155.889H70.293V159.425H71.109V155.889Z" fill="black"/>
<path id="Vector_102" opacity="0.2" d="M73.3043 155.889H72.4883V159.425H73.3043V155.889Z" fill="black"/>
<path id="Vector_103" opacity="0.2" d="M75.4957 155.889H74.6797V159.425H75.4957V155.889Z" fill="black"/>
<path id="Vector_104" opacity="0.2" d="M77.691 155.889H76.875V159.425H77.691V155.889Z" fill="black"/>
<path id="Vector_105" opacity="0.2" d="M79.8824 155.889H79.0664V159.425H79.8824V155.889Z" fill="black"/>
<path id="Vector_106" opacity="0.2" d="M82.0797 155.889H81.2637V159.425H82.0797V155.889Z" fill="black"/>
<path id="Vector_107" d="M74.2148 153.958C79.7448 152.683 83.1936 147.166 81.9179 141.636C80.6422 136.105 75.1251 132.657 69.5951 133.932C64.065 135.208 60.6162 140.725 61.8919 146.255C63.1676 151.785 68.6847 155.234 74.2148 153.958Z" fill="#0872BA"/>
<path id="Vector_108" opacity="0.2" d="M79.2325 148.517C78.3278 149.964 77.0145 151.11 75.4585 151.81C73.9026 152.511 72.1739 152.734 70.4911 152.452C68.8083 152.17 67.2468 151.395 66.0042 150.226C64.7616 149.056 63.8936 147.545 63.51 145.882C63.1263 144.22 63.2443 142.481 63.8489 140.885C64.4535 139.29 65.5177 137.909 66.9068 136.918C68.296 135.927 69.9477 135.371 71.6532 135.318C73.3587 135.266 75.0414 135.721 76.4885 136.625C78.4289 137.839 79.808 139.773 80.3225 142.003C80.8371 144.233 80.445 146.576 79.2325 148.517Z" fill="black"/>
<path id="Vector_109" d="M73.9542 152.555C78.5177 151.503 81.3638 146.95 80.311 142.386C79.2583 137.823 74.7054 134.977 70.1419 136.029C65.5784 137.082 62.7323 141.635 63.7851 146.199C64.8378 150.762 69.3907 153.608 73.9542 152.555Z" fill="#0872BA"/>
<path id="Vector_110" d="M74.8832 145.793L73.6112 147.833C73.5629 147.911 73.4988 147.978 73.423 148.03C73.3472 148.082 73.2614 148.117 73.1712 148.133C73.0812 148.155 72.9876 148.159 72.8962 148.144C72.8048 148.128 72.7174 148.095 72.6392 148.045L70.8472 146.925L69.9512 148.361C69.8532 148.517 69.6976 148.627 69.5185 148.668C69.3394 148.71 69.1513 148.678 68.9952 148.581C68.9147 148.534 68.8449 148.47 68.7899 148.394C68.7348 148.319 68.6958 148.232 68.6752 148.141C68.6509 148.053 68.6458 147.961 68.6603 147.87C68.6748 147.78 68.7085 147.693 68.7592 147.617L69.6632 146.165L67.8872 145.053C67.8098 145.006 67.7426 144.944 67.6897 144.871C67.6368 144.797 67.5992 144.714 67.5792 144.625C67.5564 144.536 67.5525 144.443 67.5676 144.352C67.5828 144.261 67.6167 144.174 67.6672 144.097C67.714 144.019 67.7765 143.951 67.8509 143.898C67.9252 143.845 68.0098 143.808 68.0992 143.789C68.1879 143.768 68.2801 143.764 68.3702 143.78C68.4603 143.795 68.5463 143.828 68.6232 143.877L72.7832 146.477L73.3112 145.629L69.1672 143.037C69.0886 142.991 69.0203 142.929 68.9667 142.856C68.913 142.782 68.875 142.698 68.8552 142.609C68.8319 142.52 68.8277 142.427 68.8429 142.336C68.858 142.245 68.8922 142.158 68.9432 142.081L70.2152 140.053C70.2617 139.974 70.3242 139.906 70.3985 139.852C70.4729 139.798 70.5575 139.761 70.6472 139.741C70.736 139.721 70.828 139.718 70.918 139.733C71.0079 139.748 71.094 139.781 71.1712 139.829L72.9352 140.933L73.8312 139.497C73.8807 139.418 73.9457 139.349 74.0223 139.296C74.0989 139.242 74.1855 139.204 74.277 139.185C74.3685 139.166 74.4629 139.165 74.5547 139.183C74.6465 139.201 74.7337 139.237 74.8112 139.289C74.8875 139.337 74.9535 139.399 75.0051 139.472C75.0566 139.546 75.0927 139.629 75.1112 139.717C75.1341 139.806 75.1381 139.898 75.123 139.989C75.1078 140.079 75.0738 140.165 75.0232 140.241L74.1272 141.677L75.9312 142.809C76.0109 142.857 76.08 142.921 76.1343 142.997C76.1886 143.072 76.227 143.158 76.2472 143.249C76.2713 143.337 76.2766 143.429 76.2628 143.52C76.2491 143.61 76.2165 143.696 76.1672 143.773C76.1191 143.853 76.0548 143.923 75.9783 143.976C75.9018 144.03 75.8149 144.067 75.7232 144.085C75.6347 144.107 75.5427 144.111 75.4527 144.096C75.3626 144.082 75.2764 144.05 75.1992 144.001L71.0392 141.401L70.5152 142.241L74.6632 144.833C74.742 144.882 74.8102 144.946 74.8638 145.022C74.9174 145.097 74.9553 145.183 74.9752 145.273C74.9975 145.361 75.0008 145.453 74.9849 145.543C74.9691 145.633 74.9344 145.718 74.8832 145.793Z" fill="#FAFAFA"/>
<path id="Vector_111" opacity="0.4" d="M77.3596 135.228C75.8763 134.303 74.1815 133.771 72.4355 133.683C70.6895 133.595 68.9498 133.953 67.3808 134.724C65.8118 135.495 64.4653 136.654 63.4684 138.09C62.4715 139.526 61.8573 141.193 61.6836 142.932H82.1396C81.9866 141.368 81.4759 139.859 80.6471 138.523C79.8183 137.188 78.6935 136.06 77.3596 135.228Z" fill="black"/>
<path id="Vector_112" opacity="0.2" d="M109.359 53.4688H34.7674C34.1464 53.4687 33.5372 53.6386 33.0058 53.96C32.4743 54.2814 32.041 54.742 31.7526 55.292C31.4642 55.842 31.3317 56.4605 31.3696 57.0803C31.4075 57.7002 31.6142 58.2979 31.9674 58.8088L40.2954 70.8368C40.6095 71.2884 41.0282 71.6575 41.5158 71.9124C42.0033 72.1673 42.5453 72.3005 43.0954 72.3008H101.031C101.582 72.3012 102.124 72.1683 102.612 71.9133C103.099 71.6583 103.518 71.2889 103.831 70.8368L112.159 58.8008C112.51 58.29 112.715 57.6931 112.752 57.0744C112.789 56.4558 112.656 55.8388 112.368 55.2901C112.08 54.7414 111.647 54.2818 111.117 53.9609C110.587 53.6399 109.979 53.4697 109.359 53.4688Z" fill="#0872BA"/>
<path id="Vector_113" d="M109.78 68.248H34.3516L58.8796 121.088H85.2476L109.78 68.248Z" fill="#0872BA"/>
<path id="Vector_114" d="M42.8159 88.8706L42.4531 89.0391L44.9507 94.4196L45.3135 94.2512L42.8159 88.8706Z" fill="#0872BA"/>
<path id="Vector_115" d="M46.0542 95.8492L45.6914 96.0176L46.8602 98.5355L47.223 98.3671L46.0542 95.8492Z" fill="#0872BA"/>
<path id="Vector_116" opacity="0.3" d="M109.78 68.248H34.3516L58.8796 121.088H85.2476L109.78 68.248Z" fill="black"/>
<path id="Vector_117" opacity="0.2" d="M56.3677 68.248H42.0957L63.7117 121.088H68.3277L56.3677 68.248Z" fill="black"/>
<path id="Vector_118" d="M112.119 58.084H32.0115C30.9578 58.084 30.1035 58.9382 30.1035 59.992V66.34C30.1035 67.3937 30.9578 68.248 32.0115 68.248H112.119C113.173 68.248 114.028 67.3937 114.028 66.34V59.992C114.028 58.9382 113.173 58.084 112.119 58.084Z" fill="#0872BA"/>
<path id="Vector_119" d="M81.3749 140.252H62.7549C62.0867 140.252 61.4432 139.999 60.9536 139.544C60.464 139.089 60.1644 138.466 60.1149 137.8L58.8789 121.088H85.2469L83.9989 137.8C83.9506 138.464 83.6535 139.085 83.1671 139.54C82.6807 139.994 82.0407 140.249 81.3749 140.252Z" fill="#0872BA"/>
<path id="Vector_120" opacity="0.2" d="M81.3749 140.252H62.7549C62.0867 140.252 61.4432 139.999 60.9536 139.544C60.464 139.089 60.1644 138.466 60.1149 137.8L58.8789 121.088H85.2469L83.9989 137.8C83.9506 138.464 83.6535 139.085 83.1671 139.54C82.6807 139.994 82.0407 140.249 81.3749 140.252Z" fill="black"/>
</g>
<g id="freepik--Character--inject-220">
<path id="Vector_121" d="M132.385 163.152H129.109L128.893 155.568H132.169L132.385 163.152Z" fill="#FFB573"/>
<path id="Vector_122" opacity="0.2" d="M128.893 155.568L129.005 159.48H132.281L132.169 155.568H128.893Z" fill="black"/>
<path id="Vector_123" d="M157.704 151.247L154.836 152.827L150.26 146.687L153.128 145.111L157.704 151.247Z" fill="#FFB573"/>
<path id="Vector_124" opacity="0.2" d="M153.132 145.111L150.26 146.691L152.62 149.851L155.492 148.275L153.132 145.111Z" fill="black"/>
<path id="Vector_125" d="M145.241 70.288C142.313 68.288 140.989 66.228 140.733 63.744C141.225 66.376 142.797 68.464 146.309 70.228C146.337 70.2439 146.369 70.2522 146.401 70.252C146.446 70.2522 146.49 70.2369 146.526 70.2088C146.561 70.1807 146.586 70.1413 146.597 70.0971C146.607 70.0529 146.602 70.0066 146.582 69.9657C146.563 69.9248 146.53 69.8917 146.489 69.872C141.549 67.392 140.593 64.356 141.045 59.836C141.173 59.24 141.333 58.636 141.525 57.98C143.125 52.516 134.213 51.42 131.425 52.556C124.573 55.356 126.677 63.136 128.625 66.068C130.573 69 124.057 70.968 127.697 79.356C131.337 87.744 143.445 87.536 146.897 83.176C150.349 78.816 150.145 73.668 145.241 70.288Z" fill="#263238"/>
<path id="Vector_126" d="M127.36 73.6677C127.32 74.2157 127.276 74.6917 127.208 75.1917C127.14 75.6917 127.068 76.1757 126.988 76.6637C126.828 77.6437 126.588 78.6117 126.376 79.5757C125.907 81.5223 125.254 83.42 124.428 85.2437L124.272 85.5877C124.212 85.7077 124.188 85.7797 124.064 86.0157C123.827 86.4428 123.487 86.8043 123.076 87.0677C122.696 87.3052 122.269 87.4567 121.824 87.5117C121.471 87.5559 121.113 87.5559 120.76 87.5117C119.658 87.3378 118.596 86.968 117.624 86.4197C115.875 85.4635 114.241 84.3092 112.756 82.9797L113.744 81.6477C114.544 82.0997 115.372 82.5597 116.196 82.9757C117.003 83.3961 117.834 83.77 118.684 84.0957C119.42 84.4106 120.202 84.6076 121 84.6797C121.312 84.6797 121.5 84.5917 121.444 84.5917C121.388 84.5917 121.4 84.6197 121.404 84.5917L121.608 84.0517C122.249 82.3478 122.763 80.5991 123.148 78.8197C123.348 77.9237 123.508 77.0157 123.66 76.1117C123.812 75.2077 123.932 74.2717 124.02 73.4277L127.36 73.6677Z" fill="#FFB573"/>
<path id="Vector_127" d="M125.085 69.6631C123.733 69.9991 122.801 75.5591 122.801 75.5591L126.521 78.0871C126.521 78.0871 130.089 72.4871 129.049 71.0031C127.957 69.4551 127.053 69.1591 125.085 69.6631Z" fill="#0872BA"/>
<path id="Vector_128" opacity="0.2" d="M125.085 69.6631C123.733 69.9991 122.801 75.5591 122.801 75.5591L126.521 78.0871C126.521 78.0871 130.089 72.4871 129.049 71.0031C127.957 69.4551 127.053 69.1591 125.085 69.6631Z" fill="black"/>
<path id="Vector_129" opacity="0.2" d="M125.204 70.9043L124.168 76.5003L126.256 77.9203L125.204 70.9043Z" fill="black"/>
<path id="Vector_130" d="M114.296 81.8723L112.296 78.7363L111.168 81.8683C111.168 81.8683 112.556 83.4683 113.88 83.1363L114.296 81.8723Z" fill="#FFB573"/>
<path id="Vector_131" d="M110.16 77.5605L108.828 80.0125L111.164 81.8685L112.292 78.7365L110.16 77.5605Z" fill="#FFB573"/>
<path id="Vector_132" d="M154.215 152.439L157.143 150.211C157.192 150.172 157.254 150.153 157.317 150.157C157.38 150.16 157.439 150.187 157.483 150.231L159.583 152.291C159.634 152.345 159.672 152.409 159.696 152.479C159.721 152.548 159.73 152.622 159.724 152.696C159.718 152.769 159.697 152.841 159.661 152.905C159.626 152.97 159.578 153.027 159.519 153.071C158.483 153.831 157.947 154.147 156.659 155.127C155.859 155.731 154.775 156.695 153.679 157.527C152.583 158.359 151.707 157.323 152.079 156.879C153.783 154.879 153.647 154.035 153.895 152.931C153.941 152.735 154.054 152.561 154.215 152.439Z" fill="#263238"/>
<path id="Vector_133" d="M128.996 162.772H132.676C132.74 162.77 132.803 162.792 132.851 162.833C132.9 162.875 132.932 162.932 132.94 162.996L133.34 165.908C133.348 165.981 133.341 166.055 133.318 166.125C133.295 166.196 133.258 166.26 133.208 166.315C133.159 166.37 133.098 166.413 133.031 166.443C132.963 166.473 132.89 166.488 132.816 166.488C131.532 166.468 130.916 166.392 129.296 166.392C128.304 166.392 125.444 166.496 124.068 166.496C122.692 166.496 122.62 165.136 123.192 165.012C125.76 164.46 127.568 163.7 128.436 162.972C128.594 162.841 128.792 162.77 128.996 162.772Z" fill="#263238"/>
<path id="Vector_134" d="M125.085 69.6649C125.085 69.6649 123.525 70.2129 126.649 89.4289H139.949C139.725 84.0169 139.721 80.6769 142.305 69.5689C140.443 69.1832 138.555 68.9345 136.657 68.8249C134.647 68.6808 132.63 68.6808 130.621 68.8249C128.025 69.0609 125.085 69.6649 125.085 69.6649Z" fill="#0872BA"/>
<path id="Vector_135" opacity="0.2" d="M125.085 69.6649C125.085 69.6649 123.525 70.2129 126.649 89.4289H139.949C139.725 84.0169 139.721 80.6769 142.305 69.5689C140.443 69.1832 138.555 68.9345 136.657 68.8249C134.647 68.6808 132.63 68.6808 130.621 68.8249C128.025 69.0609 125.085 69.6649 125.085 69.6649Z" fill="black"/>
<path id="Vector_136" d="M136.657 68.8249C134.647 68.6808 132.63 68.6808 130.621 68.8249C129.893 68.8889 129.141 68.9849 128.437 69.0849C128.125 70.2529 128.189 71.8849 129.377 74.0209L130.065 75.2489L131.373 74.7249C132.341 74.3249 137.241 72.2649 138.813 69.7129L139.213 69.0529C138.429 68.9529 137.553 68.8689 136.657 68.8249Z" fill="white"/>
<path id="Vector_137" d="M136.657 68.8234C135.301 67.5274 135.681 63.9634 136.061 62.0234L132.353 65.1994C132.729 66.7114 132.785 68.3154 130.621 68.8354L130.221 68.8754C129.737 69.7874 129.617 71.1954 130.773 73.2754C130.773 73.2754 136.069 71.1394 137.449 68.9074C137.201 68.8554 136.925 68.8354 136.657 68.8234Z" fill="#FFB573"/>
<path id="Vector_138" opacity="0.2" d="M134.548 63.3164L132.352 65.2004C132.447 65.5513 132.51 65.9101 132.54 66.2724C133.368 66.1524 134.504 65.2444 134.592 64.3764C134.643 64.0234 134.628 63.6639 134.548 63.3164Z" fill="black"/>
<path id="Vector_139" d="M138.509 58.9201C137.537 62.0241 137.193 63.3561 135.205 64.5801C132.213 66.4241 128.613 64.5521 128.637 61.2241C128.657 58.2281 130.237 53.6561 133.633 53.1641C134.38 53.0523 135.144 53.1332 135.851 53.3992C136.558 53.6651 137.186 54.1074 137.674 54.6839C138.162 55.2605 138.496 55.9522 138.642 56.6936C138.788 57.435 138.742 58.2013 138.509 58.9201Z" fill="#FFB573"/>
<path id="Vector_140" d="M139.128 54.4002C138.064 53.4206 136.685 52.8532 135.24 52.8002C135.039 52.622 134.79 52.5078 134.524 52.4722C133.016 52.1642 131.324 52.5722 130.552 53.5282C129.86 54.4002 132.216 54.9122 133.908 54.2202C134.152 56.8922 136.408 62.3882 138.56 61.8922C141.372 61.2522 141.396 56.5002 139.128 54.4002Z" fill="#263238"/>
<path id="Vector_141" d="M126.648 89.4279C126.648 89.4279 124.064 114.656 124.28 124.628C124.504 135.028 128.308 158.704 128.308 158.704H132.736C132.736 158.704 132.036 135.62 132.428 125.42C132.856 114.296 136.388 89.4199 136.388 89.4199L126.648 89.4279Z" fill="#263238"/>
<path id="Vector_142" d="M133.119 158.88H127.923L127.543 157.224L133.363 157.02L133.119 158.88Z" fill="#0872BA"/>
<path id="Vector_143" opacity="0.2" d="M132.4 95.7036C129.132 102.276 131.744 114.264 132.9 118.724C133.492 112.028 134.5 103.836 135.268 97.8236C134.76 94.4236 133.892 92.6756 132.4 95.7036Z" fill="black"/>
<path id="Vector_144" d="M130.16 89.4277C130.16 89.4277 133.172 115.656 135.448 124.076C138.148 134.076 151.564 149.572 151.564 149.572L155.476 147.42C155.476 147.42 146.172 130.02 144.104 124.752C139.704 113.512 143.472 96.7517 139.948 89.4277H130.16Z" fill="#263238"/>
<path id="Vector_145" d="M156.04 147.376L151.184 150.044L149.828 148.804L155.396 145.408L156.04 147.376Z" fill="#0872BA"/>
<path id="Vector_146" d="M133.276 58.5203C133.216 58.7763 133.028 58.9483 132.876 58.9203C132.724 58.8923 132.624 58.6363 132.688 58.3803C132.752 58.1243 132.936 57.9483 133.088 57.9803C133.24 58.0123 133.34 58.2603 133.276 58.5203Z" fill="#263238"/>
<path id="Vector_147" d="M130.399 57.8034C130.335 58.0594 130.147 58.2354 129.979 58.2034C129.811 58.1714 129.727 57.9234 129.791 57.6674C129.855 57.4114 130.039 57.2354 130.191 57.2674C130.343 57.2994 130.439 57.5474 130.399 57.8034Z" fill="#263238"/>
<path id="Vector_148" d="M130.259 57.2968L129.688 56.9688C129.688 56.9688 129.883 57.5288 130.259 57.2968Z" fill="#263238"/>
<path id="Vector_149" d="M131.16 58.4883C130.787 59.0164 130.343 59.4903 129.84 59.8963C129.947 60.0223 130.081 60.1234 130.232 60.1925C130.382 60.2616 130.546 60.297 130.712 60.2963L131.16 58.4883Z" fill="#ED893E"/>
<path id="Vector_150" d="M131.865 61.6443C131.731 61.6328 131.597 61.6114 131.465 61.5803C131.455 61.578 131.446 61.5736 131.437 61.5674C131.429 61.5613 131.422 61.5535 131.417 61.5445C131.411 61.5354 131.408 61.5255 131.407 61.5151C131.406 61.5048 131.406 61.4943 131.409 61.4843C131.412 61.4746 131.416 61.4654 131.422 61.4573C131.428 61.4492 131.435 61.4424 131.444 61.4372C131.452 61.432 131.462 61.4285 131.472 61.427C131.482 61.4255 131.492 61.4259 131.501 61.4283C131.82 61.512 132.154 61.5195 132.475 61.45C132.797 61.3805 133.098 61.236 133.353 61.0283C133.36 61.0206 133.369 61.0145 133.378 61.0103C133.387 61.0061 133.397 61.0039 133.407 61.0039C133.418 61.0039 133.428 61.0061 133.437 61.0103C133.446 61.0145 133.455 61.0206 133.461 61.0283C133.469 61.0354 133.474 61.0438 133.478 61.053C133.482 61.0623 133.484 61.0722 133.484 61.0823C133.484 61.0923 133.482 61.1023 133.478 61.1115C133.474 61.1208 133.469 61.1292 133.461 61.1363C133.242 61.3222 132.988 61.4628 132.714 61.55C132.44 61.6372 132.152 61.6692 131.865 61.6443Z" fill="#263238"/>
<path id="Vector_151" d="M138.649 62.0198C138.293 62.5386 137.747 62.8953 137.129 63.0118C136.309 63.1558 135.977 62.4038 136.273 61.6718C136.537 61.0118 137.281 60.1438 138.073 60.3278C138.244 60.3719 138.402 60.4581 138.533 60.5786C138.663 60.6991 138.761 60.8501 138.818 61.0181C138.875 61.186 138.89 61.3655 138.86 61.5404C138.83 61.7152 138.758 61.88 138.649 62.0198Z" fill="#FFB573"/>
<path id="Vector_152" d="M134.588 58.2152C134.554 58.2126 134.523 58.1996 134.498 58.1781C134.473 58.1565 134.455 58.1274 134.448 58.0952C134.288 57.3952 133.436 57.0392 133.428 57.0352C133.408 57.0277 133.391 57.0164 133.376 57.0021C133.361 56.9877 133.349 56.9706 133.341 56.9516C133.333 56.9326 133.328 56.9122 133.328 56.8915C133.328 56.8708 133.332 56.8503 133.34 56.8312C133.356 56.7937 133.387 56.764 133.425 56.7484C133.463 56.7327 133.505 56.7323 133.544 56.7472C133.584 56.7472 134.556 57.1712 134.744 58.0232C134.748 58.0431 134.749 58.0638 134.746 58.0841C134.743 58.1043 134.735 58.1238 134.725 58.1412C134.714 58.1587 134.7 58.1739 134.683 58.1859C134.666 58.1979 134.648 58.2065 134.628 58.2112L134.588 58.2152Z" fill="#263238"/>
<path id="Vector_153" d="M129.835 56.2521C129.809 56.2482 129.784 56.2382 129.762 56.2229C129.741 56.2076 129.723 56.1875 129.711 56.1641C129.693 56.127 129.69 56.0842 129.704 56.0452C129.717 56.0063 129.746 55.9742 129.783 55.9561C130.002 55.8425 130.244 55.7832 130.491 55.7832C130.737 55.7832 130.98 55.8425 131.199 55.9561C131.234 55.9776 131.258 56.0119 131.268 56.0515C131.278 56.0911 131.272 56.133 131.251 56.1681C131.241 56.1857 131.227 56.201 131.211 56.2132C131.194 56.2254 131.176 56.2341 131.156 56.239C131.136 56.2438 131.116 56.2447 131.095 56.2414C131.075 56.2382 131.056 56.2309 131.039 56.2201C130.865 56.1316 130.674 56.0855 130.479 56.0855C130.284 56.0855 130.092 56.1316 129.919 56.2201C129.893 56.2368 129.865 56.2477 129.835 56.2521Z" fill="#263238"/>
<path id="Vector_154" d="M143.836 73.3809C144.236 75.3809 144.532 77.3209 144.76 79.3129C144.88 80.3049 144.968 81.3129 145.036 82.3129C145.072 82.8129 145.092 83.3209 145.112 83.8289L145.132 84.5929V84.9009C145.132 84.9969 145.132 85.0929 145.132 85.1889C145.082 85.6377 144.888 86.0583 144.58 86.3889C144.343 86.6358 144.053 86.8259 143.732 86.9449C143.524 87.027 143.306 87.0847 143.084 87.1169C142.751 87.1669 142.413 87.183 142.076 87.1649C141.518 87.1353 140.962 87.0671 140.412 86.9609C139.403 86.758 138.405 86.4989 137.424 86.1849C136.464 85.8769 135.52 85.5449 134.584 85.1969C133.648 84.8489 132.732 84.4609 131.816 84.0369L132.372 82.4769C133.308 82.7049 134.26 82.9449 135.208 83.1569C136.156 83.3689 137.1 83.5929 138.04 83.7729C138.98 83.9529 139.92 84.1209 140.84 84.2129C141.262 84.2632 141.688 84.2833 142.112 84.2729C142.267 84.2721 142.422 84.2533 142.572 84.2169C142.628 84.2169 142.644 84.1889 142.632 84.1929C142.543 84.2232 142.462 84.2771 142.4 84.3489C142.262 84.4968 142.174 84.6843 142.148 84.8849C142.142 84.9193 142.142 84.9545 142.148 84.9889C142.148 84.9889 142.148 84.9409 142.148 84.9209V84.7449L142.084 84.0369L141.928 82.6129C141.812 81.6609 141.68 80.7049 141.528 79.7489C141.376 78.7929 141.232 77.8369 141.072 76.8809C140.912 75.9249 140.748 74.9649 140.588 74.0289L143.836 73.3809Z" fill="#FFB573"/>
<path id="Vector_155" d="M142.305 69.5679C143.641 69.9679 145.241 74.5599 145.241 74.5599L140.069 78.2559C140.069 78.2559 138.185 74.4279 138.745 72.7039C139.329 70.9119 140.801 69.1039 142.305 69.5679Z" fill="#0872BA"/>
<path id="Vector_156" opacity="0.2" d="M142.305 69.5679C143.641 69.9679 145.241 74.5599 145.241 74.5599L140.069 78.2559C140.069 78.2559 138.185 74.4279 138.745 72.7039C139.329 70.9119 140.801 69.1039 142.305 69.5679Z" fill="black"/>
<path id="Vector_157" d="M153.112 153.821H153.072C152.997 153.812 152.925 153.784 152.863 153.74C152.802 153.696 152.752 153.637 152.72 153.569C152.697 153.528 152.686 153.482 152.686 153.435C152.686 153.388 152.697 153.342 152.72 153.301C152.92 152.933 154.1 152.841 154.236 152.833C154.25 152.831 154.265 152.833 154.278 152.841C154.291 152.848 154.302 152.859 154.308 152.873C154.316 152.886 154.321 152.901 154.321 152.917C154.321 152.932 154.316 152.948 154.308 152.961C154.02 153.285 153.52 153.821 153.112 153.821ZM154.044 153.021C153.576 153.069 152.952 153.197 152.844 153.393C152.832 153.41 152.826 153.43 152.826 153.451C152.826 153.471 152.832 153.492 152.844 153.509C152.863 153.555 152.894 153.595 152.934 153.625C152.975 153.656 153.022 153.675 153.072 153.681C153.308 153.685 153.66 153.441 154.044 153.005V153.021Z" fill="#0872BA"/>
<path id="Vector_158" d="M154.116 152.993C153.716 152.993 152.964 152.801 152.816 152.497C152.789 152.441 152.782 152.378 152.796 152.318C152.81 152.257 152.844 152.203 152.892 152.165C152.934 152.123 152.985 152.09 153.041 152.07C153.097 152.05 153.157 152.043 153.216 152.049C153.692 152.085 154.264 152.849 154.288 152.849C154.295 152.861 154.298 152.875 154.298 152.889C154.298 152.903 154.295 152.917 154.288 152.929C154.283 152.941 154.275 152.951 154.264 152.959C154.254 152.966 154.241 152.971 154.228 152.973C154.192 152.983 154.154 152.99 154.116 152.993ZM153.18 152.193C153.113 152.194 153.048 152.221 153 152.269C152.928 152.337 152.94 152.385 152.956 152.421C153.056 152.625 153.672 152.821 154.072 152.821C153.868 152.581 153.488 152.205 153.204 152.185L153.18 152.193Z" fill="#0872BA"/>
<path id="Vector_159" d="M127.769 163.344C127.487 163.372 127.204 163.302 126.969 163.144C126.915 163.097 126.875 163.038 126.85 162.972C126.826 162.905 126.818 162.834 126.829 162.764C126.831 162.722 126.843 162.681 126.866 162.645C126.888 162.609 126.92 162.58 126.957 162.56C127.357 162.34 128.665 163.004 128.813 163.084C128.827 163.091 128.838 163.103 128.846 163.118C128.853 163.132 128.855 163.148 128.853 163.164C128.851 163.18 128.844 163.194 128.833 163.206C128.822 163.217 128.808 163.225 128.793 163.228C128.456 163.298 128.113 163.337 127.769 163.344ZM127.201 162.668C127.151 162.665 127.102 162.675 127.057 162.696C127.041 162.704 127.028 162.716 127.019 162.731C127.01 162.746 127.005 162.763 127.005 162.78C126.999 162.825 127.003 162.872 127.019 162.915C127.034 162.958 127.059 162.997 127.093 163.028C127.293 163.208 127.833 163.236 128.557 163.116C128.134 162.89 127.675 162.738 127.201 162.668Z" fill="#0872BA"/>
<path id="Vector_160" d="M128.8 163.229H128.768C128.368 163.049 127.604 162.345 127.668 161.973C127.668 161.885 127.744 161.777 127.956 161.753C128.033 161.745 128.112 161.753 128.186 161.777C128.26 161.8 128.329 161.838 128.388 161.889C128.788 162.233 128.876 163.113 128.876 163.149C128.878 163.163 128.876 163.177 128.871 163.19C128.865 163.202 128.856 163.213 128.844 163.221C128.83 163.228 128.815 163.23 128.8 163.229ZM128 161.901H127.952C127.812 161.901 127.804 161.973 127.8 161.989C127.764 162.213 128.288 162.769 128.684 163.009C128.658 162.64 128.518 162.287 128.284 162.001C128.206 161.932 128.104 161.896 128 161.901Z" fill="#0872BA"/>
<path id="Vector_161" d="M133.16 57.9999L132.588 57.6719C132.588 57.6719 132.8 58.2399 133.16 57.9999Z" fill="#263238"/>
<path id="Vector_162" d="M140.148 88.6477L140.488 89.8477C140.532 89.9437 140.424 90.0357 140.272 90.0357H126.58C126.46 90.0357 126.364 89.9757 126.356 89.9037L126.236 88.7037C126.236 88.6197 126.332 88.5517 126.46 88.5517H139.932C139.974 88.5481 140.015 88.555 140.053 88.5718C140.091 88.5886 140.123 88.6147 140.148 88.6477Z" fill="#0872BA"/>
<path id="Vector_163" d="M138.34 90.1515H138.7C138.772 90.1515 138.824 90.1154 138.82 90.0714L138.652 88.5234C138.652 88.4794 138.584 88.4395 138.512 88.4395H138.152C138.08 88.4395 138.024 88.4794 138.028 88.5234L138.2 90.0714C138.204 90.1154 138.268 90.1515 138.34 90.1515Z" fill="#263238"/>
<path id="Vector_164" d="M127.6 90.1515H127.96C128.032 90.1515 128.088 90.1154 128.08 90.0714L127.912 88.5234C127.912 88.4794 127.844 88.4395 127.772 88.4395H127.412C127.34 88.4395 127.284 88.4794 127.292 88.5234L127.46 90.0714C127.46 90.1154 127.524 90.1515 127.6 90.1515Z" fill="#263238"/>
<path id="Vector_165" d="M132.968 90.1515H133.328C133.4 90.1515 133.456 90.1154 133.448 90.0714L133.28 88.5234C133.28 88.4794 133.212 88.4395 133.14 88.4395H132.8C132.728 88.4395 132.672 88.4794 132.68 88.5234L132.848 90.0714C132.832 90.1154 132.896 90.1515 132.968 90.1515Z" fill="#263238"/>
<path id="Vector_166" d="M120.344 93.9483C126.293 93.9483 131.116 89.1255 131.116 83.1763C131.116 77.2271 126.293 72.4043 120.344 72.4043C114.395 72.4043 109.572 77.2271 109.572 83.1763C109.572 89.1255 114.395 93.9483 120.344 93.9483Z" fill="#0872BA"/>
<path id="Vector_167" opacity="0.4" d="M120.344 93.9483C126.293 93.9483 131.116 89.1255 131.116 83.1763C131.116 77.2271 126.293 72.4043 120.344 72.4043C114.395 72.4043 109.572 77.2271 109.572 83.1763C109.572 89.1255 114.395 93.9483 120.344 93.9483Z" fill="black"/>
<path id="Vector_168" d="M111.536 82.0009C111.333 83.4663 111.504 84.9592 112.032 86.3409C112.8 88.3671 114.281 90.0432 116.197 91.054C118.114 92.0649 120.333 92.341 122.439 91.8303C124.544 91.3196 126.391 90.0574 127.631 88.281C128.872 86.5045 129.421 84.3361 129.174 82.1835C128.928 80.0309 127.905 78.0422 126.295 76.5914C124.686 75.1406 122.602 74.3276 120.436 74.3052C118.269 74.2827 116.169 75.0525 114.53 76.4697C112.892 77.8868 111.827 79.8539 111.536 82.0009Z" fill="#0872BA"/>
<path id="Vector_169" d="M112.031 86.3207C112.597 87.8184 113.558 89.1353 114.81 90.1324C116.063 91.1294 117.562 91.7695 119.149 91.9851C120.735 92.2006 122.351 91.9835 123.824 91.3568C125.297 90.7301 126.574 89.7171 127.519 88.4247C125.435 86.5823 122.851 85.3991 120.094 85.0246C117.338 84.6501 114.532 85.1011 112.031 86.3207Z" fill="white"/>
<path id="Vector_170" d="M124.489 81.4791C125.216 79.4164 124.133 77.155 122.07 76.4282C120.007 75.7014 117.746 76.7843 117.019 78.8471C116.292 80.9098 117.375 83.1712 119.438 83.898C121.501 84.6249 123.762 83.5419 124.489 81.4791Z" fill="white"/>
<path id="Vector_171" d="M132.745 82.5435L130.269 80.0195L129.953 83.3355C129.953 83.3355 131.693 84.5355 132.901 83.8875L132.745 82.5435Z" fill="#FFB573"/>
<path id="Vector_172" d="M127.536 79.6602L127.424 82.4522L129.952 83.3362L130.268 80.0202L127.536 79.6602Z" fill="#FFB573"/>
</g>
</g>
</svg>
