<svg width="200" height="200" viewBox="0 0 200 200" fill="none" xmlns="http://www.w3.org/2000/svg">
<g id="Friendship-pana 1">
<g id="freepik--background-complete--inject-303">
<path id="Vector" d="M65.768 16.248V45.604H23.604L22.084 16.452L65.768 16.248Z" fill="#E0E0E0"/>
<path id="Vector_2" d="M22.084 16.4511L22.084 45.5391H64.248V16.4511L22.084 16.4511Z" fill="white"/>
<path id="Vector_3" d="M64.4468 45.74H21.8828V16.252H64.4468V45.74ZM22.2828 45.34H64.0468V16.652H22.2828V45.34Z" fill="#E0E0E0"/>
<path id="Vector_4" d="M59.6803 20.0664H26.6523V41.9264H59.6803V20.0664Z" fill="white"/>
<path id="Vector_5" d="M59.6797 20.0674H59.0477H57.2357L50.4357 20.0954L26.6597 20.1434L26.7557 20.0474C26.7557 26.7234 26.7557 34.1274 26.7557 41.9034L26.6517 41.7994H59.6797L59.5997 41.8834C59.5997 35.2314 59.6317 29.7754 59.6397 25.9754C59.6397 24.0794 59.6597 22.5954 59.6637 21.5754C59.6637 21.0714 59.6637 20.6874 59.6637 20.4194C59.6637 20.1514 59.6637 20.0194 59.6637 20.0194C59.6637 20.0194 59.6637 20.1434 59.6637 20.4194C59.6637 20.6954 59.6637 21.0634 59.6637 21.5594C59.6637 22.5714 59.6637 24.0474 59.6837 25.9594C59.6837 29.7674 59.7117 35.2394 59.7277 41.9154V41.9994H59.6437H26.6157H26.5117V41.8954C26.5117 34.1194 26.5117 26.7154 26.5117 20.0394V19.9434H26.6077L50.4477 19.9914L57.2477 20.0154H59.0437H59.4997L59.6797 20.0674Z" fill="#E0E0E0"/>
<path id="Vector_6" d="M22.084 16.3711C22.3422 16.4948 22.583 16.6522 22.8 16.8391C23.232 17.1511 23.82 17.5911 24.456 18.0991C25.092 18.6071 25.656 19.0871 26.056 19.4471C26.2839 19.6261 26.487 19.8346 26.66 20.0671C26.62 20.1111 25.608 19.2671 24.34 18.2631C23.549 17.6804 22.7955 17.0485 22.084 16.3711Z" fill="#E0E0E0"/>
<path id="Vector_7" d="M64.2477 16.4512C63.5544 17.1334 62.8124 17.7644 62.0277 18.3392C61.2872 18.9704 60.5026 19.5479 59.6797 20.0672C60.3734 19.3841 61.1153 18.7518 61.8997 18.1752C62.6408 17.5459 63.4254 16.9698 64.2477 16.4512Z" fill="#E0E0E0"/>
<path id="Vector_8" d="M64.2157 45.5424L59.5117 41.7344L64.2157 45.5424Z" fill="white"/>
<path id="Vector_9" d="M59.5117 41.7344C60.3525 42.2867 61.1544 42.8961 61.9117 43.5584C62.7189 44.1723 63.4834 44.8405 64.1997 45.5584C63.3578 45.0076 62.5558 44.3981 61.7997 43.7344C60.9925 43.1205 60.2281 42.4522 59.5117 41.7344Z" fill="#E0E0E0"/>
<path id="Vector_10" d="M22.084 45.5388C22.771 44.8651 23.5048 44.2408 24.28 43.6708C25.0112 43.0458 25.788 42.4762 26.604 41.9668C25.9145 42.6408 25.1779 43.2651 24.4 43.8348C23.6713 44.4595 22.8972 45.0291 22.084 45.5388Z" fill="#E0E0E0"/>
<path id="Vector_11" d="M33.3555 26.8792V34.1992H54.1395V26.8792H33.3555Z" fill="#E0E0E0"/>
<path id="Vector_12" d="M108.787 43.1641H85.8789V76.3721H108.787V43.1641Z" fill="#E0E0E0"/>
<path id="Vector_13" d="M107.64 43.1641H84.7324V76.3721H107.64V43.1641Z" fill="#F5F5F5"/>
<path id="Vector_14" d="M104.792 46.7598H87.5762V72.7718H104.792V46.7598Z" fill="white"/>
<path id="Vector_15" d="M104.799 72.7706V72.6426C104.799 72.5586 104.799 72.4346 104.799 72.2746C104.799 71.9466 104.799 71.4746 104.799 70.8466C104.799 69.6026 104.799 67.7866 104.799 65.4906C104.799 60.9026 104.799 54.4066 104.771 46.7586L104.827 46.8146H87.6272L87.6912 46.7546C87.6912 56.5666 87.6912 65.6146 87.6912 72.7546L87.6392 72.7066L100.171 72.7306H103.635H104.543H104.799H104.499H103.599H100.147L87.5832 72.7586H87.5352V72.7066C87.5352 65.5546 87.5352 56.5066 87.5352 46.7066V46.6426H87.5992H104.799H104.859V46.6986C104.859 54.3626 104.835 60.8706 104.831 65.4666C104.831 67.7586 104.831 69.5706 104.831 70.8146C104.831 71.4306 104.831 71.9026 104.831 72.2266C104.831 72.3866 104.831 72.5066 104.831 72.5906C104.831 72.6746 104.799 72.7706 104.799 72.7706Z" fill="#E0E0E0"/>
<path id="Vector_16" d="M107.704 43.1641C107.588 43.3727 107.454 43.5708 107.304 43.7561C107.04 44.1121 106.66 44.5961 106.228 45.1201C105.796 45.6441 105.396 46.1081 105.096 46.4361C104.942 46.6217 104.774 46.7943 104.592 46.9521C104.722 46.7493 104.869 46.5579 105.032 46.3801L106.132 45.0401L107.236 43.7001C107.377 43.5092 107.534 43.3299 107.704 43.1641Z" fill="#E0E0E0"/>
<path id="Vector_17" d="M104.879 72.6875C105.736 74.0483 106.744 75.3082 107.883 76.4435L104.879 72.6875Z" fill="white"/>
<path id="Vector_18" d="M107.883 76.4435C107.691 76.3045 107.516 76.1449 107.359 75.9675C106.959 75.5625 106.581 75.1366 106.227 74.6915C105.871 74.2464 105.539 73.7831 105.231 73.3035C105.094 73.1103 104.976 72.9039 104.879 72.6875C105.035 72.8657 105.176 73.0556 105.303 73.2555C105.555 73.6075 105.911 74.0955 106.323 74.6115C106.735 75.1275 107.123 75.5835 107.423 75.9075C107.589 76.0745 107.743 76.2537 107.883 76.4435Z" fill="#E0E0E0"/>
<path id="Vector_19" d="M84.7285 76.3427L87.7285 72.6387L84.7285 76.3427Z" fill="white"/>
<path id="Vector_20" d="M87.7285 72.6387C87.2785 73.2947 86.7938 73.9262 86.2765 74.5307C85.7917 75.1606 85.275 75.7654 84.7285 76.3427C85.1786 75.6867 85.6633 75.0551 86.1805 74.4507C86.6654 73.8207 87.182 73.216 87.7285 72.6387Z" fill="#E0E0E0"/>
<path id="Vector_21" d="M84.7324 43.1641C85.2499 43.7164 85.736 44.2973 86.1884 44.9041C86.6734 45.4864 87.1273 46.094 87.5484 46.7241C87.0307 46.1694 86.5434 45.5872 86.0884 44.9801C85.603 44.4004 85.1503 43.7941 84.7324 43.1641Z" fill="#E0E0E0"/>
<path id="Vector_22" d="M99.4281 52.0391H93.6641V68.4071H99.4281V52.0391Z" fill="#E0E0E0"/>
<path id="Vector_23" d="M105.892 106.475H64.7598V184.231H105.892V106.475Z" fill="#E0E0E0"/>
<path id="Vector_24" d="M93.6828 106.475H52.5508V184.231H93.6828V106.475Z" fill="#F5F5F5"/>
<path id="Vector_25" d="M90.6596 122.478H55.3516V110.15H90.6596V122.478ZM55.7836 122.042H90.2236V110.586H55.7836V122.042Z" fill="#E0E0E0"/>
<path id="Vector_26" d="M66.543 110.371H79.943V110.847C79.943 111.372 79.7344 111.876 79.363 112.247C78.9917 112.618 78.4881 112.827 77.963 112.827H68.523C67.9978 112.827 67.4942 112.618 67.1229 112.247C66.7516 111.876 66.543 111.372 66.543 110.847V110.371Z" fill="#EBEBEB"/>
<path id="Vector_27" d="M90.6596 138.135H55.3516V125.807H90.6596V138.135ZM55.7836 137.699H90.2236V126.243H55.7836V137.699Z" fill="#E0E0E0"/>
<path id="Vector_28" d="M66.543 126.027H79.943V126.503C79.943 127.028 79.7344 127.532 79.363 127.903C78.9917 128.275 78.4881 128.483 77.963 128.483H68.523C67.9978 128.483 67.4942 128.275 67.1229 127.903C66.7516 127.532 66.543 127.028 66.543 126.503V126.027Z" fill="#EBEBEB"/>
<path id="Vector_29" d="M90.6596 153.791H55.3516V141.467H90.6596V153.791ZM55.7836 153.359H90.2236V141.899H55.7836V153.359Z" fill="#E0E0E0"/>
<path id="Vector_30" d="M66.543 141.684H79.943V142.16C79.943 142.685 79.7344 143.188 79.363 143.56C78.9917 143.931 78.4881 144.14 77.963 144.14H68.523C67.9978 144.14 67.4942 143.931 67.1229 143.56C66.7516 143.188 66.543 142.685 66.543 142.16V141.684Z" fill="#EBEBEB"/>
<path id="Vector_31" d="M90.6596 169.447H55.3516V157.123H90.6596V169.447ZM55.7836 169.015H90.2236V157.555H55.7836V169.015Z" fill="#E0E0E0"/>
<path id="Vector_32" d="M66.543 157.34H79.943V157.816C79.943 158.341 79.7344 158.845 79.363 159.216C78.9917 159.587 78.4881 159.796 77.963 159.796H68.523C67.9978 159.796 67.4942 159.587 67.1229 159.216C66.7516 158.845 66.543 158.341 66.543 157.816V157.34Z" fill="#EBEBEB"/>
<path id="Vector_33" d="M95.4085 103.562H50.7285V107.434H95.4085V103.562Z" fill="#EBEBEB"/>
<path id="Vector_34" d="M108.844 103.562H95.4082V107.434H108.844V103.562Z" fill="#E0E0E0"/>
<path id="Vector_35" d="M54.7108 184.227H52.5508V188.199H54.7108V184.227Z" fill="#E0E0E0"/>
<path id="Vector_36" d="M68.0682 184.227H65.9082V188.199H68.0682V184.227Z" fill="#E0E0E0"/>
<path id="Vector_37" d="M92.4647 184.227H90.3047V188.199H92.4647V184.227Z" fill="#E0E0E0"/>
<path id="Vector_38" d="M104.664 184.227H102.504V188.199H104.664V184.227Z" fill="#E0E0E0"/>
<path id="Vector_39" d="M90.6367 93.2227L94.8007 103.875L92.2127 103.863L90.1367 97.3147L90.6367 93.2227Z" fill="#E0E0E0"/>
<path id="Vector_40" d="M76.4203 83.3828L74.9883 103.791L89.7643 104.099L91.4283 83.3828H76.4203Z" fill="#EBEBEB"/>
<path id="Vector_41" d="M77.8951 85.0238L76.7031 102.012L87.6911 102.528L89.2231 84.9238L77.8951 85.0238Z" fill="#FAFAFA"/>
<path id="Vector_42" d="M80.308 87.4277L79.416 99.3677H85.476L86.544 87.4277H80.308Z" fill="#E0E0E0"/>
<path id="Vector_43" d="M183.217 13.6914H128.969V111.143H183.217V13.6914Z" fill="#EBEBEB"/>
<path id="Vector_44" d="M180.493 16.5195H131.137V108.244H180.493V16.5195Z" fill="#FAFAFA"/>
<path id="Vector_45" d="M180.489 17.5995L131.137 80.3795V16.5195H180.489V17.5995Z" fill="#F5F5F5"/>
<path id="Vector_46" d="M181.561 42.9023H131.137V43.8783H181.561V42.9023Z" fill="#EBEBEB"/>
<path id="Vector_47" d="M181.561 64.748H131.137V65.724H181.561V64.748Z" fill="#EBEBEB"/>
<path id="Vector_48" d="M181.561 86.5918H131.137V87.5678H181.561V86.5918Z" fill="#EBEBEB"/>
<path id="Vector_49" d="M154.564 43.3917V110.844H157.056V43.3917H154.564Z" fill="#EBEBEB"/>
<path id="Vector_50" d="M141.769 16.5195H140.641V43.3955H141.769V16.5195Z" fill="#EBEBEB"/>
<path id="Vector_51" d="M151.507 16.5195H150.379V43.3955H151.507V16.5195Z" fill="#EBEBEB"/>
<path id="Vector_52" d="M161.253 16.5195H160.125V43.3955H161.253V16.5195Z" fill="#EBEBEB"/>
<path id="Vector_53" d="M170.995 16.5195H169.867V43.3955H170.995V16.5195Z" fill="#EBEBEB"/>
<path id="Vector_54" d="M128.968 12.0391H126.672V111.747H128.968V12.0391Z" fill="#F5F5F5"/>
<path id="Vector_55" d="M185.511 112.023L183.215 111.147V12.0391H185.511V112.023Z" fill="#E0E0E0"/>
<path id="Vector_56" d="M185.508 11.0352H126.672V13.6952H185.508V11.0352Z" fill="#E0E0E0"/>
<path id="Vector_57" d="M187.063 112.352H125.043V114.828H187.063V112.352Z" fill="#E0E0E0"/>
<path id="Vector_58" d="M183.215 111.146L187.063 112.35H125.043L128.967 111.146H183.215Z" fill="#EBEBEB"/>
<path id="Vector_59" d="M20.5322 119.223C17.6842 119.283 15.9602 122.535 15.8162 125.383C15.6722 128.231 16.4442 131.139 15.7442 133.899C14.8562 137.411 11.7442 140.047 10.9442 143.575C9.99224 147.735 12.4522 151.883 12.7682 156.143C12.9202 158.211 12.5642 160.331 13.0482 162.351C13.5005 164.048 14.5063 165.545 15.9062 166.606C17.3061 167.667 19.02 168.23 20.7762 168.207C22.5249 168.089 24.1844 167.392 25.4926 166.226C26.8009 165.059 27.6832 163.49 28.0002 161.767C28.5122 158.543 26.9402 155.219 27.6282 152.027C28.1402 149.667 29.8482 147.603 29.8802 145.191C29.9162 142.319 27.5762 139.951 27.0282 137.131C26.4802 134.311 27.7762 131.471 27.8522 128.599C27.9842 123.447 25.6602 119.523 20.5162 119.223" fill="#EBEBEB"/>
<path id="Vector_60" d="M21.9455 132.672C21.9561 132.825 21.9561 132.979 21.9455 133.132C21.9455 133.452 21.8975 133.888 21.8615 134.436C21.7735 135.596 21.6535 137.236 21.5055 139.236C21.2015 143.292 20.7855 148.896 20.3695 155.088C19.9535 161.28 19.6015 166.9 19.3455 170.96C19.2215 172.96 19.1215 174.608 19.0495 175.76C19.0095 176.308 18.9815 176.744 18.9575 177.068C18.9516 177.221 18.9356 177.373 18.9095 177.524C18.8948 177.371 18.8948 177.217 18.9095 177.064C18.9095 176.744 18.9335 176.304 18.9495 175.756C19.0015 174.592 19.0735 172.956 19.1615 170.956C19.3575 166.888 19.6695 161.276 20.0895 155.08C20.5095 148.884 20.9535 143.284 21.2895 139.232C21.4735 137.232 21.6255 135.592 21.7295 134.432C21.7895 133.884 21.8335 133.452 21.8655 133.128C21.8813 132.974 21.908 132.822 21.9455 132.672Z" fill="#E0E0E0"/>
<path id="Vector_61" d="M22.9593 188.127H16.9153C15.3088 188.127 13.7678 187.49 12.6303 186.355C11.4928 185.221 10.8516 183.682 10.8473 182.075L10.8473 169.963H29.0273L29.0273 182.075C29.0231 183.682 28.3819 185.221 27.2444 186.355C26.1069 187.49 24.5659 188.127 22.9593 188.127Z" fill="#E0E0E0"/>
<path id="Vector_62" d="M10.8477 174.418C10.9511 174.477 11.0477 174.547 11.1357 174.626L11.9357 175.254L14.7357 177.546H14.6357L19.8797 174.346L19.9357 174.314L19.9917 174.35L24.8717 177.55H24.7717L27.8397 175.262L28.7077 174.63C28.8063 174.553 28.9121 174.484 29.0237 174.426C28.9366 174.517 28.8416 174.601 28.7397 174.674L27.9037 175.342L24.8797 177.69L24.8277 177.73L24.7757 177.694L19.8757 174.494H19.9997L14.7357 177.67L14.6837 177.702L14.6357 177.662L11.8837 175.314L11.1237 174.65C11.026 174.58 10.9338 174.503 10.8477 174.418Z" fill="white"/>
<path id="Vector_63" d="M10.8477 172.598C10.9511 172.657 11.0477 172.726 11.1357 172.806L11.9357 173.434L14.7357 175.726H14.6357L19.8797 172.526L19.9357 172.49L19.9917 172.526L24.8717 175.726H24.7717L27.8397 173.438L28.7117 172.798C28.8098 172.719 28.9156 172.649 29.0277 172.59C28.9429 172.685 28.8476 172.769 28.7437 172.842L27.9077 173.506L24.8837 175.858L24.8317 175.894L24.7797 175.862L19.8797 172.662H19.9997L14.7357 175.838L14.6837 175.87L14.6357 175.83L11.8837 173.478L11.1237 172.814C11.0255 172.75 10.9332 172.678 10.8477 172.598Z" fill="white"/>
<path id="Vector_64" d="M10.8477 176.268C10.9511 176.326 11.0477 176.396 11.1357 176.476L11.9357 177.104L14.7357 179.396H14.6357L19.8797 176.196L19.9357 176.164L19.9917 176.2L24.8717 179.4H24.7717L27.8397 177.112L28.7077 176.484C28.8058 176.404 28.9116 176.335 29.0237 176.276C28.938 176.368 28.8428 176.452 28.7397 176.524L27.9077 177.2L24.8837 179.548L24.8317 179.588L24.7797 179.552L19.8797 176.356H19.9997L14.7357 179.528L14.6837 179.56L14.6357 179.52L11.8637 177.2L11.1037 176.536C11.0116 176.453 10.926 176.364 10.8477 176.268Z" fill="white"/>
</g>
<g id="freepik--Floor--inject-303">
<path id="Vector_65" d="M189.149 187.62C189.149 187.68 150.409 187.724 102.633 187.724C54.8574 187.724 16.1094 187.68 16.1094 187.62C16.1094 187.56 54.8374 187.516 102.633 187.516C150.429 187.516 189.149 187.564 189.149 187.62Z" fill="#263238"/>
</g>
<g id="freepik--character-2--inject-303">
<path id="Vector_66" d="M109.671 27.0527C108.871 27.6441 108.03 28.1788 107.155 28.6527C106.316 29.1835 105.44 29.6553 104.535 30.0647C105.335 29.4728 106.176 28.9381 107.051 28.4647C107.891 27.9349 108.767 27.4631 109.671 27.0527Z" fill="#263238"/>
<path id="Vector_67" d="M103.283 20.3438C102.715 21.5673 102.082 22.7597 101.387 23.9158C100.755 25.1082 100.062 26.2671 99.3105 27.3878C99.2625 27.3598 100.111 25.7597 101.207 23.8117C101.838 22.6206 102.531 21.4631 103.283 20.3438Z" fill="#263238"/>
<path id="Vector_68" d="M95.0709 18.2598C95.138 19.5389 95.138 20.8206 95.0709 22.0998C95.0638 23.3802 94.989 24.6593 94.8469 25.9318C94.775 24.6528 94.775 23.3708 94.8469 22.0918C94.8494 20.8112 94.9242 19.5319 95.0709 18.2598Z" fill="#263238"/>
<path id="Vector_69" d="M88.5794 26.5681C87.9077 26.1076 87.2761 25.5911 86.6914 25.0241C86.0608 24.5091 85.4747 23.9418 84.9395 23.3281C85.6124 23.7871 86.2441 24.3037 86.8275 24.8721C87.4593 25.3859 88.0455 25.9533 88.5794 26.5681Z" fill="#263238"/>
<path id="Vector_70" d="M84.2592 30.8884C84.0042 30.8869 83.7513 30.8422 83.5112 30.7564C82.9231 30.5896 82.3545 30.3603 81.8152 30.0724C81.2765 29.7843 80.7708 29.4382 80.3072 29.0404C80.1035 28.8863 79.9265 28.6998 79.7832 28.4884C79.8272 28.4404 80.6712 29.2284 81.9152 29.8884C83.1592 30.5484 84.2752 30.8244 84.2592 30.8884Z" fill="#263238"/>
<path id="Vector_71" d="M161.398 111.559L164.35 114.531C164.35 114.531 165.622 117.803 166.098 118.699C167.082 120.543 167.246 120.459 167.442 120.299C167.966 119.899 165.842 116.987 166.642 117.347C167.442 117.707 168.834 121.203 169.362 120.759C170.054 120.175 167.762 117.159 167.598 116.907C167.434 116.655 167.806 116.375 167.95 116.627C168.158 116.987 170.434 120.719 171.118 120.155C171.518 119.839 170.874 119.211 170.874 119.211C170.874 119.211 168.474 115.875 168.818 115.611C169.162 115.347 170.622 117.259 171.074 117.939C171.526 118.619 172.018 118.671 172.15 118.227C172.242 117.927 170.914 115.827 170.454 115.151C169.994 114.475 168.702 112.699 170.054 113.063C171.406 113.427 172.59 113.195 172.854 112.911C172.912 112.84 172.946 112.752 172.95 112.661C172.955 112.569 172.931 112.478 172.882 112.401C172.832 112.324 172.759 112.265 172.674 112.231C172.589 112.198 172.495 112.192 172.406 112.215C171.933 112.246 171.458 112.212 170.994 112.115C170.618 112.05 170.256 111.921 169.922 111.735C169.522 111.515 169.218 111.315 168.95 111.139L164.506 106.623" fill="#936754"/>
<path id="Vector_72" d="M130.771 44.1152C128.619 44.9152 126.707 48.3792 126.627 50.8672C126.583 52.3192 126.823 54.0032 125.775 55.0032C124.855 55.8832 123.375 55.7632 122.215 56.2712C121.58 56.5626 121.045 57.0357 120.678 57.6309C120.312 58.2261 120.13 58.9166 120.155 59.6152C120.199 60.3752 120.491 61.1312 120.351 61.8832C120.031 63.5712 117.863 64.1192 116.807 65.4832C115.839 66.7272 115.955 68.5792 116.763 69.9272C117.571 71.2752 118.955 72.1912 120.391 72.8392C122.621 73.8446 125.057 74.3066 127.499 74.1872C129.239 74.0992 131.099 73.6472 132.259 72.3592C133.759 70.7152 133.759 68.2432 133.731 66.0152C133.649 59.0696 134.15 52.1293 135.227 45.2672" fill="#263238"/>
<path id="Vector_73" d="M100.526 40.3475L97.9184 37.0675C97.9184 37.0675 97.0144 33.6755 96.6424 32.7315C95.8704 30.7915 95.6944 30.8555 95.4824 30.9835C94.9184 31.3315 96.7104 34.4515 95.9384 34.0035C95.1664 33.5555 94.1864 29.9315 93.6104 30.3155C92.8584 30.8155 94.8104 34.0515 94.9384 34.3395C95.0664 34.6275 94.6744 34.8395 94.5584 34.5755C94.3904 34.1755 92.5584 30.2355 91.7984 30.7235C91.3984 30.9915 91.9384 31.6875 91.9384 31.6875C91.9384 31.6875 93.9384 35.2635 93.5824 35.4795C93.2264 35.6955 91.9824 33.6395 91.5824 32.9155C91.1824 32.1915 90.7264 32.0835 90.5464 32.5155C90.4224 32.8035 91.5064 35.0515 91.8904 35.7595C92.2744 36.4675 93.3624 38.3875 92.0544 37.8755C90.7464 37.3635 89.5504 37.4755 89.2544 37.7195C89.1899 37.7841 89.1473 37.8674 89.1326 37.9575C89.1179 38.0476 89.1319 38.14 89.1726 38.2218C89.2132 38.3035 89.2785 38.3704 89.3592 38.4131C89.4399 38.4558 89.532 38.472 89.6224 38.4595C90.0959 38.481 90.5643 38.5672 91.0144 38.7155C91.3834 38.8172 91.7323 38.9809 92.0464 39.1995C92.4064 39.4595 92.7024 39.6955 92.9464 39.8995L96.8624 44.8755" fill="#936754"/>
<path id="Vector_74" d="M166.16 104.8C165.332 102.716 147.76 72.6996 147.76 72.6996C147.232 71.1196 137.58 66.1076 137.58 66.1076C137.58 66.1076 121.256 58.8556 119.5 56.5596C117.744 54.2636 109.144 43.7356 107.388 42.6836C106.225 42.0243 104.932 41.6271 103.6 41.5196L99.344 37.5996L93.916 42.0396C94.444 42.3916 96.716 46.7956 96.716 46.7956C96.716 46.7956 97.172 49.6316 98.404 51.5596C99.636 53.4876 118.556 71.6916 118.556 71.6916C118.556 71.6916 117.908 87.6036 118.42 90.9716C119.176 95.9196 122.684 97.9236 122.684 97.9236C122.94 98.4876 140.972 97.0636 140.972 97.0636C140.972 97.0636 144.268 96.6876 144.268 93.6356L144.508 90.0356C146.544 94.0756 152.784 106.384 153.916 107.828C155.276 109.56 159.96 111.232 159.96 111.232L162.828 113.196L167.504 109.644C167.185 107.996 166.736 106.376 166.16 104.8Z" fill="#0872BA"/>
<path id="Vector_75" d="M123.422 83.0362C123.022 83.4362 122.17 83.2442 121.546 82.6042C120.922 81.9642 120.746 81.1242 121.166 80.7202C121.586 80.3162 122.418 80.5122 123.038 81.1522C123.658 81.7922 123.83 82.6362 123.422 83.0362Z" fill="#FAFAFA"/>
<path id="Vector_76" d="M127.082 75.8405C126.546 75.6285 126.406 74.7205 126.766 73.8125C127.126 72.9045 127.85 72.3445 128.386 72.5565C128.922 72.7685 129.062 73.6725 128.702 74.5805C128.342 75.4885 127.618 76.0525 127.082 75.8405Z" fill="#FAFAFA"/>
<path id="Vector_77" d="M123.771 68.0921C123.303 68.4281 122.571 68.1881 122.103 67.5561C121.635 66.9241 121.655 66.1441 122.123 65.8041C122.591 65.4641 123.323 65.7081 123.791 66.3401C124.259 66.9721 124.239 67.7521 123.771 68.0921Z" fill="#FAFAFA"/>
<path id="Vector_78" d="M116.292 60.635C116.399 60.8727 116.43 61.1375 116.38 61.3934C116.331 61.6492 116.205 61.8837 116.017 62.065C115.83 62.2463 115.592 62.3655 115.335 62.4065C115.077 62.4474 114.814 62.4081 114.579 62.2939C114.345 62.1797 114.152 61.9962 114.026 61.7682C113.9 61.5402 113.847 61.279 113.874 61.0199C113.902 60.7608 114.009 60.5165 114.18 60.3203C114.351 60.124 114.579 59.9853 114.832 59.923C115.12 59.8248 115.435 59.8445 115.709 59.9779C115.982 60.1113 116.192 60.3475 116.292 60.635Z" fill="#FAFAFA"/>
<path id="Vector_79" d="M113.511 54.2552C113.246 54.2952 112.975 54.2521 112.735 54.1316C112.496 54.0112 112.3 53.8195 112.174 53.5829C112.048 53.3463 111.998 53.0764 112.032 52.8105C112.066 52.5445 112.181 52.2956 112.362 52.098C112.543 51.9004 112.781 51.7638 113.043 51.7071C113.305 51.6504 113.578 51.6763 113.825 51.7813C114.072 51.8863 114.28 52.0652 114.421 52.2933C114.561 52.5215 114.628 52.7877 114.611 53.0552C114.619 53.3588 114.508 53.6535 114.303 53.8774C114.098 54.1012 113.814 54.2367 113.511 54.2552Z" fill="#FAFAFA"/>
<path id="Vector_80" d="M106.774 54.9637C106.686 55.5317 105.902 55.8837 105.026 55.7637C104.15 55.6437 103.51 55.0597 103.598 54.4877C103.686 53.9157 104.466 53.5677 105.342 53.6877C106.218 53.8077 106.862 54.3997 106.774 54.9637Z" fill="#FAFAFA"/>
<path id="Vector_81" d="M103.851 46.2639C103.651 46.2348 103.465 46.1475 103.315 46.0129C103.165 45.8783 103.058 45.7025 103.007 45.5074C102.957 45.3122 102.965 45.1065 103.031 44.916C103.097 44.7255 103.217 44.5587 103.378 44.4364C103.538 44.3142 103.731 44.2419 103.932 44.2288C104.133 44.2156 104.333 44.2621 104.508 44.3624C104.683 44.4627 104.824 44.6123 104.915 44.7926C105.005 44.9729 105.04 45.1758 105.015 45.3759C104.978 45.6479 104.835 45.8942 104.617 46.0607C104.398 46.2272 104.123 46.3002 103.851 46.2639Z" fill="#FAFAFA"/>
<path id="Vector_82" d="M98.3992 44.6081C98.2154 44.72 98.0023 44.7743 97.7874 44.7643C97.5724 44.7542 97.3654 44.6802 97.1928 44.5517C97.0202 44.4232 96.8899 44.246 96.8187 44.043C96.7475 43.8399 96.7385 43.6202 96.793 43.412C96.8475 43.2039 96.9629 43.0167 97.1245 42.8746C97.286 42.7325 97.4864 42.6418 97.6998 42.6143C97.9132 42.5868 98.13 42.6237 98.3223 42.7202C98.5146 42.8168 98.6737 42.9685 98.7792 43.1561C98.9206 43.3992 98.96 43.6884 98.8888 43.9605C98.8176 44.2326 98.6416 44.4654 98.3992 44.6081Z" fill="#FAFAFA"/>
<path id="Vector_83" d="M129.879 64.7634C129.768 64.9174 129.615 65.0357 129.438 65.1037C129.261 65.1718 129.069 65.1867 128.883 65.1466C128.698 65.1064 128.529 65.013 128.396 64.8778C128.263 64.7426 128.173 64.5716 128.136 64.3857C128.099 64.1998 128.117 64.0071 128.188 63.8315C128.26 63.6558 128.381 63.5048 128.536 63.3971C128.692 63.2893 128.876 63.2295 129.066 63.2249C129.255 63.2203 129.442 63.2713 129.603 63.3714C129.824 63.5195 129.977 63.7493 130.029 64.0103C130.081 64.2713 130.027 64.5422 129.879 64.7634Z" fill="#FAFAFA"/>
<path id="Vector_84" d="M137.007 81.7348C136.819 81.8901 136.588 81.9843 136.345 82.005C136.102 82.0257 135.858 81.9719 135.646 81.8506C135.435 81.7294 135.265 81.5465 135.16 81.3264C135.055 81.1062 135.019 80.8593 135.058 80.6185C135.097 80.3777 135.208 80.1544 135.377 79.9784C135.546 79.8024 135.765 79.6821 136.004 79.6335C136.243 79.5848 136.491 79.6102 136.715 79.7062C136.939 79.8022 137.129 79.9642 137.259 80.1708C137.432 80.4119 137.503 80.7117 137.455 81.0047C137.408 81.2977 137.247 81.5602 137.007 81.7348Z" fill="#FAFAFA"/>
<path id="Vector_85" d="M141.483 86.7279C141.123 87.1759 140.343 87.1519 139.739 86.6719C139.135 86.1919 138.939 85.4359 139.299 84.9839C139.659 84.5319 140.435 84.5599 141.039 85.0439C141.643 85.5279 141.843 86.2799 141.483 86.7279Z" fill="#FAFAFA"/>
<path id="Vector_86" d="M127.735 96.2592C127.507 96.308 127.269 96.2863 127.053 96.1972C126.837 96.108 126.653 95.9555 126.525 95.7598C126.398 95.564 126.333 95.3342 126.338 95.1007C126.344 94.8671 126.42 94.6407 126.557 94.4514C126.694 94.2621 126.885 94.1186 127.105 94.04C127.325 93.9614 127.564 93.9513 127.79 94.0111C128.015 94.0708 128.218 94.1976 128.37 94.3747C128.523 94.5518 128.618 94.771 128.643 95.0032C128.688 95.29 128.618 95.583 128.448 95.8183C128.278 96.0536 128.022 96.2121 127.735 96.2592Z" fill="#FAFAFA"/>
<path id="Vector_87" d="M130.879 88.7762C130.479 89.1762 129.575 88.9442 128.879 88.2442C128.183 87.5442 127.943 86.6442 128.347 86.2442C128.751 85.8442 129.651 86.0762 130.347 86.7762C131.043 87.4762 131.283 88.3722 130.879 88.7762Z" fill="#FAFAFA"/>
<path id="Vector_88" d="M122.001 93.2195C121.425 93.2195 120.933 92.5475 120.897 91.6715C120.861 90.7955 121.297 90.0715 121.877 90.0475C122.457 90.0235 122.945 90.7155 122.977 91.5915C123.009 92.4675 122.553 93.1995 122.001 93.2195Z" fill="#FAFAFA"/>
<path id="Vector_89" d="M140.398 95.888C139.934 96.232 139.102 95.888 138.53 95.124C137.958 94.36 137.874 93.464 138.338 93.124C138.802 92.784 139.634 93.124 140.202 93.888C140.77 94.652 140.85 95.544 140.398 95.888Z" fill="#FAFAFA"/>
<path id="Vector_90" d="M148.767 88.2753C148.399 88.7153 147.591 88.6473 146.959 88.1233C146.327 87.5993 146.115 86.8153 146.483 86.3713C146.851 85.9273 147.659 85.9953 148.291 86.5233C148.923 87.0513 149.135 87.8313 148.767 88.2753Z" fill="#FAFAFA"/>
<path id="Vector_91" d="M153.112 88.7989C152.552 88.6589 152.264 87.8909 152.468 87.0829C152.672 86.2749 153.288 85.7309 153.844 85.8829C154.4 86.0349 154.692 86.7909 154.488 87.5989C154.284 88.4069 153.668 88.9229 153.112 88.7989Z" fill="#FAFAFA"/>
<path id="Vector_92" d="M158.028 104.256C157.492 104.048 157.372 103.08 157.756 102.1C158.14 101.12 158.884 100.5 159.42 100.7C159.956 100.9 160.08 101.876 159.696 102.86C159.312 103.844 158.564 104.464 158.028 104.256Z" fill="#FAFAFA"/>
<path id="Vector_93" d="M164.775 109.201C164.571 109.392 164.306 109.504 164.027 109.517C163.748 109.542 163.469 109.481 163.227 109.341C162.992 109.203 162.804 108.998 162.687 108.753C162.557 108.507 162.523 108.222 162.591 107.953C162.632 107.812 162.709 107.684 162.815 107.583C162.921 107.482 163.052 107.411 163.195 107.377C163.563 107.296 163.947 107.356 164.273 107.545C164.598 107.734 164.842 108.038 164.955 108.397C164.997 108.535 165.002 108.681 164.971 108.822C164.939 108.963 164.872 109.093 164.775 109.201Z" fill="#FAFAFA"/>
<path id="Vector_94" d="M145.878 75.683C146.426 75.507 147.142 76.219 147.478 77.283C147.814 78.347 147.634 79.331 147.078 79.503C146.522 79.675 145.818 78.963 145.478 77.903C145.138 76.843 145.33 75.855 145.878 75.683Z" fill="#FAFAFA"/>
<path id="Vector_95" d="M162.152 111.164C162.603 111.715 163.158 112.173 163.784 112.512L162.152 111.164Z" fill="#455A64"/>
<path id="Vector_96" d="M163.784 112.511C163.426 112.436 163.096 112.258 162.836 111.999C162.534 111.791 162.297 111.501 162.152 111.163C162.2 111.123 162.524 111.471 162.952 111.835C163.38 112.199 163.812 112.459 163.784 112.511Z" fill="#263238"/>
<path id="Vector_97" d="M165.09 111.439C165.054 111.483 164.69 111.267 164.35 110.927C164.01 110.587 163.754 110.255 163.798 110.215C163.842 110.175 164.138 110.439 164.494 110.775C164.85 111.111 165.126 111.395 165.09 111.439Z" fill="#263238"/>
<path id="Vector_98" d="M166.351 110.523C166.307 110.559 166.043 110.331 165.791 109.983C165.539 109.635 165.391 109.315 165.451 109.287C165.511 109.259 165.711 109.523 165.959 109.863C166.207 110.203 166.399 110.483 166.351 110.523Z" fill="#263238"/>
<path id="Vector_99" d="M144.168 81.5312C144.271 81.9702 144.337 82.4171 144.364 82.8672C144.452 83.6952 144.54 84.8672 144.58 86.1152C144.62 87.3632 144.608 88.5392 144.58 89.3712C144.581 89.823 144.544 90.274 144.468 90.7193C144.427 90.2712 144.415 89.8209 144.432 89.3712C144.432 88.5392 144.432 87.3712 144.376 86.1232C144.32 84.8752 144.272 83.7232 144.22 82.8792C144.173 82.4315 144.156 81.9812 144.168 81.5312Z" fill="#263238"/>
<path id="Vector_100" d="M132.296 97.8725C132.096 97.8243 131.911 97.7297 131.756 97.5966C130.946 97.0123 130.387 96.1435 130.192 95.1646C130.135 94.9682 130.125 94.7613 130.164 94.5605C130.333 95.2047 130.587 95.8235 130.92 96.4005C131.311 96.9501 131.774 97.4451 132.296 97.8725Z" fill="#263238"/>
<path id="Vector_101" d="M134.248 95.2285C134.358 95.6372 134.358 96.0678 134.248 96.4765C134.21 96.8978 134.063 97.3018 133.82 97.6485C133.865 97.2437 133.938 96.8427 134.04 96.4485C134.08 96.0373 134.149 95.6295 134.248 95.2285Z" fill="#263238"/>
<path id="Vector_102" d="M96.756 44.5354C96.3274 44.0656 95.9493 43.5521 95.628 43.0034C95.2501 42.4913 94.9282 41.9401 94.668 41.3594C95.1009 41.8265 95.4806 42.3403 95.8 42.8914C96.1776 43.4029 96.4981 43.9542 96.756 44.5354Z" fill="#263238"/>
<path id="Vector_103" d="M98.3477 42.8596C97.9228 42.4664 97.5456 42.0247 97.2237 41.5436C96.8471 41.1024 96.5248 40.6176 96.2637 40.0996C96.6892 40.4936 97.0665 40.9367 97.3877 41.4196C97.7653 41.8586 98.0877 42.3422 98.3477 42.8596Z" fill="#263238"/>
<path id="Vector_104" d="M100.102 40.5988C99.7031 40.3775 99.3403 40.097 99.0258 39.7668C98.6692 39.4917 98.3552 39.1655 98.0938 38.7988C98.489 39.0105 98.8503 39.2802 99.1657 39.5988C99.5264 39.883 99.842 40.2202 100.102 40.5988Z" fill="#263238"/>
<path id="Vector_105" d="M129.2 185.135L129.116 180.483L137.832 180.271L138.028 187.071L137.488 187.119C135.088 187.311 125.264 187.919 123.644 187.483C121.824 186.987 129.2 185.135 129.2 185.135Z" fill="#0872BA"/>
<g id="Group" opacity="0.4">
<path id="Vector_106" d="M134.855 187.083C134.965 186.345 135.344 185.674 135.919 185.199C136.485 184.725 137.207 184.481 137.943 184.515L138.003 186.951L134.855 187.083Z" fill="black"/>
</g>
<path id="Vector_107" opacity="0.4" d="M125.598 186.172C125.598 186.172 123.018 186.972 123.354 187.404C123.69 187.836 133.638 187.572 138.018 187.076L137.998 186.884L126.398 187.284C126.398 187.284 126.102 186.18 125.598 186.172Z" fill="black"/>
<path id="Vector_108" d="M138.132 186.871C138.084 186.884 138.035 186.891 137.984 186.891L137.557 186.931L135.957 187.039C134.621 187.119 132.757 187.207 130.729 187.259C128.701 187.311 126.836 187.323 125.496 187.307L123.896 187.283H125.496C126.836 187.283 128.697 187.255 130.729 187.203C132.761 187.151 134.617 187.075 135.953 187.011L137.553 186.935H137.984L138.132 186.871Z" fill="#263238"/>
<path id="Vector_109" d="M126.399 187.408C126.278 186.872 125.969 186.397 125.527 186.068C125.802 186.16 126.032 186.351 126.171 186.604C126.341 186.836 126.422 187.122 126.399 187.408Z" fill="#263238"/>
<path id="Vector_110" d="M128.935 186.04C128.911 186.04 128.787 185.908 128.655 185.712C128.523 185.516 128.435 185.34 128.459 185.312C128.483 185.284 128.607 185.444 128.739 185.64C128.871 185.836 128.959 186.024 128.935 186.04Z" fill="#263238"/>
<path id="Vector_111" d="M129.632 185.648C129.632 185.672 129.476 185.584 129.32 185.452C129.164 185.32 129.06 185.196 129.076 185.172C129.092 185.148 129.236 185.24 129.388 185.372C129.54 185.504 129.652 185.628 129.632 185.648Z" fill="#263238"/>
<path id="Vector_112" d="M130.06 184.799C129.915 184.855 129.76 184.878 129.604 184.867C129.452 184.888 129.296 184.876 129.148 184.831C129.295 184.788 129.449 184.777 129.6 184.799C129.752 184.762 129.909 184.762 130.06 184.799Z" fill="#263238"/>
<path id="Vector_113" d="M130.196 184.232C130.048 184.336 129.872 184.392 129.692 184.392C129.516 184.424 129.334 184.404 129.168 184.336C129.338 184.303 129.511 184.287 129.684 184.288C129.853 184.254 130.024 184.236 130.196 184.232Z" fill="#263238"/>
<path id="Vector_114" d="M128.624 185.287C128.439 185.321 128.249 185.321 128.064 185.287C127.861 185.268 127.66 185.229 127.464 185.171C127.344 185.142 127.228 185.098 127.12 185.039C127.086 185.022 127.056 184.998 127.031 184.97C127.006 184.941 126.988 184.907 126.976 184.871C126.965 184.83 126.967 184.786 126.981 184.745C126.995 184.704 127.021 184.669 127.056 184.643C127.192 184.573 127.342 184.535 127.495 184.53C127.648 184.525 127.8 184.554 127.94 184.615C128.08 184.675 128.205 184.767 128.306 184.881C128.407 184.996 128.482 185.132 128.524 185.279C128.54 185.328 128.547 185.38 128.544 185.431C128.482 185.26 128.391 185.1 128.276 184.959C128.144 184.817 127.975 184.714 127.788 184.663C127.679 184.628 127.564 184.615 127.45 184.626C127.336 184.636 127.225 184.669 127.124 184.723C127.036 184.791 127.072 184.895 127.172 184.951C127.273 185.005 127.381 185.048 127.492 185.079C127.682 185.139 127.875 185.184 128.072 185.215C128.4 185.275 128.624 185.267 128.624 185.287Z" fill="#263238"/>
<path id="Vector_115" d="M128.48 185.321C128.405 185.202 128.378 185.059 128.404 184.921C128.421 184.778 128.471 184.641 128.548 184.521C128.593 184.437 128.659 184.366 128.738 184.314C128.818 184.262 128.91 184.232 129.004 184.225C129.062 184.235 129.113 184.268 129.147 184.316C129.18 184.364 129.194 184.423 129.184 184.481C129.174 184.57 129.144 184.656 129.096 184.733C129.025 184.857 128.939 184.973 128.84 185.077C128.668 185.253 128.532 185.325 128.524 185.313C128.516 185.301 128.636 185.209 128.784 185.029C128.873 184.923 128.949 184.807 129.012 184.685C129.084 184.565 129.132 184.353 129.012 184.329C128.892 184.305 128.728 184.465 128.648 184.577C128.573 184.688 128.521 184.813 128.496 184.945C128.478 185.069 128.472 185.195 128.48 185.321Z" fill="#263238"/>
<path id="Vector_116" d="M137.896 184.491C137.896 184.491 137.644 184.491 137.252 184.531C136.74 184.602 136.259 184.815 135.863 185.147C135.468 185.479 135.174 185.916 135.016 186.407C134.955 186.614 134.906 186.823 134.868 187.035C134.857 186.977 134.857 186.917 134.868 186.859C134.881 186.7 134.909 186.542 134.952 186.387C135.097 185.871 135.394 185.41 135.804 185.063C136.214 184.72 136.719 184.509 137.252 184.459C137.411 184.441 137.572 184.441 137.732 184.459C137.787 184.462 137.843 184.473 137.896 184.491Z" fill="#263238"/>
<path id="Vector_117" d="M136.9 180.889C136.977 181.482 137.017 182.079 137.02 182.677C137.056 183.273 137.056 183.872 137.02 184.469C136.945 183.876 136.904 183.279 136.9 182.681C136.867 182.084 136.867 181.486 136.9 180.889Z" fill="#263238"/>
<path id="Vector_118" d="M133.735 186.264C133.322 186.373 132.895 186.427 132.468 186.424C132.04 186.456 131.609 186.431 131.188 186.352C131.187 186.32 131.76 186.352 132.464 186.316C133.168 186.28 133.731 186.232 133.735 186.264Z" fill="#263238"/>
<path id="Vector_119" d="M135.443 186.219C135.463 186.239 135.399 186.339 135.343 186.471C135.287 186.603 135.263 186.719 135.231 186.719C135.199 186.719 135.183 186.583 135.231 186.431C135.279 186.279 135.423 186.195 135.443 186.219Z" fill="#263238"/>
<path id="Vector_120" d="M136.068 185.4C136.088 185.42 136.036 185.512 135.948 185.608C135.86 185.704 135.772 185.76 135.748 185.74C135.724 185.72 135.784 185.628 135.872 185.536C135.96 185.444 136.048 185.38 136.068 185.4Z" fill="#263238"/>
<path id="Vector_121" d="M136.979 185.013C136.979 185.041 136.859 185.045 136.731 185.093C136.603 185.141 136.515 185.213 136.491 185.193C136.467 185.173 136.535 185.049 136.695 184.993C136.855 184.937 136.987 184.985 136.979 185.013Z" fill="#263238"/>
<path id="Vector_122" d="M137.631 184.824C137.631 184.848 137.591 184.896 137.519 184.924C137.447 184.952 137.383 184.956 137.371 184.924C137.359 184.892 137.407 184.848 137.479 184.82C137.551 184.792 137.619 184.8 137.631 184.824Z" fill="#263238"/>
<path id="Vector_123" d="M149.827 184.844L149.143 180.24L157.759 178.904L158.831 185.628L158.303 185.744C155.947 186.244 146.303 188.144 144.623 187.892C142.767 187.628 149.827 184.844 149.827 184.844Z" fill="#0872BA"/>
<g id="Group_2" opacity="0.4">
<path id="Vector_124" d="M155.699 186.044C155.711 185.301 155.996 184.589 156.499 184.044C156.999 183.503 157.682 183.167 158.415 183.104L158.791 185.504L155.699 186.044Z" fill="black"/>
</g>
<path id="Vector_125" opacity="0.4" d="M146.398 186.332C146.398 186.332 143.946 187.472 144.33 187.844C144.714 188.216 154.554 186.684 158.83 185.628L158.786 185.436L147.33 187.324C147.33 187.324 146.902 186.276 146.398 186.332Z" fill="black"/>
<path id="Vector_126" d="M158.923 185.408C158.876 185.428 158.826 185.442 158.775 185.448L158.355 185.54L156.799 185.852C155.487 186.108 153.663 186.432 151.647 186.748C149.631 187.064 147.791 187.312 146.447 187.472L144.871 187.652L144.443 187.692H144.291L144.439 187.664L144.867 187.604L146.439 187.392C147.763 187.212 149.595 186.952 151.615 186.636C153.635 186.32 155.455 186.004 156.771 185.772L158.331 185.492L158.755 185.42L158.923 185.408Z" fill="#263238"/>
<path id="Vector_127" d="M147.356 187.456C147.25 187.208 147.116 186.973 146.956 186.756C146.768 186.56 146.557 186.387 146.328 186.24C146.601 186.313 146.846 186.467 147.031 186.681C147.216 186.895 147.332 187.159 147.364 187.44L147.356 187.456Z" fill="#263238"/>
<path id="Vector_128" d="M149.695 185.771C149.675 185.791 149.527 185.659 149.371 185.483C149.215 185.307 149.107 185.143 149.127 185.123C149.147 185.103 149.295 185.235 149.451 185.411C149.607 185.587 149.719 185.751 149.695 185.771Z" fill="#263238"/>
<path id="Vector_129" d="M150.336 185.291C150.336 185.315 150.172 185.247 150 185.139C149.828 185.031 149.708 184.919 149.724 184.895C149.74 184.871 149.888 184.939 150.06 185.047C150.232 185.155 150.352 185.267 150.336 185.291Z" fill="#263238"/>
<path id="Vector_130" d="M150.65 184.4C150.366 184.52 150.058 184.572 149.75 184.552C149.75 184.52 149.942 184.464 150.19 184.424C150.339 184.381 150.497 184.373 150.65 184.4Z" fill="#263238"/>
<path id="Vector_131" d="M150.711 183.816C150.578 183.939 150.41 184.017 150.231 184.04C150.059 184.094 149.875 184.094 149.703 184.04C149.867 183.985 150.036 183.946 150.207 183.924C150.371 183.872 150.54 183.836 150.711 183.816Z" fill="#263238"/>
<path id="Vector_132" d="M149.288 185.063C149.109 185.124 148.921 185.152 148.732 185.147C148.529 185.154 148.325 185.141 148.124 185.107C148.002 185.093 147.881 185.065 147.764 185.023C147.693 184.994 147.635 184.94 147.6 184.871C147.585 184.832 147.582 184.789 147.59 184.748C147.599 184.707 147.619 184.669 147.648 184.639C147.774 184.551 147.918 184.493 148.069 184.467C148.221 184.442 148.376 184.451 148.523 184.493C148.671 184.535 148.807 184.609 148.922 184.711C149.037 184.812 149.128 184.938 149.188 185.079C149.213 185.125 149.227 185.175 149.228 185.227C149.144 185.066 149.033 184.92 148.9 184.795C148.753 184.669 148.573 184.587 148.38 184.559C148.152 184.523 147.919 184.576 147.728 184.707C147.652 184.787 147.7 184.887 147.808 184.927C147.915 184.969 148.027 184.997 148.14 185.011C148.336 185.046 148.534 185.067 148.732 185.071C149.072 185.079 149.284 185.047 149.288 185.063Z" fill="#263238"/>
<path id="Vector_133" d="M149.148 185.115C149.061 185.009 149.017 184.875 149.024 184.739C149.019 184.591 149.049 184.445 149.112 184.311C149.145 184.224 149.198 184.146 149.268 184.085C149.338 184.023 149.422 183.98 149.512 183.959C149.57 183.962 149.625 183.988 149.664 184.03C149.704 184.073 149.725 184.129 149.724 184.187C149.724 184.277 149.705 184.365 149.668 184.447C149.616 184.581 149.546 184.707 149.46 184.823C149.388 184.936 149.291 185.03 149.176 185.099C149.176 185.099 149.272 184.983 149.396 184.783C149.479 184.663 149.547 184.535 149.6 184.399C149.66 184.267 149.676 184.051 149.536 184.047C149.396 184.043 149.276 184.215 149.208 184.339C149.145 184.463 149.111 184.6 149.108 184.739C149.109 184.865 149.122 184.991 149.148 185.115Z" fill="#263238"/>
<path id="Vector_134" d="M158.4 183.079C158.4 183.099 158.148 183.079 157.768 183.199C157.269 183.335 156.819 183.609 156.469 183.99C156.119 184.371 155.885 184.843 155.792 185.351C155.72 185.751 155.744 185.991 155.724 185.991C155.703 185.937 155.693 185.878 155.696 185.819C155.685 185.659 155.694 185.498 155.72 185.339C155.796 184.809 156.03 184.314 156.392 183.919C156.754 183.524 157.226 183.245 157.748 183.119C157.904 183.083 158.063 183.063 158.224 183.059C158.283 183.056 158.343 183.063 158.4 183.079Z" fill="#263238"/>
<path id="Vector_135" d="M156.926 179.637C157.076 180.215 157.194 180.801 157.278 181.393C157.394 181.979 157.475 182.572 157.522 183.169C157.372 182.589 157.256 182.002 157.174 181.409C157.055 180.824 156.973 180.232 156.926 179.637Z" fill="#263238"/>
<path id="Vector_136" d="M154.485 185.372C153.679 185.658 152.827 185.793 151.973 185.772C151.973 185.744 152.537 185.688 153.229 185.572C153.921 185.456 154.477 185.344 154.485 185.372Z" fill="#263238"/>
<path id="Vector_137" d="M156.172 185.108C156.196 185.108 156.144 185.232 156.108 185.372C156.072 185.512 156.056 185.628 156.028 185.632C156 185.636 155.96 185.504 156.004 185.344C156.048 185.184 156.148 185.088 156.172 185.108Z" fill="#263238"/>
<path id="Vector_138" d="M156.683 184.215C156.707 184.215 156.683 184.331 156.591 184.435C156.499 184.539 156.435 184.611 156.411 184.591C156.387 184.571 156.431 184.479 156.503 184.375C156.575 184.271 156.659 184.199 156.683 184.215Z" fill="#263238"/>
<path id="Vector_139" d="M157.539 183.713C157.539 183.745 157.423 183.761 157.303 183.825C157.183 183.889 157.103 183.969 157.075 183.953C157.047 183.937 157.103 183.809 157.251 183.733C157.399 183.657 157.543 183.685 157.539 183.713Z" fill="#263238"/>
<path id="Vector_140" d="M158.159 183.439C158.159 183.463 158.131 183.515 158.063 183.555C157.995 183.595 157.931 183.607 157.915 183.579C157.899 183.551 157.943 183.503 158.011 183.463C158.079 183.423 158.143 183.415 158.159 183.439Z" fill="#263238"/>
<path id="Vector_141" d="M152.959 98.2953C152.579 98.7273 151.787 98.6473 151.195 98.1233C150.603 97.5993 150.423 96.8233 150.795 96.3913C151.167 95.9593 151.967 96.0353 152.563 96.5633C153.159 97.0913 153.343 97.8633 152.959 98.2953Z" fill="#FAFAFA"/>
<path id="Vector_142" d="M140.964 97.0645C140.964 97.0645 145.516 104.264 146.164 107.012C146.812 109.76 158.964 182.52 158.964 182.52L147.816 183.2L132.672 112.024L138.764 182.68L127.796 183.6C127.796 183.6 119.076 108.8 119.852 106.828C120.628 104.856 122.676 97.9245 122.676 97.9245L140.964 97.0645Z" fill="#455A64"/>
<path id="Vector_143" d="M132.58 111.568C132.58 111.568 132.58 111.628 132.492 111.688C132.424 111.723 132.348 111.738 132.272 111.731C132.196 111.724 132.124 111.695 132.064 111.648C131.904 111.477 131.81 111.255 131.8 111.02L131.656 110.152C131.444 108.864 131.168 107.088 130.856 105.12C130.544 103.152 130.308 101.372 130.132 100.08C130.056 99.4644 129.988 98.9524 129.94 98.5524C129.905 98.3652 129.89 98.1747 129.896 97.9844C129.952 98.1661 129.994 98.352 130.02 98.5404C130.088 98.9404 130.176 99.4484 130.28 100.06C130.492 101.344 130.768 103.124 131.08 105.092C131.392 107.06 131.628 108.84 131.8 110.128C131.844 110.448 131.88 110.74 131.916 111C131.915 111.213 131.986 111.42 132.116 111.588C132.163 111.631 132.222 111.66 132.285 111.671C132.348 111.682 132.412 111.676 132.472 111.652C132.552 111.6 132.572 111.56 132.58 111.568Z" fill="#263238"/>
<path id="Vector_144" d="M131.44 99.411C131.44 99.411 131.44 99.347 131.548 99.287C131.681 99.2109 131.838 99.188 131.988 99.223C132.105 99.2464 132.213 99.3047 132.296 99.3904C132.38 99.4761 132.435 99.5851 132.456 99.703C132.48 99.8485 132.459 99.998 132.394 100.131C132.33 100.263 132.225 100.373 132.096 100.443C131.964 100.502 131.817 100.52 131.675 100.496C131.533 100.472 131.401 100.406 131.296 100.307C131.212 100.226 131.15 100.124 131.117 100.012C131.084 99.8997 131.081 99.7809 131.108 99.667C131.204 99.267 131.476 99.191 131.476 99.215C131.364 99.3532 131.287 99.5166 131.252 99.691C131.239 99.7787 131.249 99.8682 131.279 99.9514C131.31 100.034 131.361 100.109 131.428 100.167C131.507 100.237 131.604 100.282 131.708 100.298C131.812 100.315 131.919 100.301 132.016 100.259C132.106 100.207 132.18 100.13 132.226 100.037C132.273 99.9435 132.292 99.8386 132.28 99.735C132.267 99.649 132.231 99.5682 132.174 99.5023C132.117 99.4364 132.043 99.3881 131.96 99.363C131.786 99.3185 131.602 99.3354 131.44 99.411Z" fill="#263238"/>
<path id="Vector_145" d="M141.091 51.8837C141.195 51.057 141.131 50.2179 140.903 49.4164C140.675 48.615 140.289 47.8675 139.766 47.2185C139.244 46.5695 138.596 46.0323 137.862 45.6387C137.127 45.2452 136.321 45.0034 135.491 44.9277C132.179 44.6117 129.235 47.0757 128.739 50.3677C128.303 53.2517 127.939 56.1637 127.939 57.2197C127.979 60.4197 129.843 61.6477 130.599 62.0197C130.872 62.1176 131.153 62.1873 131.439 62.2277V62.2517L130.731 65.9117C130.411 68.3117 131.751 70.4477 134.143 70.7997C136.535 71.1517 138.423 69.3077 138.791 66.9077L141.091 51.8837Z" fill="#936754"/>
<path id="Vector_146" d="M129.491 51.9482C129.47 52.0777 129.5 52.2101 129.575 52.318C129.649 52.4259 129.762 52.5011 129.891 52.5282C129.954 52.5417 130.019 52.5425 130.082 52.5306C130.145 52.5188 130.206 52.4945 130.26 52.4592C130.314 52.4238 130.36 52.3781 130.396 52.3248C130.432 52.2714 130.458 52.2114 130.471 52.1482C130.491 52.0192 130.46 51.8874 130.386 51.7801C130.311 51.6729 130.198 51.5984 130.071 51.5722C130.008 51.5582 129.943 51.5568 129.879 51.5682C129.816 51.5795 129.756 51.6034 129.702 51.6384C129.648 51.6734 129.601 51.7189 129.565 51.7721C129.529 51.8253 129.503 51.8851 129.491 51.9482Z" fill="#263238"/>
<path id="Vector_147" d="M129.49 51.2314C129.542 51.3074 129.962 51.0794 130.502 51.1594C131.042 51.2394 131.398 51.5594 131.466 51.5114C131.534 51.4634 131.466 51.3594 131.298 51.2074C131.089 51.0099 130.823 50.8839 130.538 50.8474C130.257 50.8044 129.97 50.8521 129.718 50.9834C129.534 51.0874 129.462 51.1994 129.49 51.2314Z" fill="#263238"/>
<path id="Vector_148" d="M134.6 52.8002C134.58 52.9292 134.61 53.061 134.684 53.1682C134.759 53.2755 134.872 53.35 135 53.3762C135.063 53.3908 135.128 53.3926 135.191 53.3815C135.255 53.3703 135.316 53.3465 135.37 53.3114C135.424 53.2763 135.47 53.2307 135.506 53.1772C135.543 53.1237 135.568 53.0635 135.58 53.0002C135.601 52.8705 135.571 52.7377 135.497 52.6295C135.422 52.5214 135.309 52.4464 135.18 52.4202C135.053 52.3941 134.92 52.4194 134.812 52.4906C134.703 52.5618 134.627 52.6731 134.6 52.8002Z" fill="#263238"/>
<path id="Vector_149" d="M134.8 52.1039C134.852 52.1799 135.276 51.9559 135.816 52.0359C136.356 52.1159 136.708 52.4359 136.78 52.3839C136.852 52.3319 136.78 52.2319 136.612 52.0799C136.401 51.8853 136.136 51.7597 135.852 51.7199C135.57 51.6775 135.283 51.7266 135.032 51.8599C134.828 51.9639 134.756 52.0719 134.8 52.1039Z" fill="#263238"/>
<path id="Vector_150" d="M132.24 55.8234C131.968 55.6906 131.68 55.5938 131.384 55.5354C131.248 55.5034 131.124 55.4554 131.112 55.3594C131.123 55.2141 131.175 55.0752 131.264 54.9594L131.824 53.9674C132.624 52.5594 133.2 51.3874 133.14 51.3594C132.568 52.1502 132.06 52.9848 131.62 53.8554C131.428 54.2074 131.248 54.5394 131.072 54.8554C130.963 55.0106 130.911 55.1983 130.924 55.3874C130.936 55.4386 130.96 55.4862 130.994 55.5265C131.028 55.5667 131.071 55.5985 131.12 55.6194C131.194 55.6527 131.272 55.6756 131.352 55.6874C131.641 55.7677 131.939 55.8134 132.24 55.8234Z" fill="#263238"/>
<path id="Vector_151" d="M131.483 62.2354C131.483 62.2354 133.539 62.7074 136.375 61.5234C136.375 61.5234 135.151 64.1554 131.291 63.2194L131.483 62.2354Z" fill="#7C5142"/>
<path id="Vector_152" d="M132.275 57.1564C132.396 57.042 132.545 56.9606 132.707 56.92C132.868 56.8794 133.038 56.8809 133.199 56.9244C133.315 56.9501 133.425 56.9987 133.523 57.0674C133.62 57.1361 133.703 57.2234 133.767 57.3244C133.825 57.4255 133.852 57.5421 133.842 57.6585C133.833 57.775 133.788 57.8858 133.715 57.9764C133.614 58.0603 133.491 58.1124 133.36 58.1259C133.23 58.1394 133.098 58.1139 132.983 58.0524C132.741 57.9246 132.526 57.7507 132.351 57.5404C132.296 57.4873 132.252 57.425 132.219 57.3564C132.204 57.3235 132.2 57.2872 132.205 57.2517C132.211 57.2163 132.227 57.1832 132.251 57.1564" fill="#7C5142"/>
<path id="Vector_153" d="M133.771 56.4277C133.683 56.4277 133.599 56.9957 133.035 57.3397C132.471 57.6837 131.859 57.5237 131.835 57.6077C131.811 57.6917 131.959 57.7397 132.235 57.7877C132.577 57.8404 132.928 57.7725 133.227 57.5957C133.512 57.424 133.719 57.1489 133.807 56.8277C133.855 56.5837 133.811 56.4317 133.771 56.4277Z" fill="#263238"/>
<path id="Vector_154" d="M134.677 51.1247C134.709 51.2807 135.257 51.2887 135.877 51.4567C136.497 51.6247 136.985 51.8567 137.077 51.7567C137.121 51.6967 137.053 51.5447 136.869 51.3567C136.619 51.1417 136.323 50.9871 136.004 50.9045C135.685 50.822 135.351 50.8138 135.029 50.8807C134.801 50.9567 134.665 51.0527 134.677 51.1247Z" fill="#263238"/>
<path id="Vector_155" d="M129.847 50.1558C129.927 50.2958 130.315 50.2198 130.763 50.2798C131.211 50.3398 131.563 50.4838 131.683 50.3678C131.803 50.2518 131.683 50.1798 131.539 50.0398C131.341 49.8636 131.091 49.7557 130.827 49.7318C130.564 49.6966 130.297 49.7456 130.063 49.8718C129.887 49.9718 129.815 50.0918 129.847 50.1558Z" fill="#263238"/>
<path id="Vector_156" d="M146.472 68.2553C145.972 67.3633 145.056 66.7273 144.68 65.7793C144.032 64.1513 145.176 62.3433 145.48 60.6273C145.68 60.1713 145.852 59.7473 145.944 59.4753C146.3 58.3953 146.3 56.6753 145.788 55.6673C145.312 54.7233 144.108 53.7873 143.76 52.8673C143.22 51.4593 143.62 51.0953 143.208 48.1593C142.972 46.4913 140.752 44.1833 138.408 44.5593C137.672 43.7598 136.684 43.2373 135.608 43.0793C134.329 42.8329 133.005 42.9668 131.801 43.4644C130.597 43.962 129.565 44.8016 128.832 45.8793C128.136 46.9313 127.72 48.3473 128.132 49.6073C128.792 50.6113 130.888 50.0073 132.152 49.2993C132.812 49.7201 133.611 49.8665 134.377 49.7073C135.144 49.5482 135.818 49.0961 136.256 48.4473C136.378 48.6026 136.53 48.7311 136.703 48.8248C136.877 48.9184 137.068 48.9751 137.264 48.9913C137.308 49.3633 137.352 49.6753 137.38 49.8753C137.508 50.7953 138.888 52.1233 138.904 53.0513C138.932 54.7953 137.592 54.8833 137.22 56.5913C136.94 57.8753 137.916 58.6273 138.1 59.9273C138.09 60.2169 138.021 60.5015 137.896 60.7633C137.356 61.8193 136.904 62.9353 137.012 64.0993C137.112 65.1993 137.708 66.2113 137.764 67.2993C137.86 69.2313 136.34 70.8033 135.452 72.4993C134.638 74.0886 134.343 75.8933 134.608 77.6593C138.166 78.2967 141.764 78.6777 145.376 78.7993C145.505 78.8315 145.639 78.8312 145.768 78.7986C145.896 78.766 146.014 78.702 146.112 78.6124C146.209 78.5227 146.283 78.4103 146.326 78.2852C146.37 78.16 146.381 78.026 146.36 77.8953C146.536 75.9193 146.711 73.9459 146.884 71.9753C146.996 70.7193 147.092 69.3633 146.472 68.2553Z" fill="#263238"/>
<path id="Vector_157" d="M119.198 103.963C117.018 104.859 115.694 107.039 114.518 109.083L110.218 116.559C109.65 117.551 109.062 118.623 109.154 119.759C109.227 120.295 109.413 120.81 109.702 121.268C109.99 121.727 110.374 122.118 110.826 122.415C111.733 123.004 112.73 123.44 113.778 123.707C115.062 124.107 116.39 124.451 117.726 124.327C119.062 124.203 120.422 123.527 121.014 122.327C121.51 121.319 121.414 120.135 121.29 119.015C120.874 115.063 120.459 111.108 120.046 107.151C119.938 106.127 119.834 105.103 119.726 104.079" fill="#263238"/>
<path id="Vector_158" d="M111.463 114.535C111.574 114.667 111.71 114.776 111.863 114.855C112.079 114.94 112.314 114.967 112.544 114.933C112.774 114.9 112.992 114.807 113.175 114.663C113.659 114.311 113.975 113.643 114.375 112.935C114.775 112.227 115.207 111.451 115.659 110.635C116.575 109.003 117.415 107.535 118.031 106.475L118.771 105.227C118.854 105.069 118.953 104.92 119.067 104.783C119.007 104.951 118.932 105.113 118.843 105.267L118.163 106.547C117.579 107.623 116.759 109.107 115.843 110.735C115.383 111.535 114.947 112.335 114.543 113.031C114.139 113.727 113.799 114.411 113.263 114.779C113.059 114.932 112.818 115.026 112.565 115.052C112.312 115.078 112.057 115.035 111.827 114.927C111.706 114.863 111.602 114.771 111.523 114.659C111.495 114.622 111.475 114.58 111.463 114.535Z" fill="#455A64"/>
<path id="Vector_159" d="M114.084 124.243C114.028 124.243 115.168 119.695 116.632 114.123C118.096 108.551 119.324 104.035 119.38 104.051C119.436 104.067 118.296 108.599 116.832 114.175C115.368 119.751 114.14 124.259 114.084 124.243Z" fill="#455A64"/>
<path id="Vector_160" d="M111.392 114.669C111.226 114.861 110.994 114.985 110.742 115.017C110.489 115.048 110.234 114.985 110.026 114.84C109.817 114.694 109.67 114.477 109.612 114.229C109.555 113.981 109.592 113.721 109.715 113.498C109.838 113.276 110.04 113.107 110.28 113.024C110.521 112.942 110.783 112.951 111.017 113.051C111.251 113.151 111.44 113.334 111.547 113.565C111.654 113.795 111.671 114.058 111.596 114.301" fill="#0872BA"/>
<path id="Vector_161" d="M142.955 69.5078C142.888 69.6423 142.803 69.7673 142.703 69.8798L141.903 70.8838C141.203 71.7478 140.207 73.0038 138.987 74.5718C137.767 76.1398 136.343 78.0198 134.795 80.1358C133.247 82.2518 131.595 84.6198 129.923 87.1398C128.251 89.6598 126.723 92.1038 125.351 94.3398C123.979 96.5758 122.807 98.6278 121.839 100.34C120.871 102.052 120.095 103.476 119.567 104.456C119.303 104.928 119.099 105.304 118.947 105.572C118.882 105.708 118.802 105.835 118.707 105.952C118.746 105.812 118.802 105.677 118.875 105.552L119.423 104.396C119.907 103.396 120.643 101.964 121.583 100.216C122.523 98.4678 123.683 96.3998 125.023 94.1398C126.363 91.8798 127.899 89.4278 129.575 86.8998C131.251 84.3718 132.927 82.0198 134.487 79.9038C136.047 77.7878 137.503 75.9038 138.755 74.3798C140.007 72.8558 141.043 71.6038 141.779 70.7798C142.139 70.3798 142.423 70.0518 142.631 69.8238C142.725 69.7053 142.834 69.5992 142.955 69.5078Z" fill="#263238"/>
</g>
<g id="freepik--character-1--inject-303">
<path id="Vector_162" d="M48.9845 50.8641C48.6881 50.4153 48.2579 50.0712 47.7549 49.8808C47.2519 49.6903 46.7017 49.6631 46.1824 49.803C45.6631 49.9429 45.201 50.2428 44.8618 50.6602C44.5225 51.0775 44.3234 51.5911 44.2925 52.1281C44.3328 52.635 44.3167 53.1448 44.2445 53.6481C44.1407 53.9828 43.9252 54.2719 43.634 54.467C43.3429 54.662 42.9936 54.7514 42.6445 54.7201C42.8974 55.068 43.2505 55.3303 43.6565 55.4721C43.604 55.4476 43.5463 55.4359 43.4883 55.4382C43.4304 55.4405 43.3738 55.4566 43.3233 55.4851C43.2728 55.5137 43.2299 55.5539 43.1981 55.6025C43.1663 55.651 43.1466 55.7064 43.1405 55.7641C43.1383 55.8831 43.1718 56.0001 43.2367 56.0999C43.3016 56.1997 43.3949 56.2778 43.5045 56.3241C43.7276 56.409 43.9664 56.4445 44.2045 56.4281C45.3565 56.4281 46.6045 56.3001 47.4725 55.5401C48.4125 54.7401 48.6725 53.4001 48.9045 52.1721" fill="#263238"/>
<path id="Vector_163" d="M59.3109 46.0005C60.5109 45.9325 61.6309 46.6605 62.4589 47.5365C63.2869 48.4125 63.9309 49.4565 64.7949 50.3005C65.4349 50.9285 66.2149 51.4685 66.6029 52.3005C67.2229 53.5925 66.7029 55.2605 67.4829 56.4605C67.9229 57.1365 68.6829 57.5325 69.1549 58.2005C69.7229 59.0365 69.6789 60.1325 69.5549 61.1325C69.589 61.7679 69.3925 62.3942 69.0015 62.8962C68.6105 63.3981 68.0513 63.742 67.4269 63.8645C63.4778 65.2011 59.2133 65.2919 55.2109 64.1245" fill="#263238"/>
<path id="Vector_164" d="M51.0244 54.0771C50.9212 53.2503 50.9853 52.4112 51.213 51.6098C51.4407 50.8083 51.8273 50.0609 52.3498 49.4119C52.8723 48.7629 53.5199 48.2256 54.2543 47.8321C54.9887 47.4385 55.7947 47.1967 56.6244 47.1211C59.9364 46.8051 62.8804 49.2691 63.3804 52.5611C63.8124 55.4451 64.1804 58.3571 64.1804 59.4131C64.1404 62.6131 62.2764 63.8411 61.5204 64.2131C61.2483 64.3109 60.9668 64.3806 60.6804 64.4211V64.4451L61.3884 68.1051C61.7084 70.5051 60.3684 72.6411 57.9764 72.9931C55.5844 73.3451 53.6964 71.5011 53.3284 69.1011L51.0244 54.0771Z" fill="#FFBE9D"/>
<path id="Vector_165" d="M62.799 54.4252C62.747 54.5012 62.327 54.2732 61.787 54.3532C61.247 54.4332 60.891 54.7532 60.823 54.7052C60.755 54.6572 60.823 54.5532 60.991 54.4012C61.1997 54.2037 61.4659 54.0776 61.751 54.0412C62.0253 54.0011 62.3053 54.0487 62.551 54.1772C62.763 54.2812 62.839 54.4012 62.799 54.4252Z" fill="#263238"/>
<path id="Vector_166" d="M58.0002 55.4645C57.9442 55.5405 57.5242 55.3125 56.9842 55.3925C56.4442 55.4725 56.0882 55.7925 56.0202 55.7445C55.9522 55.6965 56.0202 55.5925 56.1882 55.4405C56.399 55.2459 56.6641 55.1203 56.9482 55.0805C57.2225 55.0436 57.5015 55.0911 57.7482 55.2165C57.9642 55.3205 58.0362 55.4325 58.0002 55.4645Z" fill="#263238"/>
<path id="Vector_167" d="M59.8766 58.0011C60.1494 57.8714 60.4368 57.7747 60.7326 57.7131C60.8686 57.6811 60.9926 57.6331 61.0046 57.5371C60.9937 57.3919 60.9409 57.2529 60.8526 57.1371L60.2926 56.1451C59.7855 55.312 59.3455 54.4399 58.9766 53.5371C59.5506 54.3283 60.0603 55.1643 60.5006 56.0371C60.6886 56.3851 60.8686 56.7171 61.0446 57.0331C61.1644 57.1969 61.2199 57.3991 61.2006 57.6011C61.1881 57.6523 61.1639 57.6999 61.1299 57.7402C61.0959 57.7805 61.053 57.8123 61.0046 57.8331C60.9321 57.8664 60.8554 57.8893 60.7766 57.9011C60.4816 57.9699 60.1795 58.0034 59.8766 58.0011Z" fill="#263238"/>
<path id="Vector_168" d="M60.6362 64.4288C60.6362 64.4288 58.5762 64.9008 55.7402 63.7168C55.7402 63.7168 56.9642 66.3488 60.8242 65.4128L60.6362 64.4288Z" fill="#EB996E"/>
<path id="Vector_169" d="M59.8389 59.3478C59.7175 59.2334 59.5689 59.152 59.4071 59.1114C59.2453 59.0708 59.0759 59.0723 58.9149 59.1158C58.6804 59.1694 58.4763 59.3131 58.3469 59.5158C58.2884 59.6169 58.2621 59.7335 58.2714 59.8499C58.2806 59.9664 58.3251 60.0772 58.3989 60.1678C58.5004 60.2516 58.6244 60.3035 58.7554 60.317C58.8863 60.3305 59.0184 60.3051 59.1349 60.2438C59.3757 60.1159 59.5891 59.9419 59.7629 59.7318C59.8173 59.6787 59.862 59.6164 59.8949 59.5478C59.9102 59.5151 59.9154 59.4786 59.9097 59.4429C59.904 59.4072 59.8877 59.3741 59.8629 59.3478" fill="#EB996E"/>
<path id="Vector_170" d="M58.3441 58.6211C58.4321 58.6211 58.5161 59.1891 59.0801 59.5331C59.6441 59.8771 60.2561 59.7211 60.2801 59.8011C60.3041 59.8811 60.1561 59.9331 59.8801 59.9811C59.5372 60.0334 59.1867 59.9656 58.8881 59.7891C58.6031 59.6173 58.3953 59.3422 58.3081 59.0211C58.2601 58.7771 58.3041 58.6251 58.3441 58.6211Z" fill="#263238"/>
<path id="Vector_171" d="M57.6395 53.7086C57.6075 53.8646 57.0555 53.8726 56.4395 54.0406C55.8235 54.2086 55.3315 54.4406 55.2395 54.3366C55.1915 54.2806 55.2595 54.1286 55.4475 53.9366C55.6951 53.719 55.9914 53.5639 56.3115 53.4846C56.6301 53.3986 56.9645 53.389 57.2875 53.4566C57.5155 53.5366 57.6515 53.6366 57.6395 53.7086Z" fill="#263238"/>
<path id="Vector_172" d="M62.2681 52.7608C62.1921 52.8968 61.8001 52.8249 61.3521 52.8849C60.9041 52.9449 60.5521 53.0849 60.4321 52.9689C60.3841 52.9129 60.4321 52.7809 60.5761 52.6409C60.7778 52.4699 61.0258 52.3627 61.2886 52.3328C61.5513 52.3029 61.817 52.3516 62.0521 52.4728C62.2321 52.5768 62.3001 52.6928 62.2681 52.7608Z" fill="#263238"/>
<path id="Vector_173" d="M63.9987 51.8449C63.3387 52.8529 61.2467 52.2449 59.9787 51.5369C59.319 51.9581 58.5209 52.1051 57.7544 51.9468C56.9879 51.7884 56.3135 51.3371 55.8747 50.6889C55.1507 51.6089 53.6787 51.3049 53.1427 50.2649C52.6067 49.2249 52.9107 47.7969 53.6467 46.8889C54.3876 46.0406 55.4079 45.4858 56.5227 45.3249C57.8022 45.0791 59.1256 45.2132 60.3298 45.7108C61.5339 46.2084 62.566 47.0476 63.2987 48.1249C63.9947 49.1769 64.4107 50.5929 63.9987 51.853" fill="#263238"/>
<path id="Vector_174" d="M53.8236 46.8005C51.4516 46.3485 49.1636 48.7125 48.9276 50.4005C48.5276 53.3365 48.9276 53.7045 48.3756 55.1125C48.0236 56.0285 46.8196 56.9645 46.3436 57.9125C45.8316 58.9245 45.8316 60.6405 46.1876 61.7165C46.4876 62.6285 47.7116 65.1685 47.7116 65.1685C47.7116 65.1685 51.2396 65.0525 53.0436 64.5925C53.5098 64.4989 53.9472 64.296 54.3196 64.0005C54.6596 63.6885 53.9556 62.6125 54.0196 62.1565C54.2036 60.8525 55.1796 60.1005 54.8996 58.8165C54.5276 57.1085 53.1876 57.0245 53.2156 55.2765C53.2156 54.3525 54.6116 53.0205 54.7396 52.1045C54.8676 51.1885 55.3996 48.0005 53.8236 46.8005Z" fill="#263238"/>
<path id="Vector_175" d="M48.8305 53.0277C48.8905 53.0277 48.7665 52.4357 48.7785 51.7277C48.7905 51.0197 48.9265 50.4477 48.8665 50.4277C48.6777 50.8341 48.5768 51.2758 48.5706 51.7239C48.5644 52.172 48.653 52.6163 48.8305 53.0277Z" fill="#0872BA"/>
<path id="Vector_176" d="M48.9043 52.0315C48.9841 52.0703 49.0716 52.0908 49.1603 52.0915C49.3983 52.1131 49.6382 52.0997 49.8723 52.0515C50.2247 51.9844 50.5604 51.8484 50.8603 51.6515C51.2267 51.4093 51.5342 51.0881 51.7603 50.7115C51.9698 50.3508 52.2165 50.0129 52.4963 49.7035C52.7364 49.4663 53.015 49.2715 53.3203 49.1275C53.612 49.0099 53.9113 48.9124 54.2163 48.8355C54.1295 48.8152 54.0391 48.8152 53.9523 48.8355C53.7148 48.8608 53.482 48.9186 53.2603 49.0075C52.9271 49.1384 52.6218 49.3311 52.3603 49.5755C52.0666 49.885 51.8114 50.2288 51.6003 50.5995C51.2112 51.2475 50.5837 51.7171 49.8523 51.9075C49.539 51.9677 49.2225 52.0091 48.9043 52.0315Z" fill="#455A64"/>
<path id="Vector_177" d="M43.1172 55.6562C43.2052 55.7211 43.3118 55.7562 43.4212 55.7562C43.7217 55.7754 44.0197 55.6907 44.2652 55.5162C44.6269 55.2582 44.8962 54.8908 45.0332 54.4682C45.2052 54.0082 45.2852 53.4802 45.4332 52.9602C45.5451 52.4736 45.8187 52.0393 46.2092 51.7282C46.5491 51.5049 46.958 51.4112 47.3612 51.4642C47.7372 51.5228 48.0899 51.6833 48.3812 51.9282C48.3812 51.9282 48.3372 51.8162 48.1772 51.6802C47.9481 51.4892 47.6717 51.3634 47.3772 51.3162C46.934 51.2387 46.4779 51.3285 46.0972 51.5682C45.6608 51.8968 45.3536 52.3682 45.2292 52.9002C45.0692 53.4402 44.9972 53.9602 44.8292 54.4002C44.7136 54.7927 44.4805 55.1403 44.1612 55.3962C43.9435 55.5642 43.6798 55.6619 43.4052 55.6762C43.2292 55.6762 43.1212 55.6402 43.1172 55.6562Z" fill="#455A64"/>
<path id="Vector_178" d="M48.8438 51.6771C48.8438 51.6771 48.9477 51.7091 49.1357 51.6771C49.3947 51.6083 49.6298 51.47 49.8158 51.2771C50.085 50.9876 50.2943 50.6478 50.4318 50.2771C50.5807 49.84 50.7765 49.4202 51.0158 49.0251C51.2547 48.6872 51.564 48.4049 51.9223 48.1978C52.2807 47.9906 52.6796 47.8635 53.0917 47.8251C53.4381 47.8072 53.7854 47.826 54.1278 47.8811C54.1278 47.8811 54.0438 47.8211 53.8638 47.7651C53.6035 47.693 53.3334 47.6633 53.0638 47.6771C52.6242 47.6934 52.1942 47.81 51.8067 48.018C51.4191 48.226 51.0843 48.5199 50.8277 48.8771C50.5815 49.2851 50.3829 49.7199 50.2357 50.1731C50.115 50.5263 49.9306 50.8543 49.6918 51.1411C49.471 51.4028 49.1748 51.59 48.8438 51.6771Z" fill="#455A64"/>
<path id="Vector_179" d="M49.8131 65.2887C49.8131 65.2887 49.6411 65.0927 49.3411 64.7327C48.9236 64.2225 48.5715 63.6622 48.2931 63.0647C47.8776 62.1817 47.701 61.2052 47.7811 60.2327C47.8253 59.6429 47.9859 59.0678 48.2537 58.5405C48.5214 58.0133 48.891 57.5443 49.3411 57.1606C49.8291 56.7606 50.3891 56.4687 50.8611 56.0687C51.3354 55.6926 51.6808 55.1781 51.8491 54.5967C51.9934 54.0838 52.0912 53.559 52.1411 53.0287C52.1895 52.5771 52.2806 52.1311 52.4131 51.6967C52.5002 51.3841 52.6521 51.0933 52.8588 50.8431C53.0655 50.593 53.3225 50.3891 53.6131 50.2447C53.8346 50.1555 54.0704 50.1067 54.3091 50.1007C54.2487 50.0797 54.185 50.0702 54.1211 50.0727C53.9362 50.0693 53.7525 50.1033 53.5811 50.1727C53.2676 50.3082 52.9874 50.5104 52.7601 50.7654C52.5328 51.0203 52.3639 51.3217 52.2651 51.6487C52.1221 52.0901 52.0216 52.5441 51.9651 53.0046C51.9055 53.5227 51.8039 54.0351 51.6611 54.5367C51.4972 55.0802 51.1705 55.5605 50.7251 55.9127C50.2691 56.2927 49.7131 56.5887 49.2011 57.0007C48.735 57.4009 48.3535 57.89 48.0788 58.4395C47.804 58.9889 47.6416 59.5877 47.6011 60.2007C47.5271 61.2038 47.7247 62.2083 48.1731 63.1087C48.4648 63.7129 48.842 64.272 49.2931 64.7687C49.4531 64.9447 49.5851 65.0727 49.6931 65.1687C49.8011 65.2647 49.8051 65.2967 49.8131 65.2887Z" fill="#455A64"/>
<path id="Vector_180" d="M67.0598 63.7532C67.0598 63.7532 67.0958 63.7132 67.1478 63.6292C67.2234 63.5005 67.2902 63.3669 67.3478 63.2292C67.5548 62.7214 67.6595 62.1776 67.6558 61.6292C67.6604 60.8084 67.43 60.0033 66.9918 59.3092C66.7214 58.9164 66.4233 58.5435 66.0998 58.1932C65.765 57.8313 65.5234 57.3934 65.3958 56.9172C65.1838 55.9252 65.5078 54.9172 65.4398 54.0092C65.4252 53.1918 65.2051 52.3912 64.7998 51.6812C64.5191 51.2089 64.1431 50.8002 63.6958 50.4812C63.5753 50.3941 63.4483 50.3165 63.3158 50.2492C63.2278 50.2012 63.1758 50.1812 63.1758 50.1892C63.1758 50.1972 63.3518 50.3092 63.6438 50.5452C64.0603 50.8755 64.4093 51.2829 64.6718 51.7452C65.0475 52.4398 65.2479 53.2156 65.2558 54.0052C65.2624 54.4746 65.2343 54.9439 65.1718 55.4092C65.0973 55.9233 65.1067 56.4461 65.1998 56.9572C65.3355 57.464 65.5937 57.9297 65.9518 58.3132C66.2708 58.6579 66.5674 59.0226 66.8398 59.4052C67.2658 60.0686 67.4998 60.837 67.5158 61.6252C67.5333 62.1579 67.4533 62.6893 67.2798 63.1932C67.1478 63.5612 67.0438 63.7452 67.0598 63.7532Z" fill="#455A64"/>
<path id="Vector_181" d="M57.0195 45.6836C57.5303 45.6761 58.041 45.7055 58.5475 45.7716C59.7632 45.9729 60.8775 46.5722 61.7155 47.4756C62.5092 48.4197 63.0354 49.5592 63.2395 50.7756C63.3088 51.2818 63.3343 51.793 63.3155 52.3036C63.364 52.1752 63.3937 52.0405 63.4035 51.9036C63.4485 51.5249 63.4485 51.1423 63.4035 50.7636C63.2364 49.5038 62.7117 48.3183 61.8915 47.3476C61.0254 46.4088 59.8578 45.803 58.5915 45.6356C58.2115 45.5902 57.8275 45.5902 57.4475 45.6356C57.3032 45.6275 57.1585 45.6438 57.0195 45.6836Z" fill="#455A64"/>
<path id="Vector_182" d="M60.4282 50.3724C60.4671 50.2565 60.4847 50.1346 60.4802 50.0124C60.4907 49.6812 60.4557 49.3501 60.3762 49.0284C60.2542 48.4893 60.0231 47.9809 59.6973 47.5344C59.3714 47.0879 58.9577 46.7128 58.4815 46.4322C58.0052 46.1515 57.4766 45.9713 56.9282 45.9026C56.3797 45.8338 55.823 45.878 55.2922 46.0324C54.9716 46.124 54.6648 46.2586 54.3802 46.4324C54.1842 46.5564 54.0842 46.6404 54.0922 46.6524C54.4894 46.4608 54.9031 46.3055 55.3282 46.1884C56.3619 45.9256 57.4575 46.0821 58.3762 46.6238C59.2949 47.1656 59.9621 48.0487 60.2322 49.0804C60.3351 49.5046 60.4007 49.9369 60.4282 50.3724Z" fill="#455A64"/>
<path id="Vector_183" d="M39.428 114.628C39.34 114.936 39.24 115.3 39.144 115.736C39.0641 116.107 39.0479 116.49 39.096 116.868C39.1374 117.34 39.2437 117.804 39.412 118.248C39.608 118.648 39.228 119.048 38.876 118.884C38.524 118.72 37.956 117.644 37.908 116.24C37.86 114.836 36.528 116.6 36.028 117.232C35.528 117.864 33.9 119.752 33.584 119.752C33.12 119.752 33.032 119.26 33.544 118.64C34.056 118.02 35.46 116.048 35.112 115.8C34.764 115.552 32.284 118.8 32.284 118.8C32.284 118.8 31.884 119.6 31.452 119.312C30.712 118.82 33.612 115.552 33.896 115.248C34.092 115.036 33.724 114.756 33.528 114.992C33.332 115.228 31.128 118.3 30.36 117.792C29.78 117.416 32.72 115.084 32.824 114.192C32.928 113.3 30.772 116.192 30.232 115.792C30.032 115.648 29.9 115.516 31.376 114.036C32.092 113.32 34.852 111.144 34.852 111.144L40.452 91.6035H47.8L39.428 114.628Z" fill="#FFBE9D"/>
<path id="Vector_184" d="M99.7237 35.2763C99.1637 34.9203 97.1477 37.9043 97.2077 37.0123C97.2677 36.1203 100.1 33.6483 99.4997 33.3003C98.7197 32.8443 96.6637 36.0043 96.4717 36.2603C96.2797 36.5163 95.9037 36.2603 96.0717 36.0243C96.3397 35.7083 99.0837 32.3043 98.3197 31.8523C97.8957 31.6003 97.5197 32.4003 97.5197 32.4003C97.5197 32.4003 95.1877 35.7723 94.8317 35.5443C94.4757 35.3163 95.7797 33.2883 96.2677 32.6363C96.7557 31.9843 96.6357 31.5003 96.1757 31.5243C95.8597 31.5243 94.3197 33.5243 93.8517 34.1563C93.3837 34.7883 92.1357 36.6363 92.0197 35.2363C91.9037 33.8363 91.2877 32.8043 90.9277 32.6403C90.5677 32.4763 90.2077 32.9203 90.4237 33.3003C90.6205 33.7339 90.7552 34.1931 90.8237 34.6643C90.8877 35.0403 90.8877 35.4243 90.8237 35.8003C90.7517 36.2363 90.6677 36.6003 90.5917 36.9163L89.6477 38.4643C89.6477 38.4643 82.7477 50.6883 81.5997 52.4323C80.4517 54.1763 71.8477 61.4603 71.8477 61.4603L72.5277 71.0603L86.5277 58.6603L95.1157 40.5603L95.3277 40.1123C95.3277 40.1123 97.9797 37.8123 98.6597 37.0603C100.068 35.5403 99.9317 35.4123 99.7237 35.2763Z" fill="#FFBE9D"/>
<path id="Vector_185" d="M69.9194 76.8997L80.6914 65.6797L76.4234 56.4277L61.7074 66.9277L61.4434 66.1277L52.8674 67.1997V68.7157L52.6234 68.7437C52.6234 68.7437 44.4634 70.2277 42.8234 76.3437C41.6914 80.5637 39.3434 88.4237 38.0234 92.8877L47.8114 93.7437L50.2994 85.5517C50.2994 85.5517 51.8594 89.1157 51.7714 90.8037C51.6834 92.4917 50.0674 97.9637 50.0674 97.9637L69.1834 99.7517L68.8994 83.6237L69.9194 76.8997Z" fill="#0872BA"/>
<path id="Vector_186" d="M69.1442 78.5084C69.1442 78.5644 63.1442 78.6124 55.7762 78.6124C48.4082 78.6124 42.4082 78.5644 42.4082 78.5084C42.4082 78.4524 48.4082 78.4004 55.7762 78.4004C63.1442 78.4004 69.1442 78.4484 69.1442 78.5084Z" fill="#F5F5F5"/>
<path id="Vector_187" d="M69.6968 76.8794C69.6968 76.9394 63.6968 76.9834 56.3328 76.9834C48.9688 76.9834 42.9648 76.9394 42.9648 76.8794C42.9648 76.8194 48.9648 76.7754 56.3328 76.7754C63.7008 76.7754 69.6968 76.8234 69.6968 76.8794Z" fill="#F5F5F5"/>
<path id="Vector_188" d="M35.9999 173.236L33.9519 182.496L30.2199 189.352C30.1562 189.469 30.1172 189.598 30.1054 189.731C30.0936 189.864 30.1092 189.997 30.1512 190.124C30.1932 190.25 30.2607 190.366 30.3496 190.466C30.4385 190.565 30.5468 190.645 30.6679 190.7C30.808 190.766 30.9621 190.797 31.1168 190.79C31.2715 190.783 31.4221 190.738 31.5559 190.66C33.2919 189.66 39.6639 185.936 39.7759 185.248C39.9039 184.448 42.5759 175.624 42.5759 175.624L35.9999 173.236Z" fill="#0872BA"/>
<path id="Vector_189" opacity="0.6" d="M30.6562 190.701L39.9163 184.629L39.8203 185.029C39.7387 185.367 39.5386 185.665 39.2562 185.869C38.5042 186.413 36.3923 187.869 31.5723 190.669C31.4341 190.75 31.2781 190.795 31.1183 190.8C30.9584 190.806 30.7997 190.772 30.6562 190.701Z" fill="white"/>
<g id="Group_3" opacity="0.6">
<path id="Vector_190" d="M38.7561 181.201C38.6221 181.257 38.5133 181.359 38.4505 181.49C38.3878 181.621 38.3755 181.77 38.4161 181.909C38.4659 182.045 38.5661 182.156 38.6958 182.219C38.8255 182.282 38.9746 182.293 39.1121 182.249C39.2538 182.191 39.3688 182.082 39.4346 181.944C39.5004 181.806 39.5123 181.648 39.4681 181.501C39.4014 181.365 39.2845 181.26 39.1419 181.209C38.9993 181.157 38.8423 181.163 38.7041 181.225" fill="white"/>
</g>
<path id="Vector_191" d="M33.7474 187.2C33.5976 186.858 33.383 186.549 33.1154 186.288C32.8112 186.072 32.4694 185.915 32.1074 185.824C32.1074 185.8 32.2394 185.756 32.4594 185.78C32.755 185.813 33.0338 185.935 33.2594 186.128C33.4862 186.315 33.6531 186.564 33.7394 186.844C33.7914 187.052 33.7714 187.2 33.7474 187.2Z" fill="#263238"/>
<path id="Vector_192" d="M32.799 188.265C32.743 188.297 32.523 187.925 32.079 187.669C31.7949 187.54 31.5038 187.428 31.207 187.333C31.3704 187.279 31.5441 187.266 31.7138 187.293C31.8835 187.32 32.0444 187.387 32.183 187.489C32.679 187.781 32.843 188.253 32.799 188.265Z" fill="#263238"/>
<path id="Vector_193" d="M35.3594 185.913C35.0338 185.556 34.6836 185.224 34.3114 184.917C33.899 184.667 33.4685 184.449 33.0234 184.265C33.536 184.25 34.0364 184.422 34.4314 184.749C34.8685 185.015 35.1972 185.427 35.3594 185.913Z" fill="#263238"/>
<path id="Vector_194" d="M36.2158 183.149C36.1798 183.197 35.7198 182.861 35.0638 182.673C34.4078 182.485 33.8638 182.517 33.8398 182.457C34.2614 182.345 34.7053 182.351 35.1239 182.473C35.5425 182.595 35.92 182.828 36.2158 183.149Z" fill="#263238"/>
<path id="Vector_195" d="M36.8866 180.444C36.5115 180.217 36.108 180.041 35.6866 179.92C35.2566 179.862 34.8207 179.862 34.3906 179.92C34.3906 179.9 34.5106 179.808 34.7506 179.736C35.0709 179.652 35.4066 179.643 35.7306 179.712C36.0531 179.773 36.3563 179.91 36.6146 180.112C36.8226 180.292 36.9026 180.428 36.8866 180.444Z" fill="#263238"/>
<path id="Vector_196" d="M35.8439 179.409C35.8409 179.287 35.8655 179.167 35.9159 179.057C36.0206 178.746 36.185 178.46 36.3999 178.213C36.5472 178.019 36.7536 177.879 36.9879 177.813C37.0657 177.801 37.1451 177.813 37.2162 177.846C37.2874 177.88 37.3471 177.933 37.3879 178.001C37.4556 178.141 37.4712 178.302 37.4319 178.453C37.3367 178.75 37.1429 179.006 36.8826 179.178C36.6222 179.351 36.3108 179.429 35.9999 179.401C35.6874 179.356 35.395 179.221 35.1594 179.011C34.9239 178.801 34.7556 178.526 34.6759 178.221C34.6573 178.143 34.6552 178.062 34.6696 177.984C34.6841 177.905 34.7148 177.831 34.7599 177.765C34.8147 177.706 34.8859 177.665 34.9645 177.647C35.043 177.629 35.125 177.635 35.1999 177.665C35.4137 177.77 35.5959 177.93 35.7279 178.129C35.9296 178.39 36.0827 178.685 36.1799 179.001C36.2264 179.112 36.2482 179.232 36.2439 179.353C36.0889 178.944 35.8716 178.563 35.5999 178.221C35.4803 178.05 35.3192 177.912 35.1319 177.821C35.0916 177.803 35.0465 177.798 35.0034 177.807C34.9603 177.817 34.9212 177.84 34.8919 177.873C34.8656 177.918 34.8485 177.968 34.8416 178.021C34.8347 178.073 34.8382 178.126 34.8519 178.177C34.9247 178.44 35.0716 178.676 35.2752 178.858C35.4788 179.039 35.7304 179.158 35.9999 179.201C36.2694 179.229 36.5406 179.166 36.7694 179.02C36.9982 178.875 37.1711 178.657 37.2599 178.401C37.2969 178.299 37.2969 178.187 37.2599 178.085C37.2387 178.045 37.2056 178.014 37.1654 177.994C37.1252 177.975 37.0798 177.969 37.0359 177.977C36.8388 178.033 36.6631 178.147 36.5319 178.305C36.2399 178.63 36.0071 179.003 35.8439 179.409Z" fill="#263238"/>
<path id="Vector_197" d="M65.6876 176.152L65.1316 183.552C65.1316 183.552 72.4676 186.6 72.4996 187.976L58.0996 187.42L58.4996 175.852L65.6876 176.152Z" fill="#0872BA"/>
<g id="Group_4" opacity="0.6">
<path id="Vector_198" d="M60.708 182.756C60.5681 182.792 60.4465 182.879 60.3667 182.999C60.2869 183.12 60.2546 183.265 60.276 183.408C60.3068 183.55 60.3909 183.674 60.5108 183.755C60.6307 183.836 60.7772 183.868 60.92 183.844C61.0687 183.805 61.1978 183.713 61.2821 183.584C61.3663 183.455 61.3998 183.3 61.376 183.148C61.3274 183.004 61.2248 182.884 61.0898 182.814C60.9548 182.744 60.7978 182.729 60.652 182.772" fill="white"/>
</g>
<path id="Vector_199" opacity="0.6" d="M58.1133 187.42L58.1973 186.256L71.9613 187.224C71.9613 187.224 72.5933 187.528 72.5013 187.976L58.1133 187.42Z" fill="white"/>
<path id="Vector_200" d="M65.3674 183.489C65.3674 183.557 65.0114 183.577 64.6554 183.789C64.2994 184.001 64.1074 184.289 64.0434 184.261C63.9794 184.233 64.0994 183.825 64.5314 183.577C64.9634 183.329 65.3874 183.425 65.3674 183.489Z" fill="#263238"/>
<path id="Vector_201" d="M66.8522 184.169C66.8522 184.241 66.5602 184.345 66.3082 184.633C66.0562 184.921 65.9762 185.233 65.9082 185.229C65.8402 185.225 65.8082 184.829 66.1242 184.473C66.4402 184.117 66.8562 184.105 66.8522 184.169Z" fill="#263238"/>
<path id="Vector_202" d="M67.6404 186C67.5764 186 67.4924 185.66 67.6884 185.28C67.8844 184.9 68.2164 184.764 68.2444 184.824C68.2724 184.884 68.0604 185.08 67.9044 185.392C67.7484 185.704 67.7124 186 67.6404 186Z" fill="#263238"/>
<path id="Vector_203" d="M65.3074 181.788C65.2754 181.848 64.9554 181.74 64.5594 181.752C64.1634 181.764 63.8474 181.876 63.8114 181.816C63.7754 181.756 64.0834 181.512 64.5554 181.508C65.0274 181.504 65.3434 181.732 65.3074 181.788Z" fill="#263238"/>
<path id="Vector_204" opacity="0.3" d="M65.5762 177.616L65.4762 178.936L58.4082 178.596L58.4482 177.404L65.5762 177.616Z" fill="black"/>
<path id="Vector_205" d="M65.3927 180.293C65.1541 180.346 64.9056 180.335 64.6727 180.261C64.4151 180.204 64.1652 180.117 63.9287 180.001C63.7904 179.931 63.6567 179.852 63.5287 179.765C63.4506 179.715 63.3805 179.655 63.3207 179.585C63.2762 179.533 63.2501 179.468 63.2465 179.4C63.2429 179.332 63.2619 179.265 63.3007 179.209C63.3387 179.162 63.387 179.124 63.4417 179.098C63.4964 179.073 63.5562 179.06 63.6167 179.061C63.7077 179.065 63.7978 179.081 63.8847 179.109C64.0363 179.152 64.1836 179.21 64.3247 179.281C64.5641 179.4 64.7828 179.556 64.9727 179.745C65.2967 180.065 65.4007 180.333 65.3727 180.345C65.3447 180.357 65.1847 180.141 64.8527 179.873C64.6626 179.711 64.4513 179.577 64.2247 179.473C64.0951 179.415 63.9614 179.367 63.8247 179.329C63.6727 179.285 63.5447 179.277 63.5047 179.329C63.4647 179.381 63.5047 179.365 63.5047 179.409C63.5492 179.458 63.6004 179.501 63.6567 179.537C63.778 179.621 63.9035 179.7 64.0327 179.773C64.2509 179.891 64.4799 179.989 64.7167 180.065C64.9475 180.123 65.1735 180.199 65.3927 180.293Z" fill="#263238"/>
<path id="Vector_206" d="M65.2956 180.401C65.1669 180.19 65.1094 179.943 65.1316 179.697C65.13 179.425 65.1746 179.154 65.2636 178.897C65.3153 178.747 65.3823 178.602 65.4636 178.465C65.5062 178.372 65.572 178.292 65.6546 178.231C65.7373 178.171 65.8341 178.133 65.9356 178.121C65.9996 178.125 66.0612 178.146 66.113 178.184C66.1648 178.222 66.2046 178.273 66.2276 178.333C66.2623 178.419 66.2838 178.509 66.2916 178.601C66.3162 178.761 66.3162 178.925 66.2916 179.085C66.2424 179.353 66.1269 179.605 65.9556 179.817C65.6596 180.181 65.3636 180.253 65.3556 180.217C65.3476 180.181 65.5836 180.053 65.8156 179.705C65.9473 179.503 66.0333 179.275 66.0676 179.037C66.0877 178.898 66.0877 178.756 66.0676 178.617C66.0676 178.465 65.9996 178.341 65.9396 178.353C65.8796 178.365 65.7436 178.461 65.6796 178.581C65.6034 178.702 65.5378 178.829 65.4836 178.961C65.3944 179.191 65.3392 179.432 65.3196 179.677C65.2716 180.113 65.3356 180.401 65.2956 180.401Z" fill="#263238"/>
<path id="Vector_207" d="M50.7999 95.2246C50.7999 95.2246 46.2439 102.425 45.5999 105.169C45.0119 107.637 35.0519 161.269 32.9879 172.369C32.8873 172.921 32.9952 173.492 33.2907 173.97C33.5862 174.448 34.0483 174.799 34.5879 174.957L43.5999 177.665C43.9005 177.756 44.2167 177.783 44.5285 177.746C44.8403 177.708 45.1409 177.606 45.4113 177.446C45.6817 177.287 45.9159 177.072 46.0992 176.817C46.2824 176.562 46.4107 176.272 46.4759 175.965L57.5679 124.001L54.3119 175.477C54.2895 175.843 54.3436 176.209 54.4708 176.553C54.598 176.897 54.7955 177.211 55.0506 177.474C55.3058 177.738 55.613 177.945 55.9527 178.083C56.2925 178.221 56.6573 178.287 57.0239 178.277L65.8479 178.005C66.5043 177.983 67.1292 177.718 67.601 177.261C68.0727 176.804 68.3575 176.188 68.3999 175.533C69.1639 163.133 72.6159 106.733 71.9199 104.973C71.1439 102.973 69.0999 96.0686 69.0999 96.0686L50.7999 95.2246Z" fill="#263238"/>
<path id="Vector_208" d="M47.1993 173.428C47.0137 173.422 46.829 173.399 46.6473 173.36C46.2953 173.304 45.7873 173.208 45.1593 173.08C43.9113 172.824 42.1913 172.416 40.3193 171.88C38.4473 171.344 36.7993 170.748 35.5993 170.292C35.0033 170.064 34.5233 169.872 34.1953 169.728C34.0213 169.666 33.8538 169.587 33.6953 169.492C33.8777 169.527 34.0561 169.58 34.2273 169.652L35.6513 170.152C36.8513 170.572 38.5273 171.128 40.3913 171.672C42.2553 172.216 43.9673 172.644 45.1913 172.936L46.6633 173.28C46.847 173.309 47.0267 173.359 47.1993 173.428Z" fill="#455A64"/>
<path id="Vector_209" d="M36.0404 170.139C35.7316 169.897 35.5282 169.544 35.4724 169.155C35.3477 168.783 35.3735 168.377 35.5444 168.023C35.6044 168.023 35.5444 168.527 35.6764 169.107C35.8084 169.687 36.0884 170.099 36.0404 170.139Z" fill="#455A64"/>
<path id="Vector_210" d="M37.1469 168.225C37.2154 168.582 37.1793 168.951 37.0429 169.289C36.9685 169.644 36.7968 169.973 36.5469 170.237C36.6084 169.891 36.7076 169.553 36.8429 169.229C36.9117 168.885 37.0135 168.549 37.1469 168.225Z" fill="#455A64"/>
<path id="Vector_211" d="M65.4144 170.936C65.5643 171.228 65.6515 171.548 65.6704 171.876C65.754 172.193 65.7717 172.523 65.7224 172.848C65.5723 172.555 65.4838 172.235 65.4624 171.908C65.3761 171.591 65.3598 171.259 65.4144 170.936Z" fill="#455A64"/>
<path id="Vector_212" d="M66.4876 170.436C66.5836 170.762 66.6148 171.105 66.5796 171.444C66.6074 171.783 66.5665 172.124 66.4596 172.448C66.3636 172.121 66.3323 171.778 66.3676 171.44C66.3398 171.1 66.3806 170.759 66.4876 170.436Z" fill="#455A64"/>
<path id="Vector_213" d="M61.5275 97.7324C61.5372 97.8255 61.5372 97.9193 61.5275 98.0124C61.5275 98.2204 61.5075 98.4884 61.4955 98.8124C61.4675 99.5164 61.4075 100.532 61.3155 101.788C61.1315 104.3 60.7875 107.764 60.2315 111.568C59.6755 115.372 59.0315 118.792 58.5035 121.256C58.2475 122.488 58.0315 123.484 57.8715 124.168C57.7915 124.496 57.7315 124.756 57.6835 124.968C57.6663 125.062 57.6394 125.153 57.6035 125.24C57.61 125.145 57.6234 125.05 57.6435 124.956C57.6795 124.756 57.7315 124.488 57.7915 124.156C57.9315 123.44 58.1235 122.448 58.3595 121.232C58.8315 118.76 59.4635 115.34 60.0235 111.54C60.5835 107.74 60.9475 104.288 61.1675 101.78C61.2715 100.544 61.3555 99.5364 61.4155 98.8124C61.4435 98.4764 61.4675 98.2084 61.4835 98.0124C61.4885 97.9178 61.5032 97.824 61.5275 97.7324Z" fill="#455A64"/>
<path id="Vector_214" d="M69.5588 98.0007C69.4939 98.0194 69.4264 98.0275 69.3588 98.0247L68.7828 98.0527C68.2788 98.0767 67.5508 98.0967 66.6508 98.1087C64.8548 98.1407 62.3708 98.1367 59.6268 98.0607C56.8828 97.9847 54.4028 97.8487 52.6108 97.7167C51.7148 97.6527 51.0108 97.5927 50.4908 97.5447L49.9148 97.4807C49.8468 97.4787 49.7793 97.4666 49.7148 97.4447C49.7813 97.4377 49.8484 97.4377 49.9148 97.4447L50.4948 97.4647L52.6188 97.5727C54.4148 97.6647 56.8948 97.7807 59.6348 97.8567C62.3748 97.9327 64.8348 97.9567 66.6508 97.9647H68.7788H69.3588C69.4269 97.967 69.4943 97.9792 69.5588 98.0007Z" fill="#455A64"/>
<path id="Vector_215" d="M63.0562 97.6367C63.0753 97.863 63.0753 98.0905 63.0562 98.3167C63.0562 98.7887 63.0202 99.4127 62.9922 100.169C62.9322 101.729 62.8362 103.889 62.7162 106.273C62.6522 107.473 62.6042 108.597 62.5242 109.637C62.4839 110.566 62.2452 111.476 61.8242 112.305C61.5287 112.864 61.0861 113.331 60.5442 113.657C60.3977 113.742 60.2421 113.81 60.0802 113.861C59.9682 113.893 59.9082 113.905 59.9082 113.897C60.1124 113.804 60.3113 113.699 60.5042 113.585C61.0133 113.246 61.4266 112.782 61.7042 112.237C62.0932 111.417 62.311 110.527 62.3442 109.621C62.4122 108.593 62.4522 107.453 62.5162 106.261C62.6362 103.861 62.7562 101.721 62.8562 100.161C62.9082 99.4047 62.9482 98.7847 62.9802 98.3127C62.9865 98.0857 63.0119 97.8595 63.0562 97.6367Z" fill="#455A64"/>
<path id="Vector_216" d="M52.7718 102.072C52.7933 102.226 52.7933 102.382 52.7718 102.536C52.7388 102.958 52.6652 103.376 52.5518 103.784C52.1764 105.139 51.4378 106.366 50.4158 107.332C49.3829 108.29 48.1051 108.944 46.7238 109.22C46.3102 109.305 45.8898 109.351 45.4678 109.36C45.3137 109.371 45.159 109.36 45.0078 109.328C45.5744 109.273 46.1378 109.189 46.6958 109.076C48.0333 108.77 49.2657 108.115 50.2677 107.178C51.2696 106.24 52.0053 105.054 52.3998 103.74C52.5532 103.191 52.6774 102.634 52.7718 102.072Z" fill="#455A64"/>
<path id="Vector_217" d="M71.8599 109.601C71.7524 109.591 71.6471 109.564 71.5479 109.521C71.2714 109.428 71.0037 109.31 70.7479 109.169C70.3591 108.962 69.9919 108.717 69.6519 108.437C68.8156 107.751 68.1478 106.882 67.6999 105.897C67.5149 105.498 67.3715 105.081 67.2719 104.653C67.1995 104.366 67.1553 104.073 67.1399 103.777C67.12 103.67 67.12 103.56 67.1399 103.453C67.1759 103.453 67.2119 103.909 67.4119 104.617C67.5309 105.029 67.6834 105.43 67.8679 105.817C68.1011 106.287 68.377 106.734 68.6919 107.153C69.0148 107.565 69.3765 107.946 69.7719 108.289C70.0984 108.568 70.4476 108.82 70.8159 109.041C71.4399 109.417 71.8759 109.569 71.8599 109.601Z" fill="#455A64"/>
<path id="Vector_218" d="M55.8451 103.385C55.8487 103.445 55.8487 103.505 55.8451 103.565C55.8451 103.693 55.8091 103.865 55.7771 104.089C55.7131 104.561 55.6211 105.237 55.5011 106.089C55.2611 107.837 54.8851 110.365 54.3931 113.485C53.4091 119.721 51.9091 128.317 49.9691 137.753C48.0291 147.189 46.0011 155.681 44.4371 161.797C43.6371 164.857 43.0051 167.329 42.5371 169.029C42.3011 169.873 42.1371 170.529 41.9931 170.989C41.9331 171.205 41.8811 171.389 41.8491 171.497C41.8171 171.605 41.7891 171.669 41.7891 171.669L41.8251 171.493C41.8571 171.365 41.9011 171.197 41.9531 170.977C42.0691 170.517 42.2411 169.857 42.4571 169.009C42.9011 167.301 43.5331 164.825 44.2931 161.761C45.8211 155.637 47.8171 147.145 49.7651 137.709C51.7131 128.273 53.2251 119.689 54.2451 113.461C54.7571 110.345 55.1571 107.821 55.4211 106.077C55.5571 105.213 55.6651 104.537 55.7371 104.077C55.7731 103.853 55.8051 103.677 55.8251 103.553C55.8451 103.429 55.8451 103.385 55.8451 103.385Z" fill="#455A64"/>
<path id="Vector_219" d="M63.1602 173.376C63.1602 173.376 63.1602 173.32 63.1602 173.204C63.1602 173.088 63.1802 172.92 63.1962 172.708C63.2322 172.264 63.2882 171.62 63.3562 170.8C63.5042 169.132 63.7202 166.74 63.9842 163.784C64.5122 157.864 65.3402 149.688 65.9842 140.636C66.2922 136.112 66.5042 131.792 66.5922 127.864C66.6802 123.936 66.6522 120.396 66.5922 117.424C66.5322 114.452 66.3642 112.052 66.2442 110.392C66.1882 109.572 66.1402 108.928 66.1082 108.484C66.1082 108.272 66.0842 108.108 66.0762 107.984C66.0726 107.928 66.0726 107.872 66.0762 107.816C66.0893 107.872 66.0974 107.928 66.1002 107.984C66.1002 108.104 66.1322 108.268 66.1522 108.48C66.1962 108.924 66.2562 109.568 66.3322 110.384C66.4722 112.044 66.6282 114.444 66.7322 117.42C66.8362 120.396 66.8682 123.936 66.7882 127.868C66.7082 131.8 66.5042 136.124 66.1962 140.668C65.5722 149.724 64.7202 157.896 64.1562 163.816C63.8642 166.768 63.6282 169.16 63.4602 170.824C63.3762 171.644 63.3082 172.284 63.2602 172.728C63.2362 172.94 63.2202 173.104 63.2042 173.224C63.1953 173.277 63.1805 173.328 63.1602 173.376Z" fill="#455A64"/>
<path id="Vector_220" d="M68.6292 172.444C68.6292 172.5 65.4652 172.896 61.5492 173.328C57.6332 173.76 54.4532 174.064 54.4492 174.008C54.4452 173.952 57.6092 173.552 61.5252 173.12C65.4412 172.688 68.6212 172.4 68.6292 172.444Z" fill="#455A64"/>
</g>
<g id="freepik--Plant--inject-303">
<path id="Vector_221" d="M179.689 177.44C179.67 177.382 179.646 177.326 179.617 177.272L179.389 176.784C179.109 176.151 178.884 175.496 178.717 174.824C178.269 173.084 178.113 170.424 178.773 167.268C179.131 165.548 179.6 163.852 180.177 162.192C180.769 160.392 181.457 158.48 182.021 156.416C182.657 154.26 182.963 152.02 182.929 149.772C182.845 147.42 182.149 145.076 181.385 142.74C180.621 140.404 179.833 138.116 179.593 135.816C179.33 133.602 179.775 131.362 180.865 129.416C181.877 127.548 183.153 125.952 184.105 124.3C184.995 122.768 185.652 121.111 186.053 119.384C186.627 116.881 186.669 114.285 186.177 111.764C186 110.844 185.732 109.943 185.377 109.076C185.388 109.136 185.404 109.195 185.425 109.252L185.585 109.768C185.783 110.426 185.949 111.094 186.081 111.768C186.534 114.275 186.466 116.849 185.881 119.328C185.474 121.033 184.816 122.668 183.929 124.18C182.977 125.816 181.697 127.404 180.665 129.292C179.549 131.274 179.09 133.558 179.353 135.816C179.593 138.156 180.389 140.456 181.149 142.792C181.909 145.128 182.601 147.448 182.689 149.756C182.724 151.98 182.425 154.197 181.801 156.332C181.245 158.388 180.565 160.3 179.981 162.108C179.408 163.777 178.947 165.482 178.601 167.212C177.961 170.412 178.141 173.08 178.621 174.812C178.8 175.485 179.041 176.14 179.341 176.768C179.449 176.968 179.529 177.128 179.593 177.248C179.614 177.317 179.647 177.382 179.689 177.44Z" fill="#263238"/>
<path id="Vector_222" d="M182.799 125.936C182.799 125.936 184.735 119.748 181.263 116.12C181.236 116.09 181.201 116.068 181.163 116.057C181.124 116.046 181.083 116.046 181.045 116.057C181.006 116.069 180.971 116.091 180.945 116.121C180.918 116.151 180.901 116.188 180.895 116.228C180.715 117.248 180.487 120.364 182.799 125.936Z" fill="#0872BA"/>
<path id="Vector_223" d="M181.648 118.184C181.655 118.568 181.699 118.951 181.78 119.328C181.908 120.128 182.056 121.036 182.22 122.056C182.384 123.076 182.528 124 182.656 124.788C182.689 125.171 182.757 125.55 182.86 125.92C182.895 125.536 182.883 125.149 182.824 124.768C182.76 124.06 182.636 123.088 182.46 122.02C182.284 120.952 182.1 119.988 181.948 119.296C181.89 118.915 181.79 118.542 181.648 118.184Z" fill="#263238"/>
<path id="Vector_224" d="M180.535 140.54C180.535 140.54 179.335 134.164 174.583 132.584C174.546 132.57 174.505 132.567 174.466 132.575C174.427 132.583 174.391 132.602 174.362 132.629C174.334 132.657 174.313 132.692 174.303 132.731C174.294 132.769 174.295 132.81 174.307 132.848C174.623 133.84 175.875 136.7 180.535 140.54Z" fill="#0872BA"/>
<path id="Vector_225" d="M175.883 134.232C176.065 134.57 176.282 134.888 176.531 135.18L178.199 137.388L179.859 139.596C180.066 139.919 180.303 140.222 180.567 140.5C180.42 140.145 180.229 139.809 179.999 139.5C179.599 138.904 179.047 138.104 178.399 137.24C177.751 136.376 177.131 135.616 176.675 135.072C176.443 134.764 176.177 134.482 175.883 134.232Z" fill="#263238"/>
<path id="Vector_226" d="M181.82 156.543C181.82 156.543 182.54 150.095 178.44 147.199C178.407 147.177 178.369 147.163 178.33 147.161C178.291 147.158 178.251 147.166 178.216 147.184C178.181 147.202 178.152 147.23 178.131 147.264C178.111 147.297 178.1 147.336 178.1 147.375C178.112 148.399 178.48 151.515 181.82 156.543Z" fill="#0872BA"/>
<path id="Vector_227" d="M179.199 149.152C179.276 149.528 179.392 149.896 179.543 150.248L180.499 152.848C180.855 153.816 181.175 154.696 181.447 155.444C181.546 155.814 181.68 156.173 181.847 156.516C181.81 156.133 181.725 155.755 181.595 155.392C181.395 154.708 181.087 153.792 180.711 152.764C180.335 151.736 179.971 150.84 179.687 150.188C179.563 149.826 179.4 149.479 179.199 149.152Z" fill="#263238"/>
<path id="Vector_228" d="M178.232 172.64C178.232 172.64 178.72 166.172 174.516 163.44C174.483 163.417 174.445 163.404 174.406 163.403C174.366 163.401 174.327 163.41 174.293 163.429C174.258 163.448 174.23 163.476 174.211 163.511C174.191 163.545 174.182 163.584 174.184 163.624C174.232 164.648 174.712 167.732 178.232 172.64Z" fill="#0872BA"/>
<path id="Vector_229" d="M175.352 165.348C175.447 165.722 175.581 166.085 175.752 166.432L176.8 168.992C177.2 169.948 177.54 170.816 177.836 171.556C177.957 171.919 178.109 172.271 178.292 172.608C178.24 172.226 178.142 171.853 178 171.496C177.776 170.82 177.436 169.896 177.024 168.9C176.612 167.904 176.224 167.004 175.908 166.364C175.76 166.006 175.574 165.665 175.352 165.348Z" fill="#263238"/>
<path id="Vector_230" d="M185.6 120.496C185.6 120.496 191.352 117.496 191.464 112.476C191.465 112.437 191.456 112.397 191.436 112.362C191.417 112.328 191.388 112.299 191.353 112.279C191.318 112.26 191.279 112.251 191.239 112.252C191.199 112.254 191.161 112.266 191.128 112.288C190.264 112.88 187.896 114.916 185.6 120.496Z" fill="#0872BA"/>
<path id="Vector_231" d="M190.261 114.199C189.992 114.474 189.752 114.776 189.545 115.099L187.925 117.339L186.297 119.575C186.05 119.87 185.831 120.186 185.641 120.519C185.941 120.274 186.209 119.994 186.441 119.683C186.897 119.135 187.497 118.359 188.129 117.483C188.761 116.607 189.329 115.791 189.693 115.195C189.918 114.885 190.108 114.551 190.261 114.199Z" fill="#263238"/>
<path id="Vector_232" d="M179.416 133.795C179.416 133.795 185.34 131.147 185.756 126.143C185.761 126.103 185.754 126.063 185.737 126.027C185.72 125.991 185.692 125.96 185.658 125.939C185.625 125.917 185.585 125.906 185.545 125.906C185.505 125.906 185.466 125.918 185.432 125.939C184.544 126.475 182.056 128.363 179.416 133.795Z" fill="#0872BA"/>
<path id="Vector_233" d="M184.461 127.793C184.175 128.051 183.916 128.338 183.689 128.649L181.937 130.801L180.177 132.937C179.912 133.214 179.674 133.515 179.465 133.837C179.778 133.607 180.06 133.338 180.305 133.037C180.793 132.521 181.441 131.785 182.125 130.945C182.809 130.105 183.405 129.345 183.825 128.757C184.073 128.461 184.286 128.137 184.461 127.793Z" fill="#263238"/>
<path id="Vector_234" d="M182.824 148.628C182.824 148.628 186.892 143.572 184.984 138.928C184.972 138.887 184.948 138.85 184.914 138.822C184.881 138.795 184.84 138.778 184.797 138.774C184.753 138.77 184.71 138.78 184.672 138.801C184.635 138.822 184.604 138.854 184.584 138.892C184.056 139.776 182.7 142.592 182.824 148.628Z" fill="#0872BA"/>
<path id="Vector_235" d="M184.579 140.988C184.444 141.348 184.344 141.721 184.283 142.1C184.115 142.876 183.915 143.792 183.695 144.8L183.099 147.5C182.99 147.868 182.916 148.246 182.879 148.628C183.055 148.284 183.189 147.92 183.279 147.544C183.475 146.864 183.715 145.912 183.943 144.852C184.171 143.792 184.343 142.832 184.463 142.132C184.543 141.756 184.582 141.373 184.579 140.988Z" fill="#263238"/>
<path id="Vector_236" d="M178.801 166.083C178.801 166.083 184.677 163.335 185.013 158.327C185.016 158.288 185.008 158.248 184.989 158.213C184.971 158.178 184.944 158.148 184.91 158.127C184.876 158.107 184.837 158.096 184.797 158.096C184.758 158.096 184.719 158.107 184.685 158.127C183.801 158.679 181.345 160.607 178.801 166.083Z" fill="#0872BA"/>
<path id="Vector_237" d="M183.736 160C183.458 160.265 183.206 160.556 182.984 160.868L181.264 163.036L179.54 165.196C179.281 165.48 179.048 165.787 178.844 166.112C179.151 165.879 179.429 165.611 179.672 165.312C180.152 164.788 180.784 164.04 181.456 163.192C182.128 162.344 182.712 161.552 183.12 160.976C183.361 160.675 183.568 160.348 183.736 160Z" fill="#263238"/>
<path id="Vector_238" d="M167.087 140.576C167.08 140.624 167.08 140.672 167.087 140.72C167.087 140.832 167.087 140.968 167.087 141.12C167.087 141.52 167.127 142.036 167.159 142.692C167.235 144.076 167.339 146.004 167.467 148.292C167.887 150.636 169.067 153.24 170.687 155.768C171.867 157.628 173.087 159.32 174.167 160.892C175.145 162.282 176.025 163.739 176.799 165.252C177.294 166.263 177.696 167.316 177.999 168.4C178.099 168.8 178.179 169.092 178.223 169.3C178.242 169.406 178.27 169.511 178.307 169.612C178.309 169.503 178.297 169.394 178.271 169.288C178.243 169.08 178.179 168.772 178.087 168.38C177.812 167.277 177.425 166.205 176.931 165.18C176.181 163.666 175.32 162.208 174.355 160.82C173.299 159.22 172.071 157.54 170.899 155.688C169.299 153.176 168.099 150.612 167.675 148.304C167.515 146 167.379 144.072 167.275 142.704C167.223 142.048 167.179 141.524 167.147 141.136C167.147 140.968 167.119 140.832 167.107 140.736C167.095 140.64 167.095 140.576 167.087 140.576Z" fill="#263238"/>
<path id="Vector_239" d="M170.587 155.333C170.587 155.333 168.099 149.333 171.231 145.417C171.255 145.384 171.288 145.359 171.325 145.345C171.362 145.33 171.403 145.326 171.442 145.334C171.482 145.341 171.518 145.36 171.547 145.387C171.576 145.415 171.597 145.45 171.607 145.489C171.883 146.489 172.399 149.569 170.587 155.333Z" fill="#0872BA"/>
<path id="Vector_240" d="M171.042 147.504C170.931 147.872 170.864 148.252 170.842 148.636C170.754 149.34 170.658 150.316 170.578 151.396C170.498 152.476 170.466 153.456 170.466 154.168C170.442 154.552 170.465 154.937 170.534 155.316C170.604 154.939 170.639 154.556 170.638 154.172C170.69 153.372 170.754 152.444 170.822 151.412C170.89 150.38 170.958 149.448 171.014 148.652C171.061 148.271 171.07 147.887 171.042 147.504Z" fill="#263238"/>
<g id="Group_5" opacity="0.3">
<path id="Vector_241" d="M170.587 155.333C170.587 155.333 168.099 149.333 171.231 145.417C171.255 145.384 171.288 145.359 171.325 145.345C171.362 145.33 171.403 145.326 171.442 145.334C171.482 145.341 171.518 145.36 171.547 145.387C171.576 145.415 171.597 145.45 171.607 145.489C171.883 146.489 172.399 149.569 170.587 155.333Z" fill="black"/>
</g>
<path id="Vector_242" d="M178.3 169.768C178.3 169.768 176.3 163.596 179.744 159.936C179.771 159.908 179.806 159.887 179.844 159.877C179.882 159.866 179.922 159.867 179.96 159.877C179.997 159.888 180.032 159.909 180.059 159.938C180.085 159.966 180.104 160.002 180.112 160.04C180.308 161.06 180.568 164.172 178.3 169.768Z" fill="#0872BA"/>
<path id="Vector_243" d="M179.383 162C179.246 162.359 179.149 162.732 179.095 163.112C178.951 163.808 178.775 164.772 178.607 165.84C178.439 166.908 178.327 167.888 178.271 168.596C178.216 168.976 178.208 169.362 178.247 169.744C178.347 169.374 178.413 168.995 178.443 168.612C178.559 167.812 178.695 166.9 178.843 165.88L179.243 163.144C179.329 162.769 179.376 162.385 179.383 162Z" fill="#263238"/>
<g id="Group_6" opacity="0.3">
<path id="Vector_244" d="M178.3 169.768C178.3 169.768 176.3 163.596 179.744 159.936C179.771 159.908 179.806 159.887 179.844 159.877C179.882 159.866 179.922 159.867 179.96 159.877C179.997 159.888 180.032 159.909 180.059 159.938C180.085 159.966 180.104 160.002 180.112 160.04C180.308 161.06 180.568 164.172 178.3 169.768Z" fill="black"/>
</g>
<path id="Vector_245" d="M167.42 148C167.42 148 162.104 144.28 162.64 139.288C162.644 139.249 162.659 139.212 162.683 139.181C162.707 139.149 162.739 139.125 162.775 139.111C162.812 139.096 162.852 139.092 162.891 139.099C162.929 139.105 162.966 139.123 162.996 139.148C163.768 139.852 165.856 142.176 167.42 148Z" fill="#0872BA"/>
<g id="Group_7" opacity="0.3">
<path id="Vector_246" d="M167.42 148C167.42 148 162.104 144.28 162.64 139.288C162.644 139.249 162.659 139.212 162.683 139.181C162.707 139.149 162.739 139.125 162.775 139.111C162.812 139.096 162.852 139.092 162.891 139.099C162.929 139.105 162.966 139.123 162.996 139.148C163.768 139.852 165.856 142.176 167.42 148Z" fill="black"/>
</g>
<path id="Vector_247" d="M163.6 141.16C163.704 141.531 163.852 141.888 164.04 142.224C164.344 142.864 164.784 143.74 165.296 144.692C165.808 145.644 166.308 146.492 166.688 147.092C166.874 147.429 167.101 147.742 167.364 148.024C167.219 147.669 167.042 147.328 166.836 147.004C166.436 146.304 166.004 145.484 165.512 144.576L164.192 142.144C164.028 141.797 163.829 141.468 163.6 141.16Z" fill="#263238"/>
<path id="Vector_248" d="M176.155 163.648C176.155 163.648 169.755 162.648 168.027 157.932C168.013 157.895 168.01 157.855 168.018 157.816C168.025 157.776 168.043 157.74 168.07 157.711C168.097 157.681 168.132 157.66 168.17 157.649C168.208 157.638 168.249 157.638 168.287 157.648C169.283 157.932 172.179 159.104 176.155 163.648Z" fill="#0872BA"/>
<g id="Group_8" opacity="0.3">
<path id="Vector_249" d="M176.155 163.648C176.155 163.648 169.755 162.648 168.027 157.932C168.013 157.895 168.01 157.855 168.018 157.816C168.025 157.776 168.043 157.74 168.07 157.711C168.097 157.681 168.132 157.66 168.17 157.649C168.208 157.638 168.249 157.638 168.287 157.648C169.283 157.932 172.179 159.104 176.155 163.648Z" fill="black"/>
</g>
<path id="Vector_250" d="M169.711 159.199C169.968 159.485 170.258 159.741 170.575 159.959C171.131 160.403 171.911 160.995 172.791 161.623C173.671 162.251 174.491 162.795 175.099 163.163C175.413 163.386 175.755 163.567 176.115 163.703C175.829 163.444 175.523 163.209 175.199 162.999C174.547 162.543 173.783 162.003 172.943 161.399L170.687 159.799C170.382 159.568 170.055 159.367 169.711 159.199Z" fill="#263238"/>
<path id="Vector_251" d="M183.74 175.443L181.9 187.503L174.56 187.491L172.084 175.443H183.74Z" fill="#455A64"/>
<path id="Vector_252" d="M177.04 179.316C177.24 179.016 177.357 178.668 177.38 178.308C177.401 178.106 177.365 177.902 177.276 177.719C177.188 177.537 177.051 177.382 176.88 177.272C176.686 177.176 176.469 177.135 176.252 177.152C176.036 177.17 175.829 177.246 175.652 177.372C175.285 177.638 175.033 178.035 174.948 178.48C174.759 179.4 174.83 180.354 175.152 181.236C175.335 181.699 175.627 182.111 176.004 182.436C176.396 182.785 176.893 182.994 177.416 183.028C177.939 183.038 178.452 182.889 178.888 182.6C179.308 182.335 179.678 181.999 179.984 181.608C180.3 181.234 180.494 180.772 180.54 180.284C180.559 180.046 180.522 179.806 180.432 179.584C180.341 179.363 180.2 179.165 180.02 179.008C179.834 178.87 179.611 178.789 179.38 178.775C179.149 178.761 178.918 178.814 178.716 178.928C178.524 179.023 178.356 179.161 178.226 179.332C178.096 179.503 178.008 179.701 177.968 179.912C177.913 180.287 177.972 180.669 178.137 181.009C178.303 181.35 178.567 181.632 178.896 181.82C179.438 182.113 180.066 182.204 180.668 182.076C181.114 181.983 181.541 181.817 181.932 181.584C182.176 181.438 182.411 181.277 182.636 181.104C182.718 181.047 182.794 180.983 182.864 180.912C182.776 180.956 182.693 181.01 182.616 181.072C182.452 181.176 182.216 181.34 181.892 181.512C181.505 181.729 181.085 181.882 180.648 181.964C180.074 182.075 179.479 181.98 178.968 181.696C178.67 181.521 178.431 181.26 178.282 180.948C178.133 180.636 178.081 180.286 178.132 179.944C178.167 179.759 178.246 179.584 178.361 179.435C178.477 179.285 178.626 179.165 178.796 179.084C178.968 178.987 179.164 178.942 179.36 178.954C179.557 178.966 179.746 179.035 179.904 179.152C180.06 179.292 180.181 179.467 180.258 179.662C180.335 179.857 180.366 180.067 180.348 180.276C180.299 180.719 180.118 181.137 179.828 181.476C179.534 181.847 179.18 182.166 178.78 182.42C178.38 182.686 177.909 182.825 177.428 182.82C176.949 182.786 176.495 182.595 176.136 182.276C175.781 181.968 175.507 181.578 175.336 181.14C175.172 180.714 175.074 180.264 175.048 179.808C175.012 179.372 175.039 178.933 175.128 178.504C175.199 178.103 175.421 177.743 175.748 177.5C175.897 177.389 176.073 177.321 176.258 177.303C176.442 177.285 176.628 177.317 176.796 177.396C176.943 177.49 177.061 177.622 177.137 177.779C177.212 177.936 177.242 178.111 177.224 178.284C177.206 178.617 177.101 178.94 176.92 179.22C176.586 179.7 176.106 180.059 175.552 180.244C175.133 180.391 174.686 180.445 174.244 180.4C173.868 180.351 173.503 180.243 173.16 180.08L173.224 180.124C173.286 180.164 173.35 180.2 173.416 180.232C173.668 180.357 173.938 180.441 174.216 180.48C174.671 180.539 175.133 180.495 175.568 180.352C176.154 180.166 176.663 179.796 177.02 179.296" fill="#263238"/>
</g>
</g>
</svg>
