<svg width="17" height="16" viewBox="0 0 17 16" fill="none" xmlns="http://www.w3.org/2000/svg">
<g id="Group">
<path id="Vector" d="M3.34044 16H14.4174C15.0702 16 15.6963 15.7407 16.1579 15.279C16.6196 14.8174 16.8789 14.1913 16.8789 13.5385V2.46154C16.8789 1.8087 16.6196 1.1826 16.1579 0.720968C15.6963 0.25934 15.0702 0 14.4174 0H3.34044C2.6876 0 2.0615 0.25934 1.59987 0.720968C1.13825 1.1826 0.878906 1.8087 0.878906 2.46154V13.5385C0.878906 14.1913 1.13825 14.8174 1.59987 15.279C2.0615 15.7407 2.6876 16 3.34044 16ZM2.10968 2.46154C2.10968 2.13512 2.23935 1.82207 2.47016 1.59125C2.70097 1.36044 3.01402 1.23077 3.34044 1.23077H14.4174C14.7438 1.23077 15.0568 1.36044 15.2877 1.59125C15.5185 1.82207 15.6481 2.13512 15.6481 2.46154V13.5385C15.6481 13.8649 15.5185 14.1779 15.2877 14.4087C15.0568 14.6396 14.7438 14.7692 14.4174 14.7692H3.34044C3.01402 14.7692 2.70097 14.6396 2.47016 14.4087C2.23935 14.1779 2.10968 13.8649 2.10968 13.5385V2.46154Z" fill="#344054"/>
<path id="Vector_2" d="M5.52568 11.0086C5.67102 11.0816 5.83934 11.0941 5.99385 11.0433C6.14837 10.9926 6.27652 10.8827 6.3503 10.7378L8.87953 5.68549L10.0365 7.99934H8.87953C8.71632 7.99934 8.55979 8.06417 8.44439 8.17958C8.32898 8.29499 8.26414 8.45151 8.26414 8.61472C8.26414 8.77793 8.32898 8.93446 8.44439 9.04986C8.55979 9.16527 8.71632 9.23011 8.87953 9.23011H10.6518L11.4088 10.7378C11.4599 10.8393 11.5381 10.9246 11.6348 10.9844C11.7315 11.0441 11.8428 11.0759 11.9565 11.0763C12.053 11.0774 12.1483 11.0541 12.2334 11.0086C12.3783 10.9348 12.4882 10.8066 12.5389 10.6521C12.5896 10.4976 12.5771 10.3293 12.5041 10.184L9.42722 4.03011C9.37558 3.92931 9.29712 3.84471 9.20049 3.78564C9.10385 3.72657 8.99279 3.69531 8.87953 3.69531C8.76627 3.69531 8.65521 3.72657 8.55857 3.78564C8.46194 3.84471 8.38348 3.92931 8.33184 4.03011L5.25491 10.184C5.18192 10.3293 5.16943 10.4976 5.22017 10.6521C5.2709 10.8066 5.38074 10.9348 5.52568 11.0086Z" fill="#344054"/>
</g>
</svg>
