<svg width="24" height="24" viewBox="0 0 24 24" fill="none" xmlns="http://www.w3.org/2000/svg">
<g id="Frame">
<g id="Group">
<path id="Vector" d="M15.4408 8.60547C15.2609 8.60547 15.0883 8.67696 14.961 8.80422C14.8338 8.93147 14.7623 9.10407 14.7623 9.28404C14.7623 10.781 13.5449 11.9983 12.048 11.9983C10.5511 11.9983 9.33371 10.781 9.33371 9.28404C9.33371 9.10407 9.26221 8.93147 9.13496 8.80422C9.0077 8.67696 8.8351 8.60547 8.65513 8.60547C8.47517 8.60547 8.30257 8.67696 8.17531 8.80422C8.04805 8.93147 7.97656 9.10407 7.97656 9.28404C7.97656 11.5294 9.8026 13.3555 12.048 13.3555C14.2934 13.3555 16.1194 11.5294 16.1194 9.28404C16.1194 9.10407 16.0479 8.93147 15.9207 8.80422C15.7934 8.67696 15.6208 8.60547 15.4408 8.60547Z" fill="#475467"/>
<path id="Vector_2" d="M21.044 17.5765L19.4676 7.611C19.3939 7.13128 19.1503 6.69398 18.7813 6.37866C18.4123 6.06334 17.9424 5.89095 17.457 5.89286H16.0592C15.7335 3.97046 14.0621 2.5 12.0488 2.5C10.0355 2.5 8.36351 3.97046 8.03847 5.89286H6.64061C6.15525 5.89095 5.68533 6.06334 5.31634 6.37866C4.94734 6.69398 4.7038 7.13128 4.63001 7.611L3.05368 17.5765C2.97673 18.061 3.00586 18.5564 3.13906 19.0286C3.27227 19.5007 3.50638 19.9383 3.82522 20.3111C4.14358 20.6842 4.53914 20.9837 4.98457 21.189C5.43001 21.3943 5.9147 21.5004 6.40515 21.5H17.6925C18.6866 21.5 19.6264 21.0664 20.2724 20.3111C20.5913 19.9383 20.8254 19.5007 20.9586 19.0286C21.0918 18.5564 21.1209 18.061 21.044 17.5765ZM12.0488 3.85714C13.3096 3.85714 14.3628 4.72571 14.6668 5.89286H9.4309C9.73422 4.72571 10.788 3.85714 12.0488 3.85714ZM19.2403 19.429C19.0494 19.6529 18.8121 19.8327 18.5448 19.956C18.2776 20.0792 17.9868 20.143 17.6925 20.1429H6.40515C5.80868 20.1429 5.24479 19.883 4.85733 19.429C4.66594 19.2055 4.52538 18.9431 4.44536 18.6599C4.36534 18.3767 4.34777 18.0795 4.39386 17.7889L5.97018 7.82271C5.99474 7.66275 6.07595 7.51692 6.199 7.4118C6.32205 7.30668 6.47877 7.24926 6.64061 7.25H17.457C17.7929 7.25 18.0745 7.49089 18.1275 7.82271L19.7038 17.7889C19.7499 18.0795 19.7323 18.3767 19.6523 18.6599C19.5723 18.9431 19.4317 19.2055 19.2403 19.429Z" fill="#475467"/>
</g>
</g>
</svg>
